{"accessors" : [{"bufferView" : 0, "byteOffset" : 0, "componentType" : 5123, "count" : 7188, "type" : "SCALAR", "max" : [5991], "min" : [0]}, {"bufferView" : 1, "byteOffset" : 0, "componentType" : 5126, "count" : 5992, "type" : "VEC3", "max" : [1, 16, 1], "min" : [-1, -1, -1], "name" : "POSITION"}, {"bufferView" : 1, "byteOffset" : 12, "componentType" : 5126, "count" : 5992, "type" : "VEC3", "max" : [0.9993079900741577, 1.0000044107437134, 0.9993079900741577], "min" : [-0.9993080496788025, -1.0000044107437134, -0.9993080496788025], "name" : "NORMAL"}, {"bufferView" : 1, "byteOffset" : 24, "componentType" : 5126, "count" : 5992, "type" : "VEC2", "max" : [0.867590606212616, 1.5040373802185059], "min" : [0.2141914963722229, 1.2803961038589478], "name" : "TEXCOORD_0"}, {"bufferView" : 0, "byteOffset" : 14376, "componentType" : 5123, "count" : 26994, "type" : "SCALAR", "max" : [22695], "min" : [0]}, {"bufferView" : 2, "byteOffset" : 0, "componentType" : 5126, "count" : 22696, "type" : "VEC3", "max" : [1, 1.2385927438735962, 1], "min" : [-1, -1.000000238418579, -1], "name" : "POSITION"}, {"bufferView" : 2, "byteOffset" : 12, "componentType" : 5126, "count" : 22696, "type" : "VEC3", "max" : [0.9998810291290283, 1.0000044107437134, 0.9998810291290283], "min" : [-0.9998810291290283, -1.0000044107437134, -0.9998810887336731], "name" : "NORMAL"}, {"bufferView" : 2, "byteOffset" : 24, "componentType" : 5126, "count" : 22696, "type" : "VEC2", "max" : [0.2761511206626892, 1.3203458786010742], "min" : [0.21134985983371735, 1.256192684173584], "name" : "TEXCOORD_0"}, {"bufferView" : 0, "byteOffset" : 68364, "componentType" : 5123, "count" : 28194, "type" : "SCALAR", "max" : [23495], "min" : [0]}, {"bufferView" : 3, "byteOffset" : 0, "componentType" : 5126, "count" : 23496, "type" : "VEC3", "max" : [0.8582111597061157, 2.547522783279419, 0.8582099080085754], "min" : [-0.8582112789154053, 1.2385927438735962, -0.8582124710083008], "name" : "POSITION"}, {"bufferView" : 3, "byteOffset" : 12, "componentType" : 5126, "count" : 23496, "type" : "VEC3", "max" : [0.9998809695243835, 1.0000044107437134, 0.9998810291290283], "min" : [-0.9998810291290283, -1.0000044107437134, -0.9998810887336731], "name" : "NORMAL"}, {"bufferView" : 3, "byteOffset" : 24, "componentType" : 5126, "count" : 23496, "type" : "VEC2", "max" : [0.2699502110481262, 1.2817442417144775], "min" : [0.24995148181915283, 1.261745572090149], "name" : "TEXCOORD_0"}, {"bufferView" : 0, "byteOffset" : 124752, "componentType" : 5123, "count" : 17964, "type" : "SCALAR", "max" : [14975], "min" : [0]}, {"bufferView" : 4, "byteOffset" : 0, "componentType" : 5126, "count" : 14976, "type" : "VEC3", "max" : [6.810057640075684, 2.305211305618286, 11.768872261047363], "min" : [-13.583060264587402, 1.5614469051361084, -11.767807960510254], "name" : "POSITION"}, {"bufferView" : 4, "byteOffset" : 12, "componentType" : 5126, "count" : 14976, "type" : "VEC3", "max" : [1.0000044107437134, 0.9995964765548706, 0.9997719526290894], "min" : [-0.8658240437507629, -0.9996203780174255, -0.9997720122337341], "name" : "NORMAL"}, {"bufferView" : 4, "byteOffset" : 24, "componentType" : 5126, "count" : 14976, "type" : "VEC2", "max" : [0.8433705568313599, 1.4899324178695679], "min" : [0.14297865331172943, 1.242478609085083], "name" : "TEXCOORD_0"}, {"bufferView" : 5, "byteOffset" : 0, "componentType" : 5126, "normalized" : false, "count" : 100, "type" : "SCALAR", "max" : [4.166666507720947], "min" : [0.0416666679084301]}, {"bufferView" : 5, "byteOffset" : 400, "componentType" : 5126, "normalized" : false, "count" : 100, "type" : "VEC4", "max" : [0.7071068286895752, 0.7069964408874512, 0.706996500492096, 0.7071067094802856], "min" : [0.012490888126194477, -0.7069964408874512, -0.706996500492096, 0.012490889057517052]}], "animations" : [{"channels" : [{"sampler" : 0, "target" : {"node" : 2, "path" : "rotation"}}], "samplers" : [{"input" : 16, "interpolation" : "LINEAR", "output" : 17}], "name" : "Cylinder.003Action"}], "asset" : {"generator" : "Aspose.3D 24.1.0", "version" : "2.0"}, "buffers" : [{"uri" : "data:application/octet-stream;base64,", "byteLength" : 2733584}], "bufferViews" : [{"buffer" : 0, "byteOffset" : 0, "byteLength" : 160680, "target" : 34963}, {"buffer" : 0, "byteOffset" : 160684, "byteLength" : 230016, "byteStride" : 32, "target" : 34962}, {"buffer" : 0, "byteOffset" : 390704, "byteLength" : 863808, "byteStride" : 32, "target" : 34962}, {"buffer" : 0, "byteOffset" : 1254516, "byteLength" : 902208, "byteStride" : 32, "target" : 34962}, {"buffer" : 0, "byteOffset" : 2156728, "byteLength" : 574848, "byteStride" : 32, "target" : 34962}, {"buffer" : 0, "byteOffset" : 2731580, "byteLength" : 2000}], "materials" : [{"name" : "Bottom", "pbrMetallicRoughness" : {"baseColorFactor" : [1, 1, 1, 1], "metallicFactor" : 0, "roughnessFactor" : 0.30000001192092896}, "emissiveFactor" : [0, 0, 0], "alphaMode" : "OPAQUE", "doubleSided" : true}, {"name" : "Motar", "pbrMetallicRoughness" : {"baseColorFactor" : [0.5578292012214661, 0.5578292012214661, 0.5578292012214661, 1], "metallicFactor" : 0.30000001192092896, "roughnessFactor" : 0.4000000059604645}, "emissiveFactor" : [0, 0, 0], "alphaMode" : "OPAQUE", "doubleSided" : true}, {"name" : "Motar", "pbrMetallicRoughness" : {"baseColorFactor" : [0.5578292012214661, 0.5578292012214661, 0.5578292012214661, 1], "metallicFactor" : 0.30000001192092896, "roughnessFactor" : 0.4000000059604645}, "emissiveFactor" : [0, 0, 0], "alphaMode" : "OPAQUE", "doubleSided" : true}, {"name" : "Irakai", "pbrMetallicRoughness" : {"baseColorFactor" : [1, 1, 1, 1], "metallicFactor" : 0, "roughnessFactor" : 0.5}, "emissiveFactor" : [0, 0, 0], "alphaMode" : "OPAQUE", "doubleSided" : true}], "meshes" : [{"primitives" : [{"attributes" : {"POSITION" : 1, "NORMAL" : 2, "TEXCOORD_0" : 3}, "indices" : 0, "material" : 0, "mode" : 4}]}, {"primitives" : [{"attributes" : {"POSITION" : 5, "NORMAL" : 6, "TEXCOORD_0" : 7}, "indices" : 4, "material" : 1, "mode" : 4}]}, {"primitives" : [{"attributes" : {"POSITION" : 9, "NORMAL" : 10, "TEXCOORD_0" : 11}, "indices" : 8, "material" : 2, "mode" : 4}, {"attributes" : {"POSITION" : 13, "NORMAL" : 14, "TEXCOORD_0" : 15}, "indices" : 12, "material" : 3, "mode" : 4}]}], "nodes" : [{"matrix" : [0.37445908784866333, 0, 0, 0, 0, 0.37445908784866333, 0, 0, 0, 0, 0.37445908784866333, 0, 0, 0.37445908784866333, 0, 1], "mesh" : 0, "name" : "Cylinder"}, {"matrix" : [0.2855590879917145, 0, 0, 0, 0, -5.027493602280202E-08, 0.37418406268796095, 0, 0, -0.285559126359107, -3.836739252148071E-08, 0, 0, 6.494167327880859, -0.13874530792236328, 1], "mesh" : 1, "name" : "Cylinder.001"}, {"mesh" : 2, "rotation" : [0.7071068286895689, -0, -0, 0.7071067336835231], "scale" : [0.28555914759635925, 0.37418406268796434, 0.28555918596376234], "translation" : [0, 6.494167327880859, -0.13874530792236328], "name" : "Cylinder.003"}], "scene" : 0, "scenes" : [{"nodes" : [0, 1, 2]}]}