<svg width="100" height="100" viewBox="0 0 100 100" fill="none" xmlns="http://www.w3.org/2000/svg">
<rect x="0.5" y="0.5" width="99" height="99" rx="2.5" fill="white" stroke="#C6D0DC"/>
<path d="M2 26.6011H94.0247" stroke="#F1F1F1"/>
<path d="M2 37.2024H94.0247" stroke="#F1F1F1"/>
<path d="M2 47.804H94.0247" stroke="#F1F1F1"/>
<path d="M2 58.4053H94.0247" stroke="#F1F1F1"/>
<mask id="mask0_244_4639" style="mask-type:luminance" maskUnits="userSpaceOnUse" x="2" y="16" width="95" height="55">
<path d="M96.4558 16.5562H2.37085V70.3047H96.4558V16.5562Z" fill="white"/>
</mask>
<g mask="url(#mask0_244_4639)">
<path d="M3.40088 69.934V63.5732C6.97962 63.5732 10.0471 63.5732 13.6258 63.5732C17.2046 63.5732 20.2721 50.8514 23.8508 50.8514C27.4296 50.8514 30.4971 52.9717 34.0758 52.9717C37.6545 52.9717 40.722 26.4681 44.3008 26.4681C47.8795 26.4681 50.947 32.829 54.5257 32.829C58.1045 32.829 61.172 19.0471 64.7507 19.0471C68.3294 19.0471 71.3969 52.9717 74.9757 52.9717C78.5544 52.9717 81.6219 45.5507 85.2006 45.5507C88.7794 45.5507 91.8469 57.2123 95.4256 57.2123C95.4256 57.2123 95.4256 57.2123 95.4256 69.934" fill="url(#paint0_linear_244_4639)"/>
</g>
<mask id="mask1_244_4639" style="mask-type:luminance" maskUnits="userSpaceOnUse" x="2" y="16" width="95" height="55">
<path d="M96.4558 16.5562H2.37085V70.3047H96.4558V16.5562Z" fill="white"/>
</mask>
<g mask="url(#mask1_244_4639)">
<path d="M3.40088 63.5731C6.97962 63.5731 10.0471 63.5731 13.6258 63.5731C17.2046 63.5731 20.2721 50.8514 23.8508 50.8514C27.4296 50.8514 30.4971 52.9717 34.0758 52.9717C37.6545 52.9717 40.722 26.4681 44.3008 26.4681C47.8795 26.4681 50.947 32.829 54.5257 32.829C58.1045 32.829 61.172 19.0471 64.7507 19.0471C68.3294 19.0471 71.3969 52.9717 74.9757 52.9717C78.5544 52.9717 81.6219 45.5507 85.2006 45.5507C88.7794 45.5507 91.8469 57.2123 95.4256 57.2123" stroke="#00E396" stroke-width="2"/>
</g>
<mask id="mask2_244_4639" style="mask-type:luminance" maskUnits="userSpaceOnUse" x="2" y="16" width="95" height="55">
<path d="M96.4558 16.5562H2.37085V70.3047H96.4558V16.5562Z" fill="white"/>
</mask>
<g mask="url(#mask2_244_4639)">
<path d="M3.40088 69.9344V65.6938C6.97962 65.6938 10.0471 66.7539 13.6258 66.7539C17.2046 66.7539 20.2721 59.3329 23.8508 59.3329C27.4296 59.3329 30.4971 60.3931 34.0758 60.3931C37.6545 60.3931 40.722 39.1902 44.3008 39.1902C47.8795 39.1902 50.947 49.7916 54.5257 49.7916C58.1045 49.7916 61.172 43.4308 64.7507 43.4308C68.3294 43.4308 71.3969 60.3931 74.9757 60.3931C78.5544 60.3931 81.6219 57.2126 85.2006 57.2126C88.7794 57.2126 91.8469 62.5133 95.4256 62.5133C95.4256 62.5133 95.4256 62.5133 95.4256 69.9344" fill="url(#paint1_linear_244_4639)"/>
</g>
<mask id="mask3_244_4639" style="mask-type:luminance" maskUnits="userSpaceOnUse" x="2" y="16" width="95" height="55">
<path d="M96.4558 16.5562H2.37085V70.3047H96.4558V16.5562Z" fill="white"/>
</mask>
<g mask="url(#mask3_244_4639)">
<path d="M3.40088 65.6938C6.97962 65.6938 10.0471 66.7539 13.6258 66.7539C17.2046 66.7539 20.2721 59.3329 23.8508 59.3329C27.4296 59.3329 30.4971 60.3931 34.0758 60.3931C37.6545 60.3931 40.722 39.1902 44.3008 39.1902C47.8795 39.1902 50.947 49.7916 54.5257 49.7916C58.1045 49.7916 61.172 43.4308 64.7507 43.4308C68.3294 43.4308 71.3969 60.3931 74.9757 60.3931C78.5544 60.3931 81.6219 57.2126 85.2006 57.2126C88.7794 57.2126 91.8469 62.5133 95.4256 62.5133" stroke="#008FFB" stroke-width="2"/>
</g>
<path d="M0.5 77.5H99.5V97C99.5 98.3807 98.3807 99.5 97 99.5H3C1.61929 99.5 0.5 98.3807 0.5 97V77.5Z" fill="#FFF4F1" stroke="#C6D0DC"/>
<path d="M39.8691 92.9788L38.8916 90.2034H35.0703L34.0928 92.9788H32.3633L36.082 82.9436H37.9004L41.6123 92.9788H39.8691ZM38.4678 88.7952L37.5176 86.0608C37.4811 85.9423 37.4287 85.776 37.3604 85.5618C37.292 85.343 37.2236 85.122 37.1553 84.8987C37.0869 84.6708 37.0299 84.4794 36.9844 84.3245C36.9388 84.5113 36.8818 84.7209 36.8135 84.9534C36.7497 85.1812 36.6859 85.3954 36.6221 85.5959C36.5628 85.7965 36.5173 85.9514 36.4854 86.0608L35.5283 88.7952H38.4678ZM45.7412 82.9846C46.6025 82.9846 47.3135 83.0894 47.874 83.2991C48.4391 83.5087 48.8584 83.8277 49.1318 84.2561C49.4098 84.6845 49.5488 85.2291 49.5488 85.8899C49.5488 86.3821 49.4577 86.8014 49.2754 87.1477C49.0931 87.4941 48.8538 87.7812 48.5576 88.009C48.2614 88.2369 47.9447 88.4192 47.6074 88.5559L50.4443 92.9788H48.5918L46.1787 88.9729H44.5723V92.9788H42.9316V82.9846H45.7412ZM45.6318 84.3518H44.5723V87.6194H45.707C46.4681 87.6194 47.0195 87.4781 47.3613 87.1956C47.7077 86.913 47.8809 86.496 47.8809 85.9446C47.8809 85.3658 47.6963 84.9556 47.3271 84.7141C46.9626 84.4726 46.3975 84.3518 45.6318 84.3518ZM57.5332 92.9788H51.873V82.9846H57.5332V84.3655H53.5137V87.0793H57.2803V88.4534H53.5137V91.5911H57.5332V92.9788ZM65.8867 92.9788L64.9092 90.2034H61.0879L60.1104 92.9788H58.3809L62.0996 82.9436H63.918L67.6299 92.9788H65.8867ZM64.4854 88.7952L63.5352 86.0608C63.4987 85.9423 63.4463 85.776 63.3779 85.5618C63.3096 85.343 63.2412 85.122 63.1729 84.8987C63.1045 84.6708 63.0475 84.4794 63.002 84.3245C62.9564 84.5113 62.8994 84.7209 62.8311 84.9534C62.7673 85.1812 62.7035 85.3954 62.6396 85.5959C62.5804 85.7965 62.5348 85.9514 62.5029 86.0608L61.5459 88.7952H64.4854Z" fill="#C43E1C"/>
<defs>
<linearGradient id="paint0_linear_244_4639" x1="3.40088" y1="19.0471" x2="3.40088" y2="69.934" gradientUnits="userSpaceOnUse">
<stop stop-color="#00E396" stop-opacity="0.4225"/>
<stop offset="1" stop-color="#80F1CB" stop-opacity="0.25"/>
</linearGradient>
<linearGradient id="paint1_linear_244_4639" x1="3.40088" y1="39.1902" x2="3.40088" y2="69.9344" gradientUnits="userSpaceOnUse">
<stop stop-color="#008FFB" stop-opacity="0.4225"/>
<stop offset="1" stop-color="#80C7FD" stop-opacity="0.25"/>
</linearGradient>
</defs>
</svg>
