<svg width="100" height="100" viewBox="0 0 100 100" fill="none" xmlns="http://www.w3.org/2000/svg">
<rect x="0.5" y="0.5" width="99" height="99" rx="2.5" fill="white" stroke="#C6D0DC"/>
<path d="M4.73193 12.0247H95.1805" stroke="#F1F1F1"/>
<path d="M4.73193 18.9132H95.1805" stroke="#F1F1F1"/>
<path d="M4.73193 25.8019H95.1805" stroke="#F1F1F1"/>
<path d="M4.73193 32.6897H95.1805" stroke="#F1F1F1"/>
<path d="M4.73193 39.5784H95.1805" stroke="#F1F1F1"/>
<path d="M4.73193 46.4669H95.1805" stroke="#F1F1F1"/>
<path d="M4.73193 53.3556H95.1805" stroke="#F1F1F1"/>
<path d="M4.73193 60.2443H95.1805" stroke="#F1F1F1"/>
<path d="M4.73193 67.1321H95.1805" stroke="#F1F1F1"/>
<path d="M4.73193 74.0208H95.1805" stroke="#F1F1F1"/>
<mask id="mask0_361_15119" style="mask-type:luminance" maskUnits="userSpaceOnUse" x="4" y="5" width="92" height="70">
<path d="M95.9127 5H4V74.1574H95.9127V5Z" fill="white"/>
</mask>
<g mask="url(#mask0_361_15119)">
<path d="M9.12793 29.1914H13.3936V42.3122H11.2607H15.5264H13.3936V29.1914H17.6592V25.9113H9.12793V29.3281" fill="#008FFB" fill-opacity="0.85"/>
<path d="M9.12793 29.1914H13.3936M13.3936 29.1914V42.3122M13.3936 29.1914H17.6592V25.9113H9.12793V29.3281M13.3936 42.3122H11.2607H15.5264H13.3936Z" stroke="#24292E" stroke-width="0.5"/>
</g>
<mask id="mask1_361_15119" style="mask-type:luminance" maskUnits="userSpaceOnUse" x="4" y="5" width="92" height="70">
<path d="M95.9127 5H4V74.1574H95.9127V5Z" fill="white"/>
</mask>
<g mask="url(#mask1_361_15119)">
<path d="M9.12793 25.9107H17.6592V19.3504H13.3936V5.13623H15.5264H11.2607H13.3936V19.3504H9.12793V25.9107Z" fill="#00E396" fill-opacity="0.85"/>
<path d="M13.3936 19.3504H17.6592V25.9107H9.12793V19.3504H13.3936ZM13.3936 19.3504V5.13623M13.3936 5.13623H15.5264H11.2607H13.3936Z" stroke="#24292E" stroke-width="0.5"/>
</g>
<mask id="mask2_361_15119" style="mask-type:luminance" maskUnits="userSpaceOnUse" x="4" y="5" width="92" height="70">
<path d="M95.9127 5H4V74.1574H95.9127V5Z" fill="white"/>
</mask>
<g mask="url(#mask2_361_15119)">
<path d="M21.3157 30.2848H25.5813V54.3395H23.4485H27.7141H25.5813V30.2848H29.847V25.9113H21.3157V30.4215" fill="#008FFB" fill-opacity="0.85"/>
<path d="M21.3157 30.2848H25.5813M25.5813 30.2848V54.3395M25.5813 30.2848H29.847V25.9113H21.3157V30.4215M25.5813 54.3395H23.4485H27.7141H25.5813Z" stroke="#24292E" stroke-width="0.5"/>
</g>
<mask id="mask3_361_15119" style="mask-type:luminance" maskUnits="userSpaceOnUse" x="4" y="5" width="92" height="70">
<path d="M95.9127 5H4V74.1574H95.9127V5Z" fill="white"/>
</mask>
<g mask="url(#mask3_361_15119)">
<path d="M21.3157 25.911H29.847V18.2573H25.5813V12.7903H27.7141H23.4485H25.5813V18.2573H21.3157V25.911Z" fill="#00E396" fill-opacity="0.85"/>
<path d="M25.5813 18.2573H29.847V25.911H21.3157V18.2573H25.5813ZM25.5813 18.2573V12.7903M25.5813 12.7903H27.7141H23.4485H25.5813Z" stroke="#24292E" stroke-width="0.5"/>
</g>
<mask id="mask4_361_15119" style="mask-type:luminance" maskUnits="userSpaceOnUse" x="4" y="5" width="92" height="70">
<path d="M95.9127 5H4V74.1574H95.9127V5Z" fill="white"/>
</mask>
<g mask="url(#mask4_361_15119)">
<path d="M33.5032 58.7134H37.7688V67.4606H35.636H39.9016H37.7688V58.7134H42.0345V52.1531H33.5032V58.8501" fill="#008FFB" fill-opacity="0.85"/>
<path d="M33.5032 58.7134H37.7688M37.7688 58.7134V67.4606M37.7688 58.7134H42.0345V52.1531H33.5032V58.8501M37.7688 67.4606H35.636H39.9016H37.7688Z" stroke="#24292E" stroke-width="0.5"/>
</g>
<mask id="mask5_361_15119" style="mask-type:luminance" maskUnits="userSpaceOnUse" x="4" y="5" width="92" height="70">
<path d="M95.9127 5H4V74.1574H95.9127V5Z" fill="white"/>
</mask>
<g mask="url(#mask5_361_15119)">
<path d="M33.5032 52.1523H42.0345V45.5919H37.7688V36.8447H39.9016H35.636H37.7688V45.5919H33.5032V52.1523Z" fill="#00E396" fill-opacity="0.85"/>
<path d="M37.7688 45.5919H42.0345V52.1523H33.5032V45.5919H37.7688ZM37.7688 45.5919V36.8447M37.7688 36.8447H39.9016H35.636H37.7688Z" stroke="#24292E" stroke-width="0.5"/>
</g>
<mask id="mask6_361_15119" style="mask-type:luminance" maskUnits="userSpaceOnUse" x="4" y="5" width="92" height="70">
<path d="M95.9127 5H4V74.1574H95.9127V5Z" fill="white"/>
</mask>
<g mask="url(#mask6_361_15119)">
<path d="M45.6904 51.0592H49.9561V58.713H47.8233H52.0889H49.9561V51.0592H54.2217V41.2186H45.6904V51.1959" fill="#008FFB" fill-opacity="0.85"/>
<path d="M45.6904 51.0592H49.9561M49.9561 51.0592V58.713M49.9561 51.0592H54.2217V41.2186H45.6904V51.1959M49.9561 58.713H47.8233H52.0889H49.9561Z" stroke="#24292E" stroke-width="0.5"/>
</g>
<mask id="mask7_361_15119" style="mask-type:luminance" maskUnits="userSpaceOnUse" x="4" y="5" width="92" height="70">
<path d="M95.9127 5H4V74.1574H95.9127V5Z" fill="white"/>
</mask>
<g mask="url(#mask7_361_15119)">
<path d="M45.6904 41.2182H54.2217V30.2842H49.9561V23.7239H52.0889H47.8233H49.9561V30.2842H45.6904V41.2182Z" fill="#00E396" fill-opacity="0.85"/>
<path d="M49.9561 30.2842H54.2217V41.2182H45.6904V30.2842H49.9561ZM49.9561 30.2842V23.7239M49.9561 23.7239H52.0889H47.8233H49.9561Z" stroke="#24292E" stroke-width="0.5"/>
</g>
<mask id="mask8_361_15119" style="mask-type:luminance" maskUnits="userSpaceOnUse" x="4" y="5" width="92" height="70">
<path d="M95.9127 5H4V74.1574H95.9127V5Z" fill="white"/>
</mask>
<g mask="url(#mask8_361_15119)">
<path d="M57.8784 67.4601H62.1441V69.6469H60.0112H64.2769H62.1441V67.4601H66.4097V63.0865H57.8784V67.5968" fill="#008FFB" fill-opacity="0.85"/>
<path d="M57.8784 67.4601H62.1441M62.1441 67.4601V69.6469M62.1441 67.4601H66.4097V63.0865H57.8784V67.5968M62.1441 69.6469H60.0112H64.2769H62.1441Z" stroke="#24292E" stroke-width="0.5"/>
</g>
<mask id="mask9_361_15119" style="mask-type:luminance" maskUnits="userSpaceOnUse" x="4" y="5" width="92" height="70">
<path d="M95.9127 5H4V74.1574H95.9127V5Z" fill="white"/>
</mask>
<g mask="url(#mask9_361_15119)">
<path d="M57.8784 63.0864H66.4097V58.7128H62.1441V53.2458H64.2769H60.0112H62.1441V58.7128H57.8784V63.0864Z" fill="#00E396" fill-opacity="0.85"/>
<path d="M62.1441 58.7128H66.4097V63.0864H57.8784V58.7128H62.1441ZM62.1441 58.7128V53.2458M62.1441 53.2458H64.2769H60.0112H62.1441Z" stroke="#24292E" stroke-width="0.5"/>
</g>
<mask id="mask10_361_15119" style="mask-type:luminance" maskUnits="userSpaceOnUse" x="4" y="5" width="92" height="70">
<path d="M95.9127 5H4V74.1574H95.9127V5Z" fill="white"/>
</mask>
<g mask="url(#mask10_361_15119)">
<path d="M70.0657 47.779H74.3313V56.5262H72.1985H76.4641H74.3313V47.779H78.597V37.9385H70.0657V47.9157" fill="#008FFB" fill-opacity="0.85"/>
<path d="M70.0657 47.779H74.3313M74.3313 47.779V56.5262M74.3313 47.779H78.597V37.9385H70.0657V47.9157M74.3313 56.5262H72.1985H76.4641H74.3313Z" stroke="#24292E" stroke-width="0.5"/>
</g>
<mask id="mask11_361_15119" style="mask-type:luminance" maskUnits="userSpaceOnUse" x="4" y="5" width="92" height="70">
<path d="M95.9127 5H4V74.1574H95.9127V5Z" fill="white"/>
</mask>
<g mask="url(#mask11_361_15119)">
<path d="M70.0657 37.9383H78.597V34.6582H74.3313V28.0978H76.4641H72.1985H74.3313V34.6582H70.0657V37.9383Z" fill="#00E396" fill-opacity="0.85"/>
<path d="M74.3313 34.6582H78.597V37.9383H70.0657V34.6582H74.3313ZM74.3313 34.6582V28.0978M74.3313 28.0978H76.4641H72.1985H74.3313Z" stroke="#24292E" stroke-width="0.5"/>
</g>
<mask id="mask12_361_15119" style="mask-type:luminance" maskUnits="userSpaceOnUse" x="4" y="5" width="92" height="70">
<path d="M95.9127 5H4V74.1574H95.9127V5Z" fill="white"/>
</mask>
<g mask="url(#mask12_361_15119)">
<path d="M82.2534 36.8452H86.5191V42.3122H84.3862H88.6519H86.5191V36.8452H90.7847V29.1914H82.2534V36.9818" fill="#008FFB" fill-opacity="0.85"/>
<path d="M82.2534 36.8452H86.5191M86.5191 36.8452V42.3121M86.5191 36.8452H90.7847V29.1914H82.2534V36.9818M86.5191 42.3121H84.3862H88.6519H86.5191Z" stroke="#24292E" stroke-width="0.5"/>
</g>
<mask id="mask13_361_15119" style="mask-type:luminance" maskUnits="userSpaceOnUse" x="4" y="5" width="92" height="70">
<path d="M95.9127 5H4V74.1574H95.9127V5Z" fill="white"/>
</mask>
<g mask="url(#mask13_361_15119)">
<path d="M82.2534 29.1909H90.7847V23.724H86.5191V5.13623H88.6519H84.3862H86.5191V23.724H82.2534V29.1909Z" fill="#00E396" fill-opacity="0.85"/>
<path d="M86.5191 23.724H90.7847V29.1909H82.2534V23.724H86.5191ZM86.5191 23.724V5.13623M86.5191 5.13623H88.6519H84.3862H86.5191Z" stroke="#24292E" stroke-width="0.5"/>
</g>
<path d="M4.73193 5.13623H95.1805" stroke="#F1F1F1"/>
<path d="M0.5 77.5H99.5V97C99.5 98.3807 98.3807 99.5 97 99.5H3C1.61929 99.5 0.5 98.3807 0.5 97V77.5Z" fill="#FFF4F1" stroke="#C6D0DC"/>
<path d="M18.7451 83.9844H21.7188C23.0085 83.9844 23.9814 84.1712 24.6377 84.5449C25.2939 84.9186 25.6221 85.5635 25.6221 86.4795C25.6221 86.8623 25.5537 87.2087 25.417 87.5186C25.2848 87.8239 25.0911 88.0768 24.8359 88.2773C24.5807 88.4733 24.2663 88.6055 23.8926 88.6738V88.7422C24.2799 88.8105 24.624 88.9313 24.9248 89.1045C25.2301 89.2777 25.4694 89.526 25.6426 89.8496C25.8203 90.1732 25.9092 90.5924 25.9092 91.1074C25.9092 91.7181 25.7633 92.2376 25.4717 92.666C25.1846 93.0944 24.7721 93.4202 24.2344 93.6436C23.7012 93.8669 23.0677 93.9785 22.334 93.9785H18.7451V83.9844ZM20.3857 88.1064H21.958C22.7008 88.1064 23.2158 87.9857 23.5029 87.7441C23.79 87.5026 23.9336 87.1494 23.9336 86.6846C23.9336 86.2106 23.7627 85.8688 23.4209 85.6592C23.0837 85.4495 22.5459 85.3447 21.8076 85.3447H20.3857V88.1064ZM20.3857 89.4326V92.6045H22.1152C22.8809 92.6045 23.4186 92.4564 23.7285 92.1602C24.0384 91.8639 24.1934 91.4629 24.1934 90.957C24.1934 90.6471 24.1227 90.3783 23.9814 90.1504C23.8447 89.9225 23.6191 89.7471 23.3047 89.624C22.9902 89.4964 22.5664 89.4326 22.0332 89.4326H20.3857ZM36.8467 88.9678C36.8467 89.738 36.7487 90.4398 36.5527 91.0732C36.3613 91.7021 36.0719 92.2445 35.6846 92.7002C35.2972 93.1514 34.8118 93.5 34.2285 93.7461C33.6452 93.9922 32.9616 94.1152 32.1777 94.1152C31.3802 94.1152 30.6875 93.9922 30.0996 93.7461C29.5163 93.5 29.0309 93.1491 28.6436 92.6934C28.2607 92.2376 27.9736 91.693 27.7822 91.0596C27.5908 90.4261 27.4951 89.7243 27.4951 88.9541C27.4951 87.9242 27.6637 87.0264 28.001 86.2607C28.3428 85.4906 28.86 84.8936 29.5527 84.4697C30.25 84.0413 31.1296 83.8271 32.1914 83.8271C33.2305 83.8271 34.0941 84.0391 34.7822 84.4629C35.4704 84.8867 35.9854 85.4837 36.3271 86.2539C36.6735 87.0195 36.8467 87.9242 36.8467 88.9678ZM29.2178 88.9678C29.2178 89.738 29.3226 90.4056 29.5322 90.9707C29.7419 91.5312 30.0632 91.9642 30.4961 92.2695C30.9336 92.5703 31.4941 92.7207 32.1777 92.7207C32.8659 92.7207 33.4264 92.5703 33.8594 92.2695C34.2923 91.9642 34.6113 91.5312 34.8164 90.9707C35.0215 90.4056 35.124 89.738 35.124 88.9678C35.124 87.7965 34.8893 86.8805 34.4199 86.2197C33.9551 85.5544 33.2122 85.2217 32.1914 85.2217C31.5078 85.2217 30.945 85.3721 30.5029 85.6729C30.0654 85.9736 29.7419 86.4043 29.5322 86.9648C29.3226 87.5208 29.2178 88.1885 29.2178 88.9678ZM46.3691 93.9785H44.5029L41.9873 89.8838L39.458 93.9785H37.7012L41.0234 88.7969L37.9268 83.9844H39.7383L42.0625 87.7715L44.373 83.9844H46.1299L43.0195 88.8447L46.3691 93.9785ZM50.6211 83.9844C51.9108 83.9844 52.8519 84.2487 53.4443 84.7773C54.0368 85.306 54.333 86.0465 54.333 86.999C54.333 87.432 54.2646 87.8444 54.1279 88.2363C53.9958 88.6237 53.777 88.9678 53.4717 89.2686C53.1663 89.5648 52.763 89.7995 52.2617 89.9727C51.765 90.1458 51.152 90.2324 50.4229 90.2324H49.3564V93.9785H47.7158V83.9844H50.6211ZM50.5117 85.3447H49.3564V88.8652H50.252C50.7669 88.8652 51.2044 88.806 51.5645 88.6875C51.9245 88.5645 52.1979 88.3708 52.3848 88.1064C52.5716 87.8421 52.665 87.4935 52.665 87.0605C52.665 86.4818 52.4896 86.0511 52.1387 85.7686C51.7923 85.486 51.25 85.3447 50.5117 85.3447ZM56.3291 93.9785V83.9844H57.9697V92.584H62.2148V93.9785H56.3291ZM72.8174 88.9678C72.8174 89.738 72.7194 90.4398 72.5234 91.0732C72.332 91.7021 72.0426 92.2445 71.6553 92.7002C71.2679 93.1514 70.7826 93.5 70.1992 93.7461C69.6159 93.9922 68.9323 94.1152 68.1484 94.1152C67.3509 94.1152 66.6582 93.9922 66.0703 93.7461C65.487 93.5 65.0016 93.1491 64.6143 92.6934C64.2314 92.2376 63.9443 91.693 63.7529 91.0596C63.5615 90.4261 63.4658 89.7243 63.4658 88.9541C63.4658 87.9242 63.6344 87.0264 63.9717 86.2607C64.3135 85.4906 64.8307 84.8936 65.5234 84.4697C66.2207 84.0413 67.1003 83.8271 68.1621 83.8271C69.2012 83.8271 70.0648 84.0391 70.7529 84.4629C71.4411 84.8867 71.9561 85.4837 72.2979 86.2539C72.6442 87.0195 72.8174 87.9242 72.8174 88.9678ZM65.1885 88.9678C65.1885 89.738 65.2933 90.4056 65.5029 90.9707C65.7126 91.5312 66.0339 91.9642 66.4668 92.2695C66.9043 92.5703 67.4648 92.7207 68.1484 92.7207C68.8366 92.7207 69.3971 92.5703 69.8301 92.2695C70.263 91.9642 70.582 91.5312 70.7871 90.9707C70.9922 90.4056 71.0947 89.738 71.0947 88.9678C71.0947 87.7965 70.86 86.8805 70.3906 86.2197C69.9258 85.5544 69.1829 85.2217 68.1621 85.2217C67.4785 85.2217 66.9157 85.3721 66.4736 85.6729C66.0361 85.9736 65.7126 86.4043 65.5029 86.9648C65.2933 87.5208 65.1885 88.1885 65.1885 88.9678ZM78.4297 93.9785H76.7822V85.3789H73.8564V83.9844H81.3486V85.3789H78.4297V93.9785Z" fill="#C43E1C"/>
</svg>
