<svg xmlns="http://www.w3.org/2000/svg" width="100" height="100" viewBox="0 0 100 100" fill="none">
<rect x="0.5" y="0.5" width="99" height="99" rx="2.5" fill="white" stroke="#C6D0DC"/>
<path d="M49.9998 5C55.6234 5 61.1592 6.39483 66.1113 9.05955C71.0634 11.7243 75.2772 15.5757 78.3752 20.2687C81.4733 24.9618 83.3588 30.35 83.8629 35.9507C84.367 41.5514 83.4739 47.1897 81.2637 52.3605L70.3213 47.6837C71.758 44.3227 72.3384 40.6578 72.0108 37.0174C71.6831 33.3769 70.4575 29.8746 68.4438 26.8241C66.4301 23.7736 63.6911 21.2702 60.4722 19.5381C57.2534 17.806 53.6551 16.8994 49.9998 16.8994V5Z" fill="#008FFB" stroke="white" stroke-width="2"/>
<path d="M81.2638 52.3605C78.493 58.8427 73.7757 64.3033 67.7648 67.9866C61.7538 71.6699 54.7465 73.3938 47.7127 72.9196C40.6789 72.4454 33.9664 69.7966 28.5043 65.3397C23.0422 60.8829 19.1006 54.8385 17.2251 48.0431L28.6963 44.8774C29.9153 49.2945 32.4774 53.2233 36.0277 56.1202C39.5781 59.0172 43.9412 60.7389 48.5132 61.0471C53.0852 61.3554 57.6399 60.2349 61.547 57.8407C65.4542 55.4466 68.5204 51.8971 70.3214 47.6837L81.2638 52.3605Z" fill="#00E396" stroke="white" stroke-width="2"/>
<path d="M17.2253 48.0431C15.8323 42.9959 15.6239 37.6951 16.6163 32.5542C17.6088 27.4132 19.7753 22.5709 22.947 18.4048C26.1186 14.2387 30.2097 10.8615 34.9012 8.5363C39.5927 6.21113 44.7579 5.00091 49.9941 5L49.9961 16.8994C46.5926 16.9 43.2353 17.6866 40.1858 19.198C37.1363 20.7093 34.4771 22.9046 32.4155 25.6125C30.354 28.3205 28.9457 31.468 28.3006 34.8096C27.6555 38.1512 27.791 41.5967 28.6964 44.8774L17.2253 48.0431Z" fill="#FEB019" stroke="white" stroke-width="2"/>
<path d="M0.5 77.5H99.5V97C99.5 98.3807 98.3807 99.5 97 99.5H3C1.61929 99.5 0.5 98.3807 0.5 97V77.5Z" fill="#FFF4F1" stroke="#C6D0DC"/>
<path d="M34.6406 87.886C34.6406 89.0116 34.431 89.9527 34.0117 90.7092C33.5924 91.4612 32.984 92.0286 32.1865 92.4114C31.389 92.7896 30.4274 92.9788 29.3018 92.9788H26.5264V82.9846H29.6025C30.637 82.9846 31.5303 83.1715 32.2822 83.5452C33.0342 83.9143 33.6152 84.4635 34.0254 85.1926C34.4355 85.9172 34.6406 86.815 34.6406 87.886ZM32.9316 87.9338C32.9316 87.1135 32.8018 86.439 32.542 85.9104C32.2868 85.3818 31.9085 84.9898 31.4072 84.7346C30.9105 84.4749 30.2975 84.345 29.5684 84.345H28.167V91.6047H29.3291C30.5368 91.6047 31.4391 91.2971 32.0361 90.6819C32.6331 90.0667 32.9316 89.1506 32.9316 87.9338ZM45.667 87.968C45.667 88.7382 45.569 89.44 45.373 90.0735C45.1816 90.7024 44.8923 91.2447 44.5049 91.7004C44.1175 92.1516 43.6322 92.5002 43.0488 92.7463C42.4655 92.9924 41.7819 93.1155 40.998 93.1155C40.2005 93.1155 39.5078 92.9924 38.9199 92.7463C38.3366 92.5002 37.8512 92.1493 37.4639 91.6936C37.0811 91.2379 36.7939 90.6933 36.6025 90.0598C36.4111 89.4264 36.3154 88.7245 36.3154 87.9543C36.3154 86.9244 36.484 86.0266 36.8213 85.261C37.1631 84.4908 37.6803 83.8938 38.373 83.47C39.0703 83.0416 39.9499 82.8274 41.0117 82.8274C42.0508 82.8274 42.9144 83.0393 43.6025 83.4631C44.2907 83.887 44.8057 84.484 45.1475 85.2542C45.4938 86.0198 45.667 86.9244 45.667 87.968ZM38.0381 87.968C38.0381 88.7382 38.1429 89.4058 38.3525 89.9709C38.5622 90.5315 38.8835 90.9644 39.3164 91.2698C39.7539 91.5706 40.3145 91.7209 40.998 91.7209C41.6862 91.7209 42.2467 91.5706 42.6797 91.2698C43.1126 90.9644 43.4316 90.5315 43.6367 89.9709C43.8418 89.4058 43.9443 88.7382 43.9443 87.968C43.9443 86.7968 43.7096 85.8808 43.2402 85.22C42.7754 84.5546 42.0326 84.2219 41.0117 84.2219C40.3281 84.2219 39.7653 84.3723 39.3232 84.6731C38.8857 84.9739 38.5622 85.4045 38.3525 85.9651C38.1429 86.5211 38.0381 87.1887 38.0381 87.968ZM56.1533 92.9788H54.1367L49.2422 85.0012H49.1807C49.1989 85.2701 49.2148 85.5549 49.2285 85.8557C49.2467 86.1565 49.2604 86.4664 49.2695 86.7854C49.2832 87.1044 49.2946 87.428 49.3037 87.7561V92.9788H47.8135V82.9846H49.8164L54.7041 90.9075H54.752C54.7428 90.675 54.7314 90.4084 54.7178 90.1077C54.7041 89.8069 54.6904 89.497 54.6768 89.178C54.6676 88.8544 54.6608 88.5422 54.6562 88.2415V82.9846H56.1533V92.9788ZM66.626 82.9846V89.4514C66.626 90.1487 66.4779 90.773 66.1816 91.3245C65.89 91.8759 65.4479 92.3134 64.8555 92.637C64.263 92.956 63.5179 93.1155 62.6201 93.1155C61.3395 93.1155 60.3643 92.7805 59.6943 92.1106C59.029 91.4361 58.6963 90.5406 58.6963 89.4241V82.9846H60.3369V89.2805C60.3369 90.1145 60.5329 90.7297 60.9248 91.1262C61.3167 91.5227 61.9023 91.7209 62.6816 91.7209C63.2194 91.7209 63.6569 91.6275 63.9941 91.4407C64.3359 91.2493 64.5866 90.9713 64.7461 90.6067C64.9102 90.2375 64.9922 89.7932 64.9922 89.2737V82.9846H66.626ZM72.6484 92.9788H71.001V84.3792H68.0752V82.9846H75.5674V84.3792H72.6484V92.9788Z" fill="#C43E1C"/>
</svg>