<svg width="100" height="100" viewBox="0 0 100 100" fill="none" xmlns="http://www.w3.org/2000/svg">
<rect x="0.5" y="0.5" width="99" height="99" rx="2.5" fill="white" stroke="#C6D0DC"/>
<mask id="mask0_361_15065" style="mask-type:luminance" maskUnits="userSpaceOnUse" x="4" y="8" width="93" height="64">
<path d="M96.7521 8H4V71.4999H96.7521V8Z" fill="white"/>
</mask>
<g mask="url(#mask0_361_15065)">
<path d="M8.52417 9.5874H92.2287V19.1124H8.52417V9.5874Z" fill="#008FFB" fill-opacity="0.85"/>
</g>
<mask id="mask1_361_15065" style="mask-type:luminance" maskUnits="userSpaceOnUse" x="4" y="8" width="93" height="64">
<path d="M96.7521 8H4V71.4999H96.7521V8Z" fill="white"/>
</mask>
<g mask="url(#mask1_361_15065)">
<path d="M16.1335 22.2876H84.6191V31.8126H16.1335V22.2876Z" fill="#00E396" fill-opacity="0.85"/>
</g>
<mask id="mask2_361_15065" style="mask-type:luminance" maskUnits="userSpaceOnUse" x="4" y="8" width="93" height="64">
<path d="M96.7521 8H4V71.4999H96.7521V8Z" fill="white"/>
</mask>
<g mask="url(#mask2_361_15065)">
<path d="M33.2551 34.9872H67.4979V44.5122H33.2551V34.9872Z" fill="#FEB019" fill-opacity="0.85"/>
</g>
<mask id="mask3_361_15065" style="mask-type:luminance" maskUnits="userSpaceOnUse" x="4" y="8" width="93" height="64">
<path d="M96.7521 8H4V71.4999H96.7521V8Z" fill="white"/>
</mask>
<g mask="url(#mask3_361_15065)">
<path d="M38.9622 47.6875H61.7907V57.2125H38.9622V47.6875Z" fill="#FF4560" fill-opacity="0.85"/>
</g>
<mask id="mask4_361_15065" style="mask-type:luminance" maskUnits="userSpaceOnUse" x="4" y="8" width="93" height="64">
<path d="M96.7521 8H4V71.4999H96.7521V8Z" fill="white"/>
</mask>
<g mask="url(#mask4_361_15065)">
<path d="M44.6692 60.3877H56.0834V69.9127H44.6692V60.3877Z" fill="#775DD0" fill-opacity="0.85"/>
</g>
<path d="M8.52368 19.1122H92.2282L84.6187 22.2872H16.1332L8.52368 19.1122Z" fill="#80F1CB"/>
<path d="M16.1333 31.8124H84.6188L67.4975 34.9874H33.2547L16.1333 31.8124Z" fill="#FFD88C"/>
<path d="M33.2546 44.512H67.4974L61.7903 47.687H38.9618L33.2546 44.512Z" fill="#FFA2B0"/>
<path d="M38.9619 57.2122H61.7904L56.0833 60.3872H44.669L38.9619 57.2122Z" fill="#BBAEE8"/>
<path d="M0.5 77.5H99.5V97C99.5 98.3807 98.3807 99.5 97 99.5H3C1.61929 99.5 0.5 98.3807 0.5 97V77.5Z" fill="#FFF4F1" stroke="#C6D0DC"/>
<path d="M25.3223 92.9788H23.6953V82.9846H29.3418V84.3655H25.3223V87.4827H29.082V88.8567H25.3223V92.9788ZM39.0078 82.9846V89.4514C39.0078 90.1487 38.8597 90.773 38.5635 91.3245C38.2718 91.8759 37.8298 92.3134 37.2373 92.637C36.6449 92.956 35.8997 93.1155 35.002 93.1155C33.7214 93.1155 32.7461 92.7805 32.0762 92.1106C31.4108 91.4361 31.0781 90.5406 31.0781 89.4241V82.9846H32.7188V89.2805C32.7188 90.1145 32.9147 90.7297 33.3066 91.1262C33.6986 91.5227 34.2842 91.7209 35.0635 91.7209C35.6012 91.7209 36.0387 91.6275 36.376 91.4407C36.7178 91.2493 36.9684 90.9713 37.1279 90.6067C37.292 90.2375 37.374 89.7932 37.374 89.2737V82.9846H39.0078ZM49.9043 92.9788H47.8877L42.9932 85.0012H42.9316C42.9499 85.2701 42.9658 85.5549 42.9795 85.8557C42.9977 86.1565 43.0114 86.4664 43.0205 86.7854C43.0342 87.1044 43.0456 87.428 43.0547 87.7561V92.9788H41.5645V82.9846H43.5674L48.4551 90.9075H48.5029C48.4938 90.675 48.4824 90.4084 48.4688 90.1077C48.4551 89.8069 48.4414 89.497 48.4277 89.178C48.4186 88.8544 48.4118 88.5422 48.4072 88.2415V82.9846H49.9043V92.9788ZM60.8691 92.9788H58.8525L53.958 85.0012H53.8965C53.9147 85.2701 53.9307 85.5549 53.9443 85.8557C53.9626 86.1565 53.9762 86.4664 53.9854 86.7854C53.999 87.1044 54.0104 87.428 54.0195 87.7561V92.9788H52.5293V82.9846H54.5322L59.4199 90.9075H59.4678C59.4587 90.675 59.4473 90.4084 59.4336 90.1077C59.4199 89.8069 59.4062 89.497 59.3926 89.178C59.3835 88.8544 59.3766 88.5422 59.3721 88.2415V82.9846H60.8691V92.9788ZM69.1543 92.9788H63.4941V82.9846H69.1543V84.3655H65.1348V87.0793H68.9014V88.4534H65.1348V91.5911H69.1543V92.9788ZM71.3145 92.9788V82.9846H72.9551V91.5842H77.2002V92.9788H71.3145Z" fill="#C43E1C"/>
</svg>
