<svg width="100" height="100" viewBox="0 0 100 100" fill="none" xmlns="http://www.w3.org/2000/svg">
<rect x="0.5" y="0.5" width="99" height="99" rx="2.5" fill="white" stroke="#C6D0DC"/>
<path d="M0.5 77.5H99.5V97C99.5 98.3807 98.3807 99.5 97 99.5H3C1.61929 99.5 0.5 98.3807 0.5 97V77.5Z" fill="#FFF4F1" stroke="#C6D0DC"/>
<path d="M31.7402 87.5508H35.4727V92.5684C34.9486 92.7415 34.4062 92.876 33.8457 92.9717C33.2852 93.0674 32.6562 93.1152 31.959 93.1152C30.9427 93.1152 30.0814 92.9147 29.375 92.5137C28.6732 92.1081 28.14 91.5225 27.7754 90.7568C27.4108 89.9867 27.2285 89.0592 27.2285 87.9746C27.2285 86.931 27.4313 86.0264 27.8369 85.2607C28.2425 84.4906 28.8327 83.8958 29.6074 83.4766C30.3822 83.0527 31.321 82.8408 32.4238 82.8408C32.9661 82.8408 33.4902 82.8955 33.9961 83.0049C34.5065 83.1097 34.9736 83.2555 35.3975 83.4424L34.8232 84.7959C34.486 84.6364 34.1077 84.502 33.6885 84.3926C33.2692 84.2832 32.834 84.2285 32.3828 84.2285C31.6673 84.2285 31.0498 84.3835 30.5303 84.6934C30.0153 85.0033 29.6188 85.4408 29.3408 86.0059C29.0628 86.5664 28.9238 87.2295 28.9238 87.9951C28.9238 88.738 29.0355 89.3896 29.2588 89.9502C29.4821 90.5107 29.8307 90.9482 30.3047 91.2627C30.7832 91.5726 31.4007 91.7275 32.1572 91.7275C32.5355 91.7275 32.8568 91.707 33.1211 91.666C33.3854 91.625 33.6292 91.5794 33.8525 91.5293V88.9521H31.7402V87.5508ZM44.0586 92.9785L43.0811 90.2031H39.2598L38.2822 92.9785H36.5527L40.2715 82.9434H42.0898L45.8018 92.9785H44.0586ZM42.6572 88.7949L41.707 86.0605C41.6706 85.9421 41.6182 85.7757 41.5498 85.5615C41.4814 85.3428 41.4131 85.1217 41.3447 84.8984C41.2764 84.6706 41.2194 84.4792 41.1738 84.3242C41.1283 84.5111 41.0713 84.7207 41.0029 84.9531C40.9391 85.181 40.8753 85.3952 40.8115 85.5957C40.7523 85.7962 40.7067 85.9512 40.6748 86.0605L39.7178 88.7949H42.6572ZM55.4609 92.9785H53.4443L48.5498 85.001H48.4883C48.5065 85.2699 48.5225 85.5547 48.5361 85.8555C48.5544 86.1562 48.568 86.4661 48.5771 86.7852C48.5908 87.1042 48.6022 87.4277 48.6113 87.7559V92.9785H47.1211V82.9844H49.124L54.0117 90.9072H54.0596C54.0505 90.6748 54.0391 90.4082 54.0254 90.1074C54.0117 89.8066 53.998 89.4967 53.9844 89.1777C53.9753 88.8542 53.9684 88.542 53.9639 88.2412V82.9844H55.4609V92.9785ZM61.5518 92.9785H59.9043V84.3789H56.9785V82.9844H64.4707V84.3789H61.5518V92.9785ZM69.4678 92.9785H67.8203V84.3789H64.8945V82.9844H72.3867V84.3789H69.4678V92.9785Z" fill="#C43E1C"/>
<path d="M3.71338 20.9995H97.5105" stroke="#F1F1F1"/>
<path d="M3.71338 33.9999H97.5105" stroke="#F1F1F1"/>
<path d="M3.71338 47.0001H97.5105" stroke="#F1F1F1"/>
<path d="M3.71338 60.0004H97.5105" stroke="#F1F1F1"/>
<mask id="mask0_361_15080" style="mask-type:luminance" maskUnits="userSpaceOnUse" x="3" y="8" width="96" height="65">
<path d="M98.2237 8H3V72.9999H98.2237V8Z" fill="white"/>
</mask>
<g mask="url(#mask0_361_15080)">
<path d="M3.71362 10.6001H14.1355V18.4001H3.71362V10.6001Z" fill="#008FFB" fill-opacity="0.85"/>
</g>
<mask id="mask1_361_15080" style="mask-type:luminance" maskUnits="userSpaceOnUse" x="3" y="8" width="96" height="65">
<path d="M98.2237 8H3V72.9999H98.2237V8Z" fill="white"/>
</mask>
<g mask="url(#mask1_361_15080)">
<path d="M24.5574 10.6001H40.1902V18.4001H24.5574V10.6001Z" fill="#008FFB" fill-opacity="0.85"/>
</g>
<mask id="mask2_361_15080" style="mask-type:luminance" maskUnits="userSpaceOnUse" x="3" y="8" width="96" height="65">
<path d="M98.2237 8H3V72.9999H98.2237V8Z" fill="white"/>
</mask>
<g mask="url(#mask2_361_15080)">
<path d="M14.1355 23.6003H34.9793V31.4003H14.1355V23.6003Z" fill="#00E396" fill-opacity="0.85"/>
</g>
<mask id="mask3_361_15080" style="mask-type:luminance" maskUnits="userSpaceOnUse" x="3" y="8" width="96" height="65">
<path d="M98.2237 8H3V72.9999H98.2237V8Z" fill="white"/>
</mask>
<g mask="url(#mask3_361_15080)">
<path d="M34.9792 36.5999H55.8231V44.3998H34.9792V36.5999Z" fill="#FEB019" fill-opacity="0.85"/>
</g>
<mask id="mask4_361_15080" style="mask-type:luminance" maskUnits="userSpaceOnUse" x="3" y="8" width="96" height="65">
<path d="M98.2237 8H3V72.9999H98.2237V8Z" fill="white"/>
</mask>
<g mask="url(#mask4_361_15080)">
<path d="M55.8232 49.6001H71.4561V57.4001H55.8232V49.6001Z" fill="#008FFB" fill-opacity="0.85"/>
</g>
<path d="M71.4561 62.5997H97.5108V70.3997H71.4561V62.5997Z" fill="#00E396" fill-opacity="0.85"/>
<path d="M3.71338 8H97.5105" stroke="#F1F1F1"/>
<path d="M3.71338 73H97.5105" stroke="#F1F1F1"/>
</svg>
