<svg width="100" height="100" viewBox="0 0 100 100" fill="none" xmlns="http://www.w3.org/2000/svg">
<rect x="0.5" y="0.5" width="99" height="99" rx="2.5" fill="white" stroke="#C6D0DC"/>
<path d="M5.10132 18.9813H95.4126" stroke="#F1F1F1"/>
<path d="M5.10132 32.3273H95.4126" stroke="#F1F1F1"/>
<path d="M5.10132 45.673H95.4126" stroke="#F1F1F1"/>
<path d="M5.10132 59.0188H95.4126" stroke="#F1F1F1"/>
<mask id="mask0_361_15813" style="mask-type:luminance" maskUnits="userSpaceOnUse" x="4" y="5" width="93" height="68">
<path d="M96.514 5H4V73H96.514V5Z" fill="white"/>
</mask>
<g mask="url(#mask0_361_15813)">
<path d="M13.3982 5.6355H5.83556C5.43005 5.6355 5.10132 6.20456 5.10132 6.90653V17.7103C5.10132 18.4122 5.43005 18.9813 5.83556 18.9813H13.3982C13.8037 18.9813 14.1324 18.4122 14.1324 17.7103V6.90653C14.1324 6.20456 13.8037 5.6355 13.3982 5.6355Z" fill="#B9ACE7" stroke="white" stroke-width="2"/>
<path d="M22.4295 5.6355H14.8668C14.4613 5.6355 14.1326 6.20456 14.1326 6.90653V17.7103C14.1326 18.4122 14.4613 18.9813 14.8668 18.9813H22.4295C22.835 18.9813 23.1637 18.4122 23.1637 17.7103V6.90653C23.1637 6.20456 22.835 5.6355 22.4295 5.6355Z" fill="#FEFDFF" stroke="white" stroke-width="2"/>
<path d="M31.4605 5.6355H23.8978C23.4923 5.6355 23.1636 6.20456 23.1636 6.90653V17.7103C23.1636 18.4122 23.4923 18.9813 23.8978 18.9813H31.4605C31.866 18.9813 32.1947 18.4122 32.1947 17.7103V6.90653C32.1947 6.20456 31.866 5.6355 31.4605 5.6355Z" fill="#AF9FE3" stroke="white" stroke-width="2"/>
<path d="M40.4915 5.6355H32.9288C32.5233 5.6355 32.1946 6.20456 32.1946 6.90653V17.7103C32.1946 18.4122 32.5233 18.9813 32.9288 18.9813H40.4915C40.897 18.9813 41.2257 18.4122 41.2257 17.7103V6.90653C41.2257 6.20456 40.897 5.6355 40.4915 5.6355Z" fill="#FEFDFF" stroke="white" stroke-width="2"/>
<path d="M49.5227 5.6355H41.9601C41.5546 5.6355 41.2258 6.20456 41.2258 6.90653V17.7103C41.2258 18.4122 41.5546 18.9813 41.9601 18.9813H49.5227C49.9282 18.9813 50.257 18.4122 50.257 17.7103V6.90653C50.257 6.20456 49.9282 5.6355 49.5227 5.6355Z" fill="#A392DF" stroke="white" stroke-width="2"/>
<path d="M58.5537 5.6355H50.9911C50.5856 5.6355 50.2568 6.20456 50.2568 6.90653V17.7103C50.2568 18.4122 50.5856 18.9813 50.9911 18.9813H58.5537C58.9592 18.9813 59.288 18.4122 59.288 17.7103V6.90653C59.288 6.20456 58.9592 5.6355 58.5537 5.6355Z" fill="#C9BFEC" stroke="white" stroke-width="2"/>
<path d="M67.585 5.6355H60.0223C59.6168 5.6355 59.2881 6.20456 59.2881 6.90653V17.7103C59.2881 18.4122 59.6168 18.9813 60.0223 18.9813H67.585C67.9905 18.9813 68.3192 18.4122 68.3192 17.7103V6.90653C68.3192 6.20456 67.9905 5.6355 67.585 5.6355Z" fill="#EFECFA" stroke="white" stroke-width="2"/>
<path d="M76.6162 5.6355H69.0536C68.6481 5.6355 68.3193 6.20456 68.3193 6.90653V17.7103C68.3193 18.4122 68.6481 18.9813 69.0536 18.9813H76.6162C77.0217 18.9813 77.3505 18.4122 77.3505 17.7103V6.90653C77.3505 6.20456 77.0217 5.6355 76.6162 5.6355Z" fill="#B2A3E4" stroke="white" stroke-width="2"/>
<path d="M85.6472 5.6355H78.0846C77.6791 5.6355 77.3503 6.20456 77.3503 6.90653V17.7103C77.3503 18.4122 77.6791 18.9813 78.0846 18.9813H85.6472C86.0527 18.9813 86.3815 18.4122 86.3815 17.7103V6.90653C86.3815 6.20456 86.0527 5.6355 85.6472 5.6355Z" fill="#F1EFFA" stroke="white" stroke-width="2"/>
<path d="M94.6782 5.6355H87.1156C86.7101 5.6355 86.3813 6.20456 86.3813 6.90653V17.7103C86.3813 18.4122 86.7101 18.9813 87.1156 18.9813H94.6782C95.0838 18.9813 95.4125 18.4122 95.4125 17.7103V6.90653C95.4125 6.20456 95.0838 5.6355 94.6782 5.6355Z" fill="#B6A8E6" stroke="white" stroke-width="2"/>
<path d="M13.3982 18.9813H5.83556C5.43005 18.9813 5.10132 19.5504 5.10132 20.2524V31.0561C5.10132 31.7581 5.43005 32.3271 5.83556 32.3271H13.3982C13.8037 32.3271 14.1324 31.7581 14.1324 31.0561V20.2524C14.1324 19.5504 13.8037 18.9813 13.3982 18.9813Z" fill="#FFC5CE" stroke="white" stroke-width="2"/>
<path d="M22.4295 18.9813H14.8668C14.4613 18.9813 14.1326 19.5504 14.1326 20.2524V31.0561C14.1326 31.7581 14.4613 32.3271 14.8668 32.3271H22.4295C22.835 32.3271 23.1637 31.7581 23.1637 31.0561V20.2524C23.1637 19.5504 22.835 18.9813 22.4295 18.9813Z" fill="#FFFBFC" stroke="white" stroke-width="2"/>
<path d="M31.4605 18.9813H23.8978C23.4923 18.9813 23.1636 19.5504 23.1636 20.2524V31.0561C23.1636 31.7581 23.4923 32.3271 23.8978 32.3271H31.4605C31.866 32.3271 32.1947 31.7581 32.1947 31.0561V20.2524C32.1947 19.5504 31.866 18.9813 31.4605 18.9813Z" fill="#FFCAD2" stroke="white" stroke-width="2"/>
<path d="M40.4915 18.9813H32.9288C32.5233 18.9813 32.1946 19.5504 32.1946 20.2524V31.0561C32.1946 31.7581 32.5233 32.3271 32.9288 32.3271H40.4915C40.897 32.3271 41.2257 31.7581 41.2257 31.0561V20.2524C41.2257 19.5504 40.897 18.9813 40.4915 18.9813Z" fill="#FF94A4" stroke="white" stroke-width="2"/>
<path d="M49.5227 18.9813H41.9601C41.5546 18.9813 41.2258 19.5504 41.2258 20.2524V31.0561C41.2258 31.7581 41.5546 32.3271 41.9601 32.3271H49.5227C49.9282 32.3271 50.257 31.7581 50.257 31.0561V20.2524C50.257 19.5504 49.9282 18.9813 49.5227 18.9813Z" fill="#FF96A5" stroke="white" stroke-width="2"/>
<path d="M58.5537 18.9813H50.9911C50.5856 18.9813 50.2568 19.5504 50.2568 20.2524V31.0561C50.2568 31.7581 50.5856 32.3271 50.9911 32.3271H58.5537C58.9592 32.3271 59.288 31.7581 59.288 31.0561V20.2524C59.288 19.5504 58.9592 18.9813 58.5537 18.9813Z" fill="#FF7A8D" stroke="white" stroke-width="2"/>
<path d="M67.585 18.9813H60.0223C59.6168 18.9813 59.2881 19.5504 59.2881 20.2524V31.0561C59.2881 31.7581 59.6168 32.3271 60.0223 32.3271H67.585C67.9905 32.3271 68.3192 31.7581 68.3192 31.0561V20.2524C68.3192 19.5504 67.9905 18.9813 67.585 18.9813Z" fill="#FFA0AE" stroke="white" stroke-width="2"/>
<path d="M76.6162 18.9813H69.0536C68.6481 18.9813 68.3193 19.5504 68.3193 20.2524V31.0561C68.3193 31.7581 68.6481 32.3271 69.0536 32.3271H76.6162C77.0217 32.3271 77.3505 31.7581 77.3505 31.0561V20.2524C77.3505 19.5504 77.0217 18.9813 76.6162 18.9813Z" fill="#FFE7EA" stroke="white" stroke-width="2"/>
<path d="M85.6472 18.9813H78.0846C77.6791 18.9813 77.3503 19.5504 77.3503 20.2524V31.0561C77.3503 31.7581 77.6791 32.3271 78.0846 32.3271H85.6472C86.0527 32.3271 86.3815 31.7581 86.3815 31.0561V20.2524C86.3815 19.5504 86.0527 18.9813 85.6472 18.9813Z" fill="#FFDDE2" stroke="white" stroke-width="2"/>
<path d="M94.6782 18.9813H87.1156C86.7101 18.9813 86.3813 19.5504 86.3813 20.2524V31.0561C86.3813 31.7581 86.7101 32.3271 87.1156 32.3271H94.6782C95.0838 32.3271 95.4125 31.7581 95.4125 31.0561V20.2524C95.4125 19.5504 95.0838 18.9813 94.6782 18.9813Z" fill="#FF97A6" stroke="white" stroke-width="2"/>
<path d="M13.3982 32.3271H5.83556C5.43005 32.3271 5.10132 32.8962 5.10132 33.5982V44.4019C5.10132 45.1039 5.43005 45.6729 5.83556 45.6729H13.3982C13.8037 45.6729 14.1324 45.1039 14.1324 44.4019V33.5982C14.1324 32.8962 13.8037 32.3271 13.3982 32.3271Z" fill="#FEC351" stroke="white" stroke-width="2"/>
<path d="M22.4295 32.3271H14.8668C14.4613 32.3271 14.1326 32.8962 14.1326 33.5982V44.4019C14.1326 45.1039 14.4613 45.6729 14.8668 45.6729H22.4295C22.835 45.6729 23.1637 45.1039 23.1637 44.4019V33.5982C23.1637 32.8962 22.835 32.3271 22.4295 32.3271Z" fill="#FFE1A8" stroke="white" stroke-width="2"/>
<path d="M31.4605 32.3271H23.8978C23.4923 32.3271 23.1636 32.8962 23.1636 33.5982V44.4019C23.1636 45.1039 23.4923 45.6729 23.8978 45.6729H31.4605C31.866 45.6729 32.1947 45.1039 32.1947 44.4019V33.5982C32.1947 32.8962 31.866 32.3271 31.4605 32.3271Z" fill="#FFEAC2" stroke="white" stroke-width="2"/>
<path d="M40.4915 32.3271H32.9288C32.5233 32.3271 32.1946 32.8962 32.1946 33.5982V44.4019C32.1946 45.1039 32.5233 45.6729 32.9288 45.6729H40.4915C40.897 45.6729 41.2257 45.1039 41.2257 44.4019V33.5982C41.2257 32.8962 40.897 32.3271 40.4915 32.3271Z" fill="#FFF9ED" stroke="white" stroke-width="2"/>
<path d="M49.5227 32.3271H41.9601C41.5546 32.3271 41.2258 32.8962 41.2258 33.5982V44.4019C41.2258 45.1039 41.5546 45.6729 41.9601 45.6729H49.5227C49.9282 45.6729 50.257 45.1039 50.257 44.4019V33.5982C50.257 32.8962 49.9282 32.3271 49.5227 32.3271Z" fill="#FEB933" stroke="white" stroke-width="2"/>
<path d="M58.5537 32.3271H50.9911C50.5856 32.3271 50.2568 32.8962 50.2568 33.5982V44.4019C50.2568 45.1039 50.5856 45.6729 50.9911 45.6729H58.5537C58.9592 45.6729 59.288 45.1039 59.288 44.4019V33.5982C59.288 32.8962 58.9592 32.3271 58.5537 32.3271Z" fill="#FFF0D3" stroke="white" stroke-width="2"/>
<path d="M67.585 32.3271H60.0223C59.6168 32.3271 59.2881 32.8962 59.2881 33.5982V44.4019C59.2881 45.1039 59.6168 45.6729 60.0223 45.6729H67.585C67.9905 45.6729 68.3192 45.1039 68.3192 44.4019V33.5982C68.3192 32.8962 67.9905 32.3271 67.585 32.3271Z" fill="#FFF9EF" stroke="white" stroke-width="2"/>
<path d="M76.6162 32.3271H69.0536C68.6481 32.3271 68.3193 32.8962 68.3193 33.5982V44.4019C68.3193 45.1039 68.6481 45.6729 69.0536 45.6729H76.6162C77.0217 45.6729 77.3505 45.1039 77.3505 44.4019V33.5982C77.3505 32.8962 77.0217 32.3271 76.6162 32.3271Z" fill="#FFE3AD" stroke="white" stroke-width="2"/>
<path d="M85.6472 32.3271H78.0846C77.6791 32.3271 77.3503 32.8962 77.3503 33.5982V44.4019C77.3503 45.1039 77.6791 45.6729 78.0846 45.6729H85.6472C86.0527 45.6729 86.3815 45.1039 86.3815 44.4019V33.5982C86.3815 32.8962 86.0527 32.3271 85.6472 32.3271Z" fill="#FFF3DB" stroke="white" stroke-width="2"/>
<path d="M94.6782 32.3271H87.1156C86.7101 32.3271 86.3813 32.8962 86.3813 33.5982V44.4019C86.3813 45.1039 86.7101 45.6729 87.1156 45.6729H94.6782C95.0838 45.6729 95.4125 45.1039 95.4125 44.4019V33.5982C95.4125 32.8962 95.0838 32.3271 94.6782 32.3271Z" fill="#FFD88D" stroke="white" stroke-width="2"/>
<path d="M13.3982 45.673H5.83556C5.43005 45.673 5.10132 46.242 5.10132 46.944V57.7477C5.10132 58.4497 5.43005 59.0188 5.83556 59.0188H13.3982C13.8037 59.0188 14.1324 58.4497 14.1324 57.7477V46.944C14.1324 46.242 13.8037 45.673 13.3982 45.673Z" fill="#4DEBB6" stroke="white" stroke-width="2"/>
<path d="M22.4295 45.673H14.8668C14.4613 45.673 14.1326 46.242 14.1326 46.944V57.7477C14.1326 58.4497 14.4613 59.0188 14.8668 59.0188H22.4295C22.835 59.0188 23.1637 58.4497 23.1637 57.7477V46.944C23.1637 46.242 22.835 45.673 22.4295 45.673Z" fill="#DEFBF1" stroke="white" stroke-width="2"/>
<path d="M31.4605 45.673H23.8978C23.4923 45.673 23.1636 46.242 23.1636 46.944V57.7477C23.1636 58.4497 23.4923 59.0188 23.8978 59.0188H31.4605C31.866 59.0188 32.1947 58.4497 32.1947 57.7477V46.944C32.1947 46.242 31.866 45.673 31.4605 45.673Z" fill="#09E49A" stroke="white" stroke-width="2"/>
<path d="M40.4915 45.673H32.9288C32.5233 45.673 32.1946 46.242 32.1946 46.944V57.7477C32.1946 58.4497 32.5233 59.0188 32.9288 59.0188H40.4915C40.897 59.0188 41.2257 58.4497 41.2257 57.7477V46.944C41.2257 46.242 40.897 45.673 40.4915 45.673Z" fill="#B4F7E0" stroke="white" stroke-width="2"/>
<path d="M49.5227 45.673H41.9601C41.5546 45.673 41.2258 46.242 41.2258 46.944V57.7477C41.2258 58.4497 41.5546 59.0188 41.9601 59.0188H49.5227C49.9282 59.0188 50.257 58.4497 50.257 57.7477V46.944C50.257 46.242 49.9282 45.673 49.5227 45.673Z" fill="#FBFFFD" stroke="white" stroke-width="2"/>
<path d="M58.5537 45.673H50.9911C50.5856 45.673 50.2568 46.242 50.2568 46.944V57.7477C50.2568 58.4497 50.5856 59.0188 50.9911 59.0188H58.5537C58.9592 59.0188 59.288 58.4497 59.288 57.7477V46.944C59.288 46.242 58.9592 45.673 58.5537 45.673Z" fill="#77F0C7" stroke="white" stroke-width="2"/>
<path d="M67.585 45.673H60.0223C59.6168 45.673 59.2881 46.242 59.2881 46.944V57.7477C59.2881 58.4497 59.6168 59.0188 60.0223 59.0188H67.585C67.9905 59.0188 68.3192 58.4497 68.3192 57.7477V46.944C68.3192 46.242 67.9905 45.673 67.585 45.673Z" fill="#3BE9AE" stroke="white" stroke-width="2"/>
<path d="M76.6162 45.673H69.0536C68.6481 45.673 68.3193 46.242 68.3193 46.944V57.7477C68.3193 58.4497 68.6481 59.0188 69.0536 59.0188H76.6162C77.0217 59.0188 77.3505 58.4497 77.3505 57.7477V46.944C77.3505 46.242 77.0217 45.673 76.6162 45.673Z" fill="#77F0C7" stroke="white" stroke-width="2"/>
<path d="M85.6472 45.673H78.0846C77.6791 45.673 77.3503 46.242 77.3503 46.944V57.7477C77.3503 58.4497 77.6791 59.0188 78.0846 59.0188H85.6472C86.0527 59.0188 86.3815 58.4497 86.3815 57.7477V46.944C86.3815 46.242 86.0527 45.673 85.6472 45.673Z" fill="#7EF1CA" stroke="white" stroke-width="2"/>
<path d="M94.6782 45.673H87.1156C86.7101 45.673 86.3813 46.242 86.3813 46.944V57.7477C86.3813 58.4497 86.7101 59.0188 87.1156 59.0188H94.6782C95.0838 59.0188 95.4125 58.4497 95.4125 57.7477V46.944C95.4125 46.242 95.0838 45.673 94.6782 45.673Z" fill="#14E59E" stroke="white" stroke-width="2"/>
<path d="M13.3982 59.0188H5.83556C5.43005 59.0188 5.10132 59.5879 5.10132 60.2898V71.0936C5.10132 71.7955 5.43005 72.3646 5.83556 72.3646H13.3982C13.8037 72.3646 14.1324 71.7955 14.1324 71.0936V60.2898C14.1324 59.5879 13.8037 59.0188 13.3982 59.0188Z" fill="#47AEFC" stroke="white" stroke-width="2"/>
<path d="M22.4295 59.0188H14.8668C14.4613 59.0188 14.1326 59.5879 14.1326 60.2898V71.0936C14.1326 71.7955 14.4613 72.3646 14.8668 72.3646H22.4295C22.835 72.3646 23.1637 71.7955 23.1637 71.0936V60.2898C23.1637 59.5879 22.835 59.0188 22.4295 59.0188Z" fill="#82C8FD" stroke="white" stroke-width="2"/>
<path d="M31.4605 59.0188H23.8978C23.4923 59.0188 23.1636 59.5879 23.1636 60.2898V71.0936C23.1636 71.7955 23.4923 72.3646 23.8978 72.3646H31.4605C31.866 72.3646 32.1947 71.7955 32.1947 71.0936V60.2898C32.1947 59.5879 31.866 59.0188 31.4605 59.0188Z" fill="#2FA4FC" stroke="white" stroke-width="2"/>
<path d="M40.4915 59.0188H32.9288C32.5233 59.0188 32.1946 59.5879 32.1946 60.2898V71.0936C32.1946 71.7955 32.5233 72.3646 32.9288 72.3646H40.4915C40.897 72.3646 41.2257 71.7955 41.2257 71.0936V60.2898C41.2257 59.5879 40.897 59.0188 40.4915 59.0188Z" fill="#5EB8FC" stroke="white" stroke-width="2"/>
<path d="M49.5227 59.0188H41.9601C41.5546 59.0188 41.2258 59.5879 41.2258 60.2898V71.0936C41.2258 71.7955 41.5546 72.3646 41.9601 72.3646H49.5227C49.9282 72.3646 50.257 71.7955 50.257 71.0936V60.2898C50.257 59.5879 49.9282 59.0188 49.5227 59.0188Z" fill="#E4F3FF" stroke="white" stroke-width="2"/>
<path d="M58.5537 59.0188H50.9911C50.5856 59.0188 50.2568 59.5879 50.2568 60.2898V71.0936C50.2568 71.7955 50.5856 72.3646 50.9911 72.3646H58.5537C58.9592 72.3646 59.288 71.7955 59.288 71.0936V60.2898C59.288 59.5879 58.9592 59.0188 58.5537 59.0188Z" fill="#D4ECFE" stroke="white" stroke-width="2"/>
<path d="M67.585 59.0188H60.0223C59.6168 59.0188 59.2881 59.5879 59.2881 60.2898V71.0936C59.2881 71.7955 59.6168 72.3646 60.0223 72.3646H67.585C67.9905 72.3646 68.3192 71.7955 68.3192 71.0936V60.2898C68.3192 59.5879 67.9905 59.0188 67.585 59.0188Z" fill="#199AFB" stroke="white" stroke-width="2"/>
<path d="M76.6162 59.0188H69.0536C68.6481 59.0188 68.3193 59.5879 68.3193 60.2898V71.0936C68.3193 71.7955 68.6481 72.3646 69.0536 72.3646H76.6162C77.0217 72.3646 77.3505 71.7955 77.3505 71.0936V60.2898C77.3505 59.5879 77.0217 59.0188 76.6162 59.0188Z" fill="#AFDCFE" stroke="white" stroke-width="2"/>
<path d="M85.6472 59.0188H78.0846C77.6791 59.0188 77.3503 59.5879 77.3503 60.2898V71.0936C77.3503 71.7955 77.6791 72.3646 78.0846 72.3646H85.6472C86.0527 72.3646 86.3815 71.7955 86.3815 71.0936V60.2898C86.3815 59.5879 86.0527 59.0188 85.6472 59.0188Z" fill="#71C1FD" stroke="white" stroke-width="2"/>
<path d="M94.6782 59.0188H87.1156C86.7101 59.0188 86.3813 59.5879 86.3813 60.2898V71.0936C86.3813 71.7955 86.7101 72.3646 87.1156 72.3646H94.6782C95.0838 72.3646 95.4125 71.7955 95.4125 71.0936V60.2898C95.4125 59.5879 95.0838 59.0188 94.6782 59.0188Z" fill="#C2E4FE" stroke="white" stroke-width="2"/>
</g>
<path d="M5.10132 5.63562H95.4126" stroke="#F1F1F1"/>
<path d="M5.10132 72.3646H95.4126" stroke="#F1F1F1"/>
<path d="M0.5 77.5H99.5V97C99.5 98.3807 98.3807 99.5 97 99.5H3C1.61929 99.5 0.5 98.3807 0.5 97V77.5Z" fill="#FFF4F1" stroke="#C6D0DC"/>
<path d="M26.5469 92.9788H24.9131V88.467H20.3057V92.9788H18.665V82.9846H20.3057V87.0725H24.9131V82.9846H26.5469V92.9788ZM34.8525 92.9788H29.1924V82.9846H34.8525V84.3655H30.833V87.0793H34.5996V88.4534H30.833V91.5911H34.8525V92.9788ZM43.2061 92.9788L42.2285 90.2034H38.4072L37.4297 92.9788H35.7002L39.4189 82.9436H41.2373L44.9492 92.9788H43.2061ZM41.8047 88.7952L40.8545 86.0608C40.818 85.9423 40.7656 85.776 40.6973 85.5618C40.6289 85.343 40.5605 85.122 40.4922 84.8987C40.4238 84.6708 40.3669 84.4794 40.3213 84.3245C40.2757 84.5113 40.2188 84.7209 40.1504 84.9534C40.0866 85.1812 40.0228 85.3954 39.959 85.5959C39.8997 85.7965 39.8542 85.9514 39.8223 86.0608L38.8652 88.7952H41.8047ZM49.7344 92.9788H48.0869V84.3792H45.1611V82.9846H52.6533V84.3792H49.7344V92.9788ZM58.498 92.9788L55.6201 84.6321H55.5586C55.5723 84.8189 55.5882 85.0741 55.6064 85.3977C55.6247 85.7213 55.6406 86.0676 55.6543 86.4368C55.668 86.8059 55.6748 87.1591 55.6748 87.4963V92.9788H54.1846V82.9846H56.4883L59.2568 90.9622H59.2979L62.1621 82.9846H64.459V92.9788H62.8936V87.4143C62.8936 87.109 62.8981 86.7786 62.9072 86.4231C62.9209 86.0676 62.9346 85.7304 62.9482 85.4114C62.9665 85.0924 62.9801 84.8372 62.9893 84.6458H62.9346L59.9473 92.9788H58.498ZM73.2842 92.9788L72.3066 90.2034H68.4854L67.5078 92.9788H65.7783L69.4971 82.9436H71.3154L75.0273 92.9788H73.2842ZM71.8828 88.7952L70.9326 86.0608C70.8962 85.9423 70.8438 85.776 70.7754 85.5618C70.707 85.343 70.6387 85.122 70.5703 84.8987C70.502 84.6708 70.445 84.4794 70.3994 84.3245C70.3538 84.5113 70.2969 84.7209 70.2285 84.9534C70.1647 85.1812 70.1009 85.3954 70.0371 85.5959C69.9779 85.7965 69.9323 85.9514 69.9004 86.0608L68.9434 88.7952H71.8828ZM79.252 82.9846C80.5417 82.9846 81.4827 83.2489 82.0752 83.7776C82.6676 84.3062 82.9639 85.0468 82.9639 85.9993C82.9639 86.4322 82.8955 86.8446 82.7588 87.2366C82.6266 87.6239 82.4079 87.968 82.1025 88.2688C81.7972 88.565 81.3939 88.7997 80.8926 88.9729C80.3958 89.1461 79.7829 89.2327 79.0537 89.2327H77.9873V92.9788H76.3467V82.9846H79.252ZM79.1426 84.345H77.9873V87.8655H78.8828C79.3978 87.8655 79.8353 87.8062 80.1953 87.6877C80.5553 87.5647 80.8288 87.371 81.0156 87.1067C81.2025 86.8424 81.2959 86.4937 81.2959 86.0608C81.2959 85.482 81.1204 85.0514 80.7695 84.7688C80.4232 84.4862 79.8809 84.345 79.1426 84.345Z" fill="#C43E1C"/>
</svg>
