<svg xmlns="http://www.w3.org/2000/svg" width="100" height="100" viewBox="0 0 100 100" fill="none">
<rect x="0.5" y="0.5" width="99" height="99" rx="2.5" fill="white" stroke="#C6D0DC"/>
<path d="M6 20.1147H95.3333" stroke="#F1F1F1"/>
<path d="M6 34.719H95.3333" stroke="#F1F1F1"/>
<path d="M6 49.3232H95.3333" stroke="#F1F1F1"/>
<path d="M6 63.9275H95.3333" stroke="#F1F1F1"/>
<mask id="mask0_244_4680" style="mask-type:luminance" maskUnits="userSpaceOnUse" x="5" y="5" width="92" height="75">
<path d="M96.3333 5H5V79.0426H96.3333V5Z" fill="white"/>
</mask>
<g mask="url(#mask0_244_4680)">
<path d="M6 44.9422L15.9259 49.3235L25.8519 36.1797L35.7778 50.7839L45.7037 19.3848L55.6296 47.1329L65.5556 50.7839L75.4815 37.6401L85.4074 50.0537L95.3333 47.8631" stroke="#00E396" stroke-opacity="0.85" stroke-width="2"/>
</g>
<mask id="mask1_244_4680" style="mask-type:luminance" maskUnits="userSpaceOnUse" x="5" y="5" width="92" height="75">
<path d="M96.3333 5H5V79.0426H96.3333V5Z" fill="white"/>
</mask>
<g mask="url(#mask1_244_4680)">
<path d="M6 46.4025L15.9259 47.1327L25.8519 42.0213L35.7778 55.8953L45.7037 28.1472L55.6296 35.4493L65.5556 67.5787L75.4815 42.7515L85.4074 58.0859L95.3333 44.2119" stroke="#008FFB" stroke-opacity="0.85" stroke-width="2"/>
</g>
<path d="M6 5.51074H95.3333" stroke="#F1F1F1"/>
<path d="M6 78.532H95.3333" stroke="#F1F1F1"/>
<path d="M0.5 77.5H99.5V97C99.5 98.3807 98.3807 99.5 97 99.5H3C1.61929 99.5 0.5 98.3807 0.5 97V77.5Z" fill="#FFF4F1" stroke="#C6D0DC"/>
<path d="M36.4727 92.9788V82.9846H38.1133V91.5842H42.3584V92.9788H36.4727ZM44.0879 92.9788V82.9846H45.7285V92.9788H44.0879ZM56.707 92.9788H54.6904L49.7959 85.0012H49.7344C49.7526 85.2701 49.7686 85.5549 49.7822 85.8557C49.8005 86.1565 49.8141 86.4664 49.8232 86.7854C49.8369 87.1044 49.8483 87.428 49.8574 87.7561V92.9788H48.3672V82.9846H50.3701L55.2578 90.9075H55.3057C55.2965 90.675 55.2852 90.4084 55.2715 90.1077C55.2578 89.8069 55.2441 89.497 55.2305 89.178C55.2214 88.8544 55.2145 88.5422 55.21 88.2415V82.9846H56.707V92.9788ZM64.9922 92.9788H59.332V82.9846H64.9922V84.3655H60.9727V87.0793H64.7393V88.4534H60.9727V91.5911H64.9922V92.9788Z" fill="#C43E1C"/>
</svg>