<svg width="100" height="100" viewBox="0 0 100 100" fill="none" xmlns="http://www.w3.org/2000/svg">
<rect x="0.5" y="0.5" width="99" height="99" rx="2.5" fill="white" stroke="#C6D0DC"/>
<path d="M50.4485 4V41.3811" stroke="#E8E8E8"/>
<path d="M86 29.8293L50.4485 41.3807" stroke="#E8E8E8"/>
<path d="M72.4205 71.6229L50.4485 41.381" stroke="#E8E8E8"/>
<path d="M28.4763 71.6229L50.4483 41.381" stroke="#E8E8E8"/>
<path d="M14.897 29.8293L50.4485 41.3807" stroke="#E8E8E8"/>
<path d="M50.4487 8.67285C57.3561 8.67285 64.0861 10.8596 69.6743 14.9196C75.2624 18.9796 79.4218 24.7045 81.5563 31.2738L50.4487 41.3813V8.67285Z" fill="#008FFB" stroke="#008FFB"/>
<path d="M79.3343 31.9955C81.3163 38.0955 81.3163 44.6664 79.3343 50.7665C77.3523 56.8665 73.49 62.1825 68.301 65.9525L50.4487 41.381L79.3343 31.9955Z" fill="#00E396" stroke="#00E396"/>
<path d="M66.4698 63.4324C61.813 66.8157 56.2046 68.638 50.4485 68.638C44.6924 68.638 39.084 66.8157 34.4272 63.4324L50.4485 41.381L66.4698 63.4324Z" fill="#FEB019" stroke="#FEB019"/>
<path d="M37.1736 59.6522C33.3151 56.8489 30.4432 52.8959 28.9694 48.36C27.4956 43.8241 27.4956 38.938 28.9694 34.4021L50.4484 41.3811L37.1736 59.6522Z" fill="#FF4560" stroke="#FF4560"/>
<path d="M33.4138 35.8461C34.5825 32.2491 36.8598 29.1144 39.9194 26.8911C42.9789 24.6678 46.6637 23.47 50.4458 23.4694L50.4489 41.3811L33.4138 35.8461Z" fill="#775DD0" stroke="#775DD0"/>
<path d="M0.5 77.5H99.5V97C99.5 98.3807 98.3807 99.5 97 99.5H3C1.61929 99.5 0.5 98.3807 0.5 97V77.5Z" fill="#FFF4F1" stroke="#C6D0DC"/>
<path d="M14.2178 83.9844C15.5075 83.9844 16.4486 84.2487 17.041 84.7773C17.6335 85.306 17.9297 86.0465 17.9297 86.999C17.9297 87.432 17.8613 87.8444 17.7246 88.2363C17.5924 88.6237 17.3737 88.9678 17.0684 89.2686C16.763 89.5648 16.3597 89.7995 15.8584 89.9727C15.3617 90.1458 14.7487 90.2324 14.0195 90.2324H12.9531V93.9785H11.3125V83.9844H14.2178ZM14.1084 85.3447H12.9531V88.8652H13.8486C14.3636 88.8652 14.8011 88.806 15.1611 88.6875C15.5212 88.5645 15.7946 88.3708 15.9814 88.1064C16.1683 87.8421 16.2617 87.4935 16.2617 87.0605C16.2617 86.4818 16.0863 86.0511 15.7354 85.7686C15.389 85.486 14.8467 85.3447 14.1084 85.3447ZM28.7988 88.9678C28.7988 89.738 28.7008 90.4398 28.5049 91.0732C28.3135 91.7021 28.0241 92.2445 27.6367 92.7002C27.2493 93.1514 26.764 93.5 26.1807 93.7461C25.5973 93.9922 24.9137 94.1152 24.1299 94.1152C23.3324 94.1152 22.6396 93.9922 22.0518 93.7461C21.4684 93.5 20.9831 93.1491 20.5957 92.6934C20.2129 92.2376 19.9258 91.693 19.7344 91.0596C19.543 90.4261 19.4473 89.7243 19.4473 88.9541C19.4473 87.9242 19.6159 87.0264 19.9531 86.2607C20.2949 85.4906 20.8122 84.8936 21.5049 84.4697C22.2021 84.0413 23.0817 83.8271 24.1436 83.8271C25.1826 83.8271 26.0462 84.0391 26.7344 84.4629C27.4225 84.8867 27.9375 85.4837 28.2793 86.2539C28.6257 87.0195 28.7988 87.9242 28.7988 88.9678ZM21.1699 88.9678C21.1699 89.738 21.2747 90.4056 21.4844 90.9707C21.694 91.5312 22.0153 91.9642 22.4482 92.2695C22.8857 92.5703 23.4463 92.7207 24.1299 92.7207C24.818 92.7207 25.3786 92.5703 25.8115 92.2695C26.2445 91.9642 26.5635 91.5312 26.7686 90.9707C26.9736 90.4056 27.0762 89.738 27.0762 88.9678C27.0762 87.7965 26.8415 86.8805 26.3721 86.2197C25.9072 85.5544 25.1644 85.2217 24.1436 85.2217C23.46 85.2217 22.8971 85.3721 22.4551 85.6729C22.0176 85.9736 21.694 86.4043 21.4844 86.9648C21.2747 87.5208 21.1699 88.1885 21.1699 88.9678ZM30.9453 93.9785V83.9844H32.5859V92.584H36.8311V93.9785H30.9453ZM44.7539 93.9785L43.7764 91.2031H39.9551L38.9775 93.9785H37.248L40.9668 83.9434H42.7852L46.4971 93.9785H44.7539ZM43.3525 89.7949L42.4023 87.0605C42.3659 86.9421 42.3135 86.7757 42.2451 86.5615C42.1768 86.3428 42.1084 86.1217 42.04 85.8984C41.9717 85.6706 41.9147 85.4792 41.8691 85.3242C41.8236 85.5111 41.7666 85.7207 41.6982 85.9531C41.6344 86.181 41.5706 86.3952 41.5068 86.5957C41.4476 86.7962 41.402 86.9512 41.3701 87.0605L40.4131 89.7949H43.3525ZM50.626 83.9844C51.4873 83.9844 52.1982 84.0892 52.7588 84.2988C53.3239 84.5085 53.7432 84.8275 54.0166 85.2559C54.2946 85.6842 54.4336 86.2288 54.4336 86.8896C54.4336 87.3818 54.3424 87.8011 54.1602 88.1475C53.9779 88.4938 53.7386 88.7809 53.4424 89.0088C53.1462 89.2367 52.8294 89.4189 52.4922 89.5557L55.3291 93.9785H53.4766L51.0635 89.9727H49.457V93.9785H47.8164V83.9844H50.626ZM50.5166 85.3516H49.457V88.6191H50.5918C51.3529 88.6191 51.9043 88.4779 52.2461 88.1953C52.5924 87.9128 52.7656 87.4958 52.7656 86.9443C52.7656 86.3656 52.5811 85.9554 52.2119 85.7139C51.8473 85.4723 51.2822 85.3516 50.5166 85.3516ZM62.9512 93.9785L61.9736 91.2031H58.1523L57.1748 93.9785H55.4453L59.1641 83.9434H60.9824L64.6943 93.9785H62.9512ZM61.5498 89.7949L60.5996 87.0605C60.5632 86.9421 60.5107 86.7757 60.4424 86.5615C60.374 86.3428 60.3057 86.1217 60.2373 85.8984C60.1689 85.6706 60.112 85.4792 60.0664 85.3242C60.0208 85.5111 59.9639 85.7207 59.8955 85.9531C59.8317 86.181 59.7679 86.3952 59.7041 86.5957C59.6449 86.7962 59.5993 86.9512 59.5674 87.0605L58.6104 89.7949H61.5498ZM68.8232 83.9844C69.6846 83.9844 70.3955 84.0892 70.9561 84.2988C71.5212 84.5085 71.9404 84.8275 72.2139 85.2559C72.4919 85.6842 72.6309 86.2288 72.6309 86.8896C72.6309 87.3818 72.5397 87.8011 72.3574 88.1475C72.1751 88.4938 71.9359 88.7809 71.6396 89.0088C71.3434 89.2367 71.0267 89.4189 70.6895 89.5557L73.5264 93.9785H71.6738L69.2607 89.9727H67.6543V93.9785H66.0137V83.9844H68.8232ZM68.7139 85.3516H67.6543V88.6191H68.7891C69.5501 88.6191 70.1016 88.4779 70.4434 88.1953C70.7897 87.9128 70.9629 87.4958 70.9629 86.9443C70.9629 86.3656 70.7783 85.9554 70.4092 85.7139C70.0446 85.4723 69.4795 85.3516 68.7139 85.3516ZM80.6152 93.9785H74.9551V83.9844H80.6152V85.3652H76.5957V88.0791H80.3623V89.4531H76.5957V92.5908H80.6152V93.9785ZM88.9688 93.9785L87.9912 91.2031H84.1699L83.1924 93.9785H81.4629L85.1816 83.9434H87L90.7119 93.9785H88.9688ZM87.5674 89.7949L86.6172 87.0605C86.5807 86.9421 86.5283 86.7757 86.46 86.5615C86.3916 86.3428 86.3232 86.1217 86.2549 85.8984C86.1865 85.6706 86.1296 85.4792 86.084 85.3242C86.0384 85.5111 85.9814 85.7207 85.9131 85.9531C85.8493 86.181 85.7855 86.3952 85.7217 86.5957C85.6624 86.7962 85.6169 86.9512 85.585 87.0605L84.6279 89.7949H87.5674Z" fill="#C43E1C"/>
</svg>
