<svg width="100" height="100" viewBox="0 0 100 100" fill="none" xmlns="http://www.w3.org/2000/svg">
<rect x="0.5" y="0.5" width="99" height="99" rx="2.5" fill="white" stroke="#C6D0DC"/>
<path d="M0.5 77.5H99.5V97C99.5 98.3807 98.3807 99.5 97 99.5H3C1.61929 99.5 0.5 98.3807 0.5 97V77.5Z" fill="#FFF4F1" stroke="#C6D0DC"/>
<path d="M31.291 82.9844C32.1523 82.9844 32.8633 83.0892 33.4238 83.2988C33.9889 83.5085 34.4082 83.8275 34.6816 84.2559C34.9596 84.6842 35.0986 85.2288 35.0986 85.8896C35.0986 86.3818 35.0075 86.8011 34.8252 87.1475C34.6429 87.4938 34.4036 87.7809 34.1074 88.0088C33.8112 88.2367 33.4945 88.4189 33.1572 88.5557L35.9941 92.9785H34.1416L31.7285 88.9727H30.1221V92.9785H28.4814V82.9844H31.291ZM31.1816 84.3516H30.1221V87.6191H31.2568C32.0179 87.6191 32.5693 87.4779 32.9111 87.1953C33.2575 86.9128 33.4307 86.4958 33.4307 85.9443C33.4307 85.3656 33.2461 84.9554 32.877 84.7139C32.5124 84.4723 31.9473 84.3516 31.1816 84.3516ZM43.6162 92.9785L42.6387 90.2031H38.8174L37.8398 92.9785H36.1104L39.8291 82.9434H41.6475L45.3594 92.9785H43.6162ZM42.2148 88.7949L41.2646 86.0605C41.2282 85.9421 41.1758 85.7757 41.1074 85.5615C41.0391 85.3428 40.9707 85.1217 40.9023 84.8984C40.834 84.6706 40.777 84.4792 40.7314 84.3242C40.6859 84.5111 40.6289 84.7207 40.5605 84.9531C40.4967 85.181 40.4329 85.3952 40.3691 85.5957C40.3099 85.7962 40.2643 85.9512 40.2324 86.0605L39.2754 88.7949H42.2148ZM54.793 87.8857C54.793 89.0114 54.5833 89.9525 54.1641 90.709C53.7448 91.4609 53.1364 92.0283 52.3389 92.4111C51.5413 92.7894 50.5798 92.9785 49.4541 92.9785H46.6787V82.9844H49.7549C50.7894 82.9844 51.6826 83.1712 52.4346 83.5449C53.1865 83.9141 53.7676 84.4632 54.1777 85.1924C54.5879 85.917 54.793 86.8148 54.793 87.8857ZM53.084 87.9336C53.084 87.1133 52.9541 86.4388 52.6943 85.9102C52.4391 85.3815 52.0609 84.9896 51.5596 84.7344C51.0628 84.4746 50.4499 84.3447 49.7207 84.3447H48.3193V91.6045H49.4814C50.6891 91.6045 51.5915 91.2969 52.1885 90.6816C52.7855 90.0664 53.084 89.1504 53.084 87.9336ZM63.1396 92.9785L62.1621 90.2031H58.3408L57.3633 92.9785H55.6338L59.3525 82.9434H61.1709L64.8828 92.9785H63.1396ZM61.7383 88.7949L60.7881 86.0605C60.7516 85.9421 60.6992 85.7757 60.6309 85.5615C60.5625 85.3428 60.4941 85.1217 60.4258 84.8984C60.3574 84.6706 60.3005 84.4792 60.2549 84.3242C60.2093 84.5111 60.1523 84.7207 60.084 84.9531C60.0202 85.181 59.9564 85.3952 59.8926 85.5957C59.8333 85.7962 59.7878 85.9512 59.7559 86.0605L58.7988 88.7949H61.7383ZM69.0117 82.9844C69.873 82.9844 70.584 83.0892 71.1445 83.2988C71.7096 83.5085 72.1289 83.8275 72.4023 84.2559C72.6803 84.6842 72.8193 85.2288 72.8193 85.8896C72.8193 86.3818 72.7282 86.8011 72.5459 87.1475C72.3636 87.4938 72.1243 87.7809 71.8281 88.0088C71.5319 88.2367 71.2152 88.4189 70.8779 88.5557L73.7148 92.9785H71.8623L69.4492 88.9727H67.8428V92.9785H66.2021V82.9844H69.0117ZM68.9023 84.3516H67.8428V87.6191H68.9775C69.7386 87.6191 70.29 87.4779 70.6318 87.1953C70.9782 86.9128 71.1514 86.4958 71.1514 85.9443C71.1514 85.3656 70.9668 84.9554 70.5977 84.7139C70.2331 84.4723 69.668 84.3516 68.9023 84.3516Z" fill="#C43E1C"/>
<path d="M50.4154 5L79.8308 21.983V55.9489L50.4154 72.9319L21 55.9489V21.983L50.4154 5Z" stroke="#E8E8E8"/>
<path d="M50.4155 8.39673L76.8893 23.6814V54.2508L50.4155 69.5354L23.9417 54.2508V23.6814L50.4155 8.39673Z" stroke="#E8E8E8"/>
<path d="M50.4154 11.793L73.9477 25.3793V52.5521L50.4154 66.1385L26.8831 52.5521V25.3793L50.4154 11.793Z" stroke="#E8E8E8"/>
<path d="M50.4152 15.1896L71.006 27.0777V50.8538L50.4152 62.7419L29.8245 50.8538V27.0777L50.4152 15.1896Z" stroke="#E8E8E8"/>
<path d="M50.4153 18.5863L68.0646 28.7761V49.1557L50.4153 59.3454L32.7661 49.1557V28.7761L50.4153 18.5863Z" stroke="#E8E8E8"/>
<path d="M50.4155 21.9829L65.1231 30.4744V47.4574L50.4155 55.9489L35.7078 47.4574V30.4744L50.4155 21.9829Z" stroke="#E8E8E8"/>
<path d="M50.4153 25.3796L62.1815 32.1728V45.7592L50.4153 52.5524L38.6492 45.7592V32.1728L50.4153 25.3796Z" stroke="#E8E8E8"/>
<path d="M50.4154 28.7759L59.24 33.8708V44.0606L50.4154 49.1554L41.5908 44.0606V33.8708L50.4154 28.7759Z" stroke="#E8E8E8"/>
<path d="M50.4153 32.1725L56.2984 35.5691V42.3623L50.4153 45.7589L44.5322 42.3623V35.5691L50.4153 32.1725Z" stroke="#E8E8E8"/>
<path d="M50.4154 35.5696L53.357 37.2679V40.6645L50.4154 42.3628L47.4739 40.6645V37.2679L50.4154 35.5696Z" stroke="#E8E8E8"/>
<path d="M50.4153 5V38.966" stroke="#E8E8E8"/>
<path d="M79.8307 21.9829L50.4153 38.9659" stroke="#E8E8E8"/>
<path d="M79.8307 55.9488L50.4153 38.9658" stroke="#E8E8E8"/>
<path d="M50.4153 72.9318L50.4153 38.9658" stroke="#E8E8E8"/>
<path d="M21 55.9488L50.4154 38.9658" stroke="#E8E8E8"/>
<path d="M21 21.9829L50.4154 38.9659" stroke="#E8E8E8"/>
<path d="M50.4154 30.4744L68.8 28.3516L61.4461 45.3345L50.4154 55.9489L32.0308 49.5803L43.0615 34.7202L50.4154 30.4744Z" fill="#FEB019" fill-opacity="0.88"/>
<path d="M50.4154 30.4744L61.4461 32.5973L65.1231 47.4574L50.4154 72.9318L43.0615 43.2116L21 21.9829L50.4154 30.4744Z" fill="#00E396" fill-opacity="0.88"/>
<path d="M50.4153 20.2845L78.3599 22.832L79.0952 55.5242L50.4153 44.4853L23.5737 54.4628L46.7383 36.8429L50.4153 20.2845Z" fill="#008FFB" fill-opacity="0.88"/>
</svg>
