<svg width="100" height="100" viewBox="0 0 100 100" fill="none" xmlns="http://www.w3.org/2000/svg">
<rect x="0.5" y="0.5" width="99" height="99" rx="2.5" fill="white" stroke="#C6D0DC"/>
<path d="M0.5 77.5H99.5V97C99.5 98.3807 98.3807 99.5 97 99.5H3C1.61929 99.5 0.5 98.3807 0.5 97V77.5Z" fill="#FFF4F1" stroke="#C6D0DC"/>
<path d="M15.1221 83.9844C15.9834 83.9844 16.6943 84.0892 17.2549 84.2988C17.82 84.5085 18.2393 84.8275 18.5127 85.2559C18.7907 85.6842 18.9297 86.2288 18.9297 86.8896C18.9297 87.3818 18.8385 87.8011 18.6562 88.1475C18.474 88.4938 18.2347 88.7809 17.9385 89.0088C17.6423 89.2367 17.3255 89.4189 16.9883 89.5557L19.8252 93.9785H17.9727L15.5596 89.9727H13.9531V93.9785H12.3125V83.9844H15.1221ZM15.0127 85.3516H13.9531V88.6191H15.0879C15.849 88.6191 16.4004 88.4779 16.7422 88.1953C17.0885 87.9128 17.2617 87.4958 17.2617 86.9443C17.2617 86.3656 17.0771 85.9554 16.708 85.7139C16.3434 85.4723 15.7783 85.3516 15.0127 85.3516ZM27.4473 93.9785L26.4697 91.2031H22.6484L21.6709 93.9785H19.9414L23.6602 83.9434H25.4785L29.1904 93.9785H27.4473ZM26.0459 89.7949L25.0957 87.0605C25.0592 86.9421 25.0068 86.7757 24.9385 86.5615C24.8701 86.3428 24.8018 86.1217 24.7334 85.8984C24.665 85.6706 24.6081 85.4792 24.5625 85.3242C24.5169 85.5111 24.46 85.7207 24.3916 85.9531C24.3278 86.181 24.264 86.3952 24.2002 86.5957C24.141 86.7962 24.0954 86.9512 24.0635 87.0605L23.1064 89.7949H26.0459ZM38.624 88.8857C38.624 90.0114 38.4144 90.9525 37.9951 91.709C37.5758 92.4609 36.9674 93.0283 36.1699 93.4111C35.3724 93.7894 34.4108 93.9785 33.2852 93.9785H30.5098V83.9844H33.5859C34.6204 83.9844 35.5137 84.1712 36.2656 84.5449C37.0176 84.9141 37.5986 85.4632 38.0088 86.1924C38.4189 86.917 38.624 87.8148 38.624 88.8857ZM36.915 88.9336C36.915 88.1133 36.7852 87.4388 36.5254 86.9102C36.2702 86.3815 35.8919 85.9896 35.3906 85.7344C34.8939 85.4746 34.2809 85.3447 33.5518 85.3447H32.1504V92.6045H33.3125C34.5202 92.6045 35.4225 92.2969 36.0195 91.6816C36.6165 91.0664 36.915 90.1504 36.915 88.9336ZM40.7773 93.9785V83.9844H42.418V93.9785H40.7773ZM51.25 93.9785L50.2725 91.2031H46.4512L45.4736 93.9785H43.7441L47.4629 83.9434H49.2812L52.9932 93.9785H51.25ZM49.8486 89.7949L48.8984 87.0605C48.862 86.9421 48.8096 86.7757 48.7412 86.5615C48.6729 86.3428 48.6045 86.1217 48.5361 85.8984C48.4678 85.6706 48.4108 85.4792 48.3652 85.3242C48.3197 85.5111 48.2627 85.7207 48.1943 85.9531C48.1305 86.181 48.0667 86.3952 48.0029 86.5957C47.9437 86.7962 47.8981 86.9512 47.8662 87.0605L46.9092 89.7949H49.8486ZM54.3125 93.9785V83.9844H55.9531V92.584H60.1982V93.9785H54.3125ZM61.9277 83.9844H64.9014C66.1911 83.9844 67.1641 84.1712 67.8203 84.5449C68.4766 84.9186 68.8047 85.5635 68.8047 86.4795C68.8047 86.8623 68.7363 87.2087 68.5996 87.5186C68.4674 87.8239 68.2738 88.0768 68.0186 88.2773C67.7633 88.4733 67.4489 88.6055 67.0752 88.6738V88.7422C67.4626 88.8105 67.8066 88.9313 68.1074 89.1045C68.4128 89.2777 68.652 89.526 68.8252 89.8496C69.0029 90.1732 69.0918 90.5924 69.0918 91.1074C69.0918 91.7181 68.946 92.2376 68.6543 92.666C68.3672 93.0944 67.9548 93.4202 67.417 93.6436C66.8838 93.8669 66.2503 93.9785 65.5166 93.9785H61.9277V83.9844ZM63.5684 88.1064H65.1406C65.8835 88.1064 66.3984 87.9857 66.6855 87.7441C66.9727 87.5026 67.1162 87.1494 67.1162 86.6846C67.1162 86.2106 66.9453 85.8688 66.6035 85.6592C66.2663 85.4495 65.7285 85.3447 64.9902 85.3447H63.5684V88.1064ZM63.5684 89.4326V92.6045H65.2979C66.0635 92.6045 66.6012 92.4564 66.9111 92.1602C67.221 91.8639 67.376 91.4629 67.376 90.957C67.376 90.6471 67.3053 90.3783 67.1641 90.1504C67.0273 89.9225 66.8018 89.7471 66.4873 89.624C66.1729 89.4964 65.749 89.4326 65.2158 89.4326H63.5684ZM77.3496 93.9785L76.3721 91.2031H72.5508L71.5732 93.9785H69.8438L73.5625 83.9434H75.3809L79.0928 93.9785H77.3496ZM75.9482 89.7949L74.998 87.0605C74.9616 86.9421 74.9092 86.7757 74.8408 86.5615C74.7725 86.3428 74.7041 86.1217 74.6357 85.8984C74.5674 85.6706 74.5104 85.4792 74.4648 85.3242C74.4193 85.5111 74.3623 85.7207 74.2939 85.9531C74.2301 86.181 74.1663 86.3952 74.1025 86.5957C74.0433 86.7962 73.9977 86.9512 73.9658 87.0605L73.0088 89.7949H75.9482ZM83.2217 83.9844C84.083 83.9844 84.7939 84.0892 85.3545 84.2988C85.9196 84.5085 86.3389 84.8275 86.6123 85.2559C86.8903 85.6842 87.0293 86.2288 87.0293 86.8896C87.0293 87.3818 86.9382 87.8011 86.7559 88.1475C86.5736 88.4938 86.3343 88.7809 86.0381 89.0088C85.7419 89.2367 85.4251 89.4189 85.0879 89.5557L87.9248 93.9785H86.0723L83.6592 89.9727H82.0527V93.9785H80.4121V83.9844H83.2217ZM83.1123 85.3516H82.0527V88.6191H83.1875C83.9486 88.6191 84.5 88.4779 84.8418 88.1953C85.1882 87.9128 85.3613 87.4958 85.3613 86.9443C85.3613 86.3656 85.1768 85.9554 84.8076 85.7139C84.443 85.4723 83.8779 85.3516 83.1123 85.3516Z" fill="#C43E1C"/>
<path fill-rule="evenodd" clip-rule="evenodd" d="M66.7595 13.1535C61.6888 9.76536 55.7273 7.95695 49.6289 7.95695V3.07593C56.6927 3.07593 63.5979 5.17062 69.4712 9.09511C75.3446 13.0196 79.9223 18.5976 82.6255 25.1238C85.3287 31.65 86.036 38.8312 84.6579 45.7594C83.2798 52.6875 79.8783 59.0514 74.8834 64.0464C69.8885 69.0413 63.5247 72.4429 56.5966 73.821C49.6685 75.1991 42.4873 74.4918 35.9612 71.7885C29.4351 69.0853 23.8571 64.5075 19.9327 58.6341C16.0082 52.7607 13.9136 45.8555 13.9136 38.7916H18.7946C18.7946 44.8901 20.603 50.8517 23.9911 55.9224C27.3792 60.9931 32.1949 64.9453 37.8291 67.2791C43.4633 69.6129 49.6631 70.2235 55.6443 69.0337C61.6256 67.844 67.1197 64.9073 71.432 60.595C75.7442 56.2827 78.6809 50.7885 79.8707 44.8071C81.0604 38.8258 80.4498 32.626 78.116 26.9917C75.7822 21.3574 71.8301 16.5417 66.7595 13.1535Z" fill="#F2F2F2" fill-opacity="0.85"/>
<path fill-rule="evenodd" clip-rule="evenodd" d="M62.5417 19.4653C58.7195 16.9114 54.2258 15.5483 49.6289 15.5483V10.6672C55.1912 10.6672 60.6286 12.3167 65.2534 15.4069C69.8783 18.4972 73.4829 22.8895 75.6115 28.0284C77.7401 33.1673 78.297 38.822 77.2119 44.2775C76.1267 49.7329 73.4482 54.744 69.5151 58.6772C65.582 62.6104 60.5709 65.2889 55.1155 66.374C49.6601 67.4592 44.0055 66.9022 38.8666 64.7736C33.7277 62.645 29.3355 59.0404 26.2452 54.4155C23.155 49.7906 21.5056 44.3531 21.5056 38.7908H26.3866C26.3866 43.3878 27.7498 47.8815 30.3037 51.7037C32.8576 55.5259 36.4875 58.505 40.7345 60.2642C44.9815 62.0233 49.6547 62.4836 54.1633 61.5868C58.6718 60.69 62.8132 58.4764 66.0637 55.2258C69.3142 51.9753 71.5278 47.8339 72.4246 43.3252C73.3214 38.8166 72.8612 34.1433 71.102 29.8963C69.3429 25.6492 66.3638 22.0193 62.5417 19.4653Z" fill="#F2F2F2" fill-opacity="0.85"/>
<path fill-rule="evenodd" clip-rule="evenodd" d="M58.3241 25.7772C55.7504 24.0576 52.7246 23.1397 49.6292 23.1397V18.2587C53.69 18.2587 57.6595 19.4628 61.0358 21.7188C64.4122 23.9748 67.0437 27.1814 68.5977 30.933C70.1517 34.6846 70.5583 38.8128 69.7661 42.7955C68.9739 46.7782 67.0184 50.4365 64.1471 53.3078C61.2757 56.1792 57.6174 58.1346 53.6347 58.9268C49.652 59.719 45.5238 59.3124 41.7722 57.7585C38.0206 56.2045 34.8141 53.573 32.5581 50.1966C30.302 46.8202 29.0979 42.8507 29.0979 38.79H33.9789C33.9789 41.8853 34.8968 44.9112 36.6165 47.4849C38.3362 50.0585 40.7804 52.0645 43.6401 53.249C46.4998 54.4335 49.6466 54.7435 52.6825 54.1396C55.7183 53.5357 58.5069 52.0452 60.6957 49.8564C62.8844 47.6677 64.375 44.8791 64.9788 41.8432C65.5827 38.8074 65.2728 35.6606 64.0882 32.8009C62.9037 29.9412 60.8978 27.4969 58.3241 25.7772Z" fill="#F2F2F2" fill-opacity="0.85"/>
<path fill-rule="evenodd" clip-rule="evenodd" d="M63.1127 11.145C58.9129 9.09658 54.3016 8.03198 49.6289 8.03198V3C55.0661 3 60.4317 4.23877 65.3186 6.62228C70.2054 9.00578 74.485 12.4714 77.8325 16.7559C81.1799 21.0405 83.5072 26.0314 84.6376 31.3497C85.768 36.6681 85.6719 42.1741 84.3566 47.4498C83.0412 52.7254 80.5412 57.6321 77.0463 61.7972C73.5514 65.9623 69.1534 69.2765 64.1864 71.488C59.2193 73.6995 53.8137 74.7502 48.3799 74.5605C42.946 74.3707 37.6269 72.9454 32.8262 70.3928L35.1886 65.9499C39.3143 68.1436 43.8856 69.3685 48.5555 69.5316C53.2253 69.6946 57.8709 68.7916 62.1397 66.891C66.4084 64.9904 70.188 62.1423 73.1915 58.5627C76.1951 54.9832 78.3436 50.7664 79.4741 46.2324C80.6045 41.6985 80.6871 36.9666 79.7156 32.3959C78.7441 27.8253 76.744 23.5361 73.8672 19.8539C70.9904 16.1717 67.3125 13.1934 63.1127 11.145Z" fill="#008FFB" fill-opacity="0.85"/>
<path fill-rule="evenodd" clip-rule="evenodd" d="M63.6519 20.3499C59.62 17.2839 54.6944 15.6239 49.6292 15.6239V10.5919C55.7945 10.5919 61.79 12.6125 66.6977 16.3444C71.6054 20.0763 75.1547 25.3138 76.8024 31.2549C78.45 37.1961 78.1051 43.5135 75.8205 49.24C73.5358 54.9665 69.4374 59.7864 64.1526 62.9618L61.5609 58.6486C65.9027 56.0398 69.2698 52.08 71.1467 47.3753C73.0237 42.6707 73.307 37.4806 71.9534 32.5997C70.5998 27.7187 67.6838 23.4158 63.6519 20.3499Z" fill="#00E396" fill-opacity="0.85"/>
<path fill-rule="evenodd" clip-rule="evenodd" d="M55.6208 24.4136C53.7223 23.6223 51.6859 23.215 49.6292 23.215V18.183C52.3504 18.183 55.0447 18.722 57.5566 19.7688C60.0684 20.8157 62.348 22.3497 64.2638 24.2823C66.1796 26.2149 67.6937 28.5078 68.7186 31.0287C69.7435 33.5496 70.2589 36.2485 70.2352 38.9696C70.2114 41.6908 69.649 44.3803 68.5802 46.8829C67.5115 49.3855 65.9576 51.6516 64.0084 53.5505C62.0592 55.4494 59.7531 56.9433 57.2234 57.9462C54.6937 58.9491 51.9904 59.441 49.2695 59.3935L49.3574 54.3623C51.4138 54.3982 53.457 54.0264 55.369 53.2684C57.281 52.5104 59.0239 51.3813 60.4971 49.9461C61.9704 48.5109 63.1448 46.7981 63.9526 44.9066C64.7603 43.0151 65.1855 40.9824 65.2034 38.9257C65.2214 36.869 64.8318 34.8292 64.0571 32.9239C63.2825 31.0186 62.1382 29.2856 60.6902 27.8249C59.2422 26.3642 57.5192 25.2048 55.6208 24.4136Z" fill="#FEB019" fill-opacity="0.85"/>
</svg>
