<svg width="100" height="100" viewBox="0 0 100 100" fill="none" xmlns="http://www.w3.org/2000/svg">
<rect x="0.5" y="0.5" width="99" height="99" rx="2.5" fill="white" stroke="#C6D0DC"/>
<path d="M5.99634 31.9363H95.0036" stroke="#F1F1F1"/>
<path d="M5.99634 37.5408H95.0036" stroke="#F1F1F1"/>
<path d="M5.99634 21.9363H95.0036" stroke="#F1F1F1"/>
<path d="M5.99634 27.5408H95.0036" stroke="#F1F1F1"/>
<path d="M5.99634 10.9358H95.0036" stroke="#F1F1F1"/>
<path d="M5.99634 16.5403H95.0036" stroke="#F1F1F1"/>
<path d="M5.99634 43.1455H95.0036" stroke="#F1F1F1"/>
<path d="M5.99634 48.7496H95.0036" stroke="#F1F1F1"/>
<path d="M5.99634 54.3542H95.0036" stroke="#F1F1F1"/>
<path d="M5.99634 59.9585H95.0036" stroke="#F1F1F1"/>
<path d="M5.99634 65.5631H95.0036" stroke="#F1F1F1"/>
<path fill-rule="evenodd" clip-rule="evenodd" d="M5.99634 38.5892L18.7117 27.6766L31.427 31.1227L44.1423 33.9944L56.8577 15.6154L69.573 23.0819L82.2883 27.1023L95.0036 42.0353M5.99634 38.5892V40.3123L18.7117 33.4201L31.427 36.8662H44.1423L56.8577 20.2101L69.573 30.5484L82.2883 27.6766L95.0036 46.6301V42.0353" fill="#00E396" fill-opacity="0.6"/>
<path d="M5.99634 38.5892L18.7117 27.6766L31.427 31.1227L44.1423 33.9944L56.8576 15.6154L69.573 23.0819L82.2883 27.1023L95.0036 42.0353V46.6301L82.2883 27.6766L69.573 30.5484L56.8576 20.2101L44.1423 36.8662H31.427L18.7117 33.4201L5.99634 40.3123V38.5892Z" stroke="#00E396" stroke-width="2"/>
<path fill-rule="evenodd" clip-rule="evenodd" d="M5.99634 58.2504L18.7117 59.0129L31.427 42.9996L44.1423 52.1501L56.8577 42.9996L69.573 59.7755L82.2883 55.2002L95.0036 61.3005M5.99634 58.2504V64.3507L18.7117 63.5882L31.427 65.8758L44.1423 62.0631L56.8577 52.9126L69.573 68.9259L82.2883 58.2504L95.0036 65.1132V61.3005" fill="#008FFB" fill-opacity="0.6"/>
<path d="M5.99634 58.2504L18.7117 59.0129L31.427 42.9996L44.1423 52.1501L56.8576 42.9996L69.573 59.7755L82.2883 55.2002L95.0036 61.3005V65.1132L82.2883 58.2504L69.573 68.9259L56.8576 52.9126L44.1423 62.0631L31.427 65.8758L18.7117 63.5882L5.99634 64.3507V58.2504Z" stroke="#008FFB" stroke-width="2"/>
<path d="M0.5 77.5H99.5V97C99.5 98.3807 98.3807 99.5 97 99.5H3C1.61929 99.5 0.5 98.3807 0.5 97V77.5Z" fill="#FFF4F1" stroke="#C6D0DC"/>
<path d="M11.5967 82.9846C12.458 82.9846 13.1689 83.0894 13.7295 83.2991C14.2946 83.5087 14.7139 83.8277 14.9873 84.2561C15.2653 84.6845 15.4043 85.2291 15.4043 85.8899C15.4043 86.3821 15.3132 86.8014 15.1309 87.1477C14.9486 87.4941 14.7093 87.7812 14.4131 88.009C14.1169 88.2369 13.8001 88.4192 13.4629 88.5559L16.2998 92.9788H14.4473L12.0342 88.9729H10.4277V92.9788H8.78711V82.9846H11.5967ZM11.4873 84.3518H10.4277V87.6194H11.5625C12.3236 87.6194 12.875 87.4781 13.2168 87.1956C13.5632 86.913 13.7363 86.496 13.7363 85.9446C13.7363 85.3658 13.5518 84.9556 13.1826 84.7141C12.818 84.4726 12.2529 84.3518 11.4873 84.3518ZM23.9219 92.9788L22.9443 90.2034H19.123L18.1455 92.9788H16.416L20.1348 82.9436H21.9531L25.665 92.9788H23.9219ZM22.5205 88.7952L21.5703 86.0608C21.5339 85.9423 21.4814 85.776 21.4131 85.5618C21.3447 85.343 21.2764 85.122 21.208 84.8987C21.1396 84.6708 21.0827 84.4794 21.0371 84.3245C20.9915 84.5113 20.9346 84.7209 20.8662 84.9534C20.8024 85.1812 20.7386 85.3954 20.6748 85.5959C20.6156 85.7965 20.57 85.9514 20.5381 86.0608L19.5811 88.7952H22.5205ZM35.3242 92.9788H33.3076L28.4131 85.0012H28.3516C28.3698 85.2701 28.3857 85.5549 28.3994 85.8557C28.4176 86.1565 28.4313 86.4664 28.4404 86.7854C28.4541 87.1044 28.4655 87.428 28.4746 87.7561V92.9788H26.9844V82.9846H28.9873L33.875 90.9075H33.9229C33.9137 90.675 33.9023 90.4084 33.8887 90.1077C33.875 89.8069 33.8613 89.497 33.8477 89.178C33.8385 88.8544 33.8317 88.5422 33.8271 88.2415V82.9846H35.3242V92.9788ZM41.9824 87.551H45.7148V92.5686C45.1908 92.7418 44.6484 92.8762 44.0879 92.9719C43.5273 93.0676 42.8984 93.1155 42.2012 93.1155C41.1849 93.1155 40.3236 92.915 39.6172 92.5139C38.9154 92.1083 38.3822 91.5227 38.0176 90.7571C37.653 89.9869 37.4707 89.0595 37.4707 87.9749C37.4707 86.9312 37.6735 86.0266 38.0791 85.261C38.4847 84.4908 39.0749 83.8961 39.8496 83.4768C40.6243 83.053 41.5632 82.8411 42.666 82.8411C43.2083 82.8411 43.7324 82.8958 44.2383 83.0051C44.7487 83.1099 45.2158 83.2558 45.6396 83.4426L45.0654 84.7961C44.7282 84.6366 44.3499 84.5022 43.9307 84.3928C43.5114 84.2834 43.0762 84.2288 42.625 84.2288C41.9095 84.2288 41.292 84.3837 40.7725 84.6936C40.2575 85.0035 39.861 85.441 39.583 86.0061C39.305 86.5667 39.166 87.2297 39.166 87.9954C39.166 88.7382 39.2777 89.3899 39.501 89.9504C39.7243 90.511 40.0729 90.9485 40.5469 91.2629C41.0254 91.5728 41.6429 91.7278 42.3994 91.7278C42.7777 91.7278 43.099 91.7073 43.3633 91.6663C43.6276 91.6252 43.8714 91.5797 44.0947 91.5295V88.9524H41.9824V87.551ZM53.7676 92.9788H48.1074V82.9846H53.7676V84.3655H49.748V87.0793H53.5146V88.4534H49.748V91.5911H53.7676V92.9788ZM65.7578 92.9788L64.7803 90.2034H60.959L59.9814 92.9788H58.252L61.9707 82.9436H63.7891L67.501 92.9788H65.7578ZM64.3564 88.7952L63.4062 86.0608C63.3698 85.9423 63.3174 85.776 63.249 85.5618C63.1807 85.343 63.1123 85.122 63.0439 84.8987C62.9756 84.6708 62.9186 84.4794 62.873 84.3245C62.8275 84.5113 62.7705 84.7209 62.7021 84.9534C62.6383 85.1812 62.5745 85.3954 62.5107 85.5959C62.4515 85.7965 62.4059 85.9514 62.374 86.0608L61.417 88.7952H64.3564ZM71.6299 82.9846C72.4912 82.9846 73.2021 83.0894 73.7627 83.2991C74.3278 83.5087 74.7471 83.8277 75.0205 84.2561C75.2985 84.6845 75.4375 85.2291 75.4375 85.8899C75.4375 86.3821 75.3464 86.8014 75.1641 87.1477C74.9818 87.4941 74.7425 87.7812 74.4463 88.009C74.1501 88.2369 73.8333 88.4192 73.4961 88.5559L76.333 92.9788H74.4805L72.0674 88.9729H70.4609V92.9788H68.8203V82.9846H71.6299ZM71.5205 84.3518H70.4609V87.6194H71.5957C72.3568 87.6194 72.9082 87.4781 73.25 87.1956C73.5964 86.913 73.7695 86.496 73.7695 85.9446C73.7695 85.3658 73.585 84.9556 73.2158 84.7141C72.8512 84.4726 72.2861 84.3518 71.5205 84.3518ZM83.4219 92.9788H77.7617V82.9846H83.4219V84.3655H79.4023V87.0793H83.1689V88.4534H79.4023V91.5911H83.4219V92.9788ZM91.7754 92.9788L90.7979 90.2034H86.9766L85.999 92.9788H84.2695L87.9883 82.9436H89.8066L93.5186 92.9788H91.7754ZM90.374 88.7952L89.4238 86.0608C89.3874 85.9423 89.335 85.776 89.2666 85.5618C89.1982 85.343 89.1299 85.122 89.0615 84.8987C88.9932 84.6708 88.9362 84.4794 88.8906 84.3245C88.8451 84.5113 88.7881 84.7209 88.7197 84.9534C88.6559 85.1812 88.5921 85.3954 88.5283 85.5959C88.4691 85.7965 88.4235 85.9514 88.3916 86.0608L87.4346 88.7952H90.374Z" fill="#C43E1C"/>
</svg>
