<svg width="100" height="100" viewBox="0 0 100 100" fill="none" xmlns="http://www.w3.org/2000/svg">
<rect x="0.5" y="0.5" width="99" height="99" rx="2.5" fill="white" stroke="#C6D0DC"/>
<path d="M22.3557 50.145C39.9673 50.145 39.9673 26.4222 57.579 26.4222V29.3357C39.9673 29.3357 39.9673 53.0584 22.3557 53.0584V50.145Z" fill="black" fill-opacity="0.2"/>
<path d="M22.3557 53.0587C53.3621 53.0587 53.3621 35.88 84.3685 35.88V41.7069C53.3621 41.7069 53.3621 58.8856 22.3557 58.8856V53.0587Z" fill="black" fill-opacity="0.2"/>
<path d="M8.96118 39.6638C19.8754 39.6638 19.8754 19.5717 30.7897 19.5717V22.4851C19.8754 22.4851 19.8754 42.5773 8.96118 42.5773V39.6638Z" fill="black" fill-opacity="0.2"/>
<path d="M62.54 18.1147C73.4543 18.1147 73.4543 27.1393 84.3685 27.1393V30.0528C73.4543 30.0528 73.4543 21.0282 62.54 21.0282V18.1147Z" fill="black" fill-opacity="0.2"/>
<path d="M17.3947 55.9717H16.1545C14.7239 55.9717 13.3519 56.54 12.3404 57.5516C11.3288 58.5632 10.7605 59.9351 10.7605 61.3657V62.606C10.7605 64.0365 11.3288 65.4085 12.3404 66.4201C13.3519 67.4316 14.7239 67.9999 16.1545 67.9999H63.7803C64.4886 67.9999 65.19 67.8604 65.8445 67.5894C66.4989 67.3183 67.0935 66.921 67.5944 66.4201C68.0953 65.9192 68.4926 65.3246 68.7637 64.6702C69.0347 64.0157 69.1743 63.3143 69.1743 62.606V37.643C69.1743 36.9347 69.0347 36.2332 68.7637 35.5788C68.4926 34.9244 68.0953 34.3298 67.5944 33.8289C67.0935 33.328 66.4989 32.9307 65.8445 32.6596C65.19 32.3885 64.4886 32.249 63.7803 32.249H62.54V35.1625H63.7803C64.4382 35.1625 65.0691 35.4238 65.5343 35.889C65.9995 36.3542 66.2608 36.9851 66.2608 37.643V62.606C66.2608 63.2638 65.9995 63.8948 65.5343 64.36C65.0691 64.8251 64.4382 65.0865 63.7803 65.0865H16.1545C15.4966 65.0865 14.8657 64.8251 14.4005 64.36C13.9353 63.8948 13.674 63.2638 13.674 62.606V61.3657C13.674 60.7078 13.9353 60.0769 14.4005 59.6117C14.8657 59.1465 15.4966 58.8852 16.1545 58.8852H17.3947V55.9717Z" fill="black" fill-opacity="0.2"/>
<path d="M35.7505 19.5717C46.6647 19.5717 46.6647 21.0284 57.579 21.0284V23.9419C46.6647 23.9419 46.6647 22.4851 35.7505 22.4851V19.5717Z" fill="black" fill-opacity="0.2"/>
<path d="M57.5788 21.0282H56.3386C54.908 21.0282 53.536 20.4599 52.5244 19.4484C51.5129 18.4368 50.9446 17.0648 50.9446 15.6342V14.394C50.9446 12.9634 51.5129 11.5914 52.5244 10.5799C53.536 9.56829 54.908 9 56.3386 9H90.5696C92.0002 9 93.3722 9.56829 94.3837 10.5799C95.3953 11.5914 95.9636 12.9634 95.9636 14.394V24.6588C95.9636 26.0894 95.3953 27.4613 94.3837 28.4729C93.3722 29.4845 92.0002 30.0528 90.5696 30.0528H89.3294V27.1393H90.5696C91.2275 27.1393 91.8584 26.878 92.3236 26.4128C92.7888 25.9476 93.0501 25.3167 93.0501 24.6588V14.394C93.0501 13.7361 92.7888 13.1052 92.3236 12.64C91.8584 12.1748 91.2275 11.9135 90.5696 11.9135H56.3386C55.6807 11.9135 55.0498 12.1748 54.5846 12.64C54.1194 13.1052 53.858 13.7361 53.858 14.394V15.6342C53.858 16.2921 54.1194 16.923 54.5846 17.3882C55.0498 17.8534 55.6807 18.1147 56.3386 18.1147H57.5788V21.0282Z" fill="black" fill-opacity="0.2"/>
<path d="M62.54 26.4222C73.4543 26.4222 73.4543 30.0528 84.3685 30.0528V35.8798C73.4543 35.8798 73.4543 32.2492 62.54 32.2492V26.4222Z" fill="black" fill-opacity="0.2"/>
<path d="M22.3556 50.145H17.3945V58.8854H22.3556V50.145Z" fill="#1F77B4" fill-opacity="0.8" stroke="#444444" stroke-width="0.196504"/>
<path d="M23.7179 57.5804H23.2824L24.5419 54.1506H24.9706L26.23 57.5804H25.7946L24.7696 54.6932H24.7428L23.7179 57.5804ZM23.8787 56.2406H25.6338V56.6091H23.8787V56.2406Z" fill="#444444"/>
<path d="M8.96102 39.6636H4V42.577H8.96102V39.6636Z" fill="#FF7F0E" fill-opacity="0.8" stroke="#444444" stroke-width="0.196504"/>
<path d="M10.1824 44.1855V40.7557H11.3815C11.6205 40.7557 11.8175 40.797 11.9727 40.8796C12.1279 40.9611 12.2435 41.0711 12.3194 41.2095C12.3953 41.3468 12.4333 41.4992 12.4333 41.6667C12.4333 41.8141 12.4071 41.9358 12.3546 42.0318C12.3032 42.1278 12.2351 42.2038 12.1503 42.2596C12.0665 42.3154 11.9755 42.3567 11.8773 42.3835V42.417C11.9822 42.4237 12.0877 42.4606 12.1938 42.5275C12.2999 42.5945 12.3886 42.6906 12.4601 42.8156C12.5315 42.9407 12.5673 43.0936 12.5673 43.2745C12.5673 43.4464 12.5282 43.6011 12.45 43.7384C12.3719 43.8757 12.2485 43.9846 12.0799 44.065C11.9113 44.1454 11.6919 44.1855 11.4217 44.1855H10.1824ZM10.5978 43.8171H11.4217C11.6931 43.8171 11.8856 43.7646 11.9995 43.6597C12.1145 43.5536 12.172 43.4252 12.172 43.2745C12.172 43.1584 12.1424 43.0512 12.0833 42.9529C12.0241 42.8536 11.9398 42.7743 11.8304 42.7151C11.721 42.6548 11.5914 42.6247 11.4418 42.6247H10.5978V43.8171ZM10.5978 42.2629H11.3681C11.4932 42.2629 11.606 42.2384 11.7064 42.1892C11.8081 42.1401 11.8884 42.0709 11.9476 41.9816C12.0079 41.8923 12.038 41.7873 12.038 41.6667C12.038 41.516 11.9856 41.3882 11.8806 41.2832C11.7757 41.1771 11.6093 41.1241 11.3815 41.1241H10.5978V42.2629Z" fill="#444444"/>
<path d="M62.5401 18.1147H57.5791V23.9417H62.5401V18.1147Z" fill="#2CA02C" fill-opacity="0.8" stroke="#444444" stroke-width="0.196504"/>
<path d="M66.5215 21.7356H66.1062C66.0816 21.6161 66.0386 21.5112 65.9772 21.4207C65.9169 21.3303 65.8432 21.2544 65.7562 21.193C65.6702 21.1304 65.5747 21.0835 65.4698 21.0523C65.3648 21.021 65.2554 21.0054 65.1415 21.0054C64.9339 21.0054 64.7457 21.0579 64.5771 21.1628C64.4097 21.2678 64.2762 21.4224 64.1769 21.6267C64.0786 21.831 64.0295 22.0817 64.0295 22.3787C64.0295 22.6757 64.0786 22.9263 64.1769 23.1306C64.2762 23.335 64.4097 23.4896 64.5771 23.5946C64.7457 23.6995 64.9339 23.752 65.1415 23.752C65.2554 23.752 65.3648 23.7363 65.4698 23.7051C65.5747 23.6738 65.6702 23.6275 65.7562 23.5661C65.8432 23.5036 65.9169 23.4271 65.9772 23.3366C66.0386 23.2451 66.0816 23.1401 66.1062 23.0218H66.5215C66.4903 23.1971 66.4333 23.3539 66.3507 23.4924C66.2681 23.6308 66.1654 23.7486 66.0425 23.8458C65.9197 23.9418 65.7818 24.0149 65.6289 24.0652C65.477 24.1154 65.3146 24.1405 65.1415 24.1405C64.849 24.1405 64.5889 24.0691 64.3611 23.9262C64.1333 23.7832 63.9541 23.58 63.8235 23.3165C63.6929 23.0531 63.6275 22.7404 63.6275 22.3787C63.6275 22.0169 63.6929 21.7043 63.8235 21.4408C63.9541 21.1773 64.1333 20.9741 64.3611 20.8312C64.5889 20.6883 64.849 20.6168 65.1415 20.6168C65.3146 20.6168 65.477 20.642 65.6289 20.6922C65.7818 20.7425 65.9197 20.8161 66.0425 20.9133C66.1654 21.0093 66.2681 21.1265 66.3507 21.265C66.4333 21.4023 66.4903 21.5592 66.5215 21.7356Z" fill="#444444"/>
<path d="M35.7506 19.571H30.7896V22.4845H35.7506V19.571Z" fill="#9467BD" fill-opacity="0.8" stroke="#444444" stroke-width="0.196504"/>
<path d="M36.9722 24.093V20.6631H39.0422V21.0316H37.3876V22.1905H38.935V22.5589H37.3876V23.7246H39.069V24.093H36.9722Z" fill="#444444"/>
<path d="M62.5401 26.4222H57.5791V35.1626H62.5401V26.4222Z" fill="#8C564B" fill-opacity="0.8" stroke="#444444" stroke-width="0.196504"/>
<path d="M63.7615 33.8575V30.4277H65.8181V30.7961H64.1769V31.955H65.664V32.3235H64.1769V33.8575H63.7615Z" fill="#444444"/>
<path d="M89.3294 27.1394H84.3684V41.7067H89.3294V27.1394Z" fill="#D62728" fill-opacity="0.8" stroke="#444444" stroke-width="0.196504"/>
<path d="M81.6461 37.4882H80.5877V34.0583H81.693C82.0257 34.0583 82.3105 34.1269 82.5472 34.2643C82.7838 34.4005 82.9653 34.5964 83.0914 34.8521C83.2176 35.1067 83.2807 35.4115 83.2807 35.7665C83.2807 36.1238 83.2171 36.4314 83.0898 36.6893C82.9625 36.9461 82.7772 37.1437 82.5338 37.2822C82.2904 37.4195 81.9945 37.4882 81.6461 37.4882ZM81.003 37.1197H81.6193C81.9029 37.1197 82.138 37.065 82.3244 36.9556C82.5109 36.8462 82.6499 36.6904 82.7414 36.4883C82.833 36.2862 82.8788 36.0456 82.8788 35.7665C82.8788 35.4896 82.8335 35.2513 82.7431 35.0514C82.6527 34.8504 82.5176 34.6964 82.3378 34.5892C82.1581 34.4809 81.9342 34.4267 81.6662 34.4267H81.003V37.1197Z" fill="#444444"/>
<path d="M0.5 77.5H99.5V97C99.5 98.3807 98.3807 99.5 97 99.5H3C1.61929 99.5 0.5 98.3807 0.5 97V77.5Z" fill="#FFF4F1" stroke="#C6D0DC"/>
<path d="M31.0996 91.2578C31.0996 91.8503 30.9538 92.3607 30.6621 92.7891C30.375 93.2174 29.9603 93.5456 29.418 93.7734C28.8802 94.0013 28.2376 94.1152 27.4902 94.1152C27.1257 94.1152 26.777 94.0947 26.4443 94.0537C26.1117 94.0127 25.7972 93.9535 25.501 93.876C25.2093 93.7939 24.9427 93.696 24.7012 93.582V92.0371C25.1068 92.2148 25.5602 92.3766 26.0615 92.5225C26.5628 92.6637 27.0732 92.7344 27.5928 92.7344C28.0166 92.7344 28.3675 92.6797 28.6455 92.5703C28.9281 92.4564 29.1377 92.2969 29.2744 92.0918C29.4111 91.8822 29.4795 91.6383 29.4795 91.3604C29.4795 91.0641 29.3997 90.8135 29.2402 90.6084C29.0807 90.4033 28.8392 90.2165 28.5156 90.0479C28.1966 89.8747 27.7956 89.6901 27.3125 89.4941C26.9844 89.362 26.6699 89.2116 26.3691 89.043C26.0729 88.8743 25.8086 88.6761 25.5762 88.4482C25.3438 88.2204 25.1592 87.9515 25.0225 87.6416C24.8903 87.3271 24.8242 86.958 24.8242 86.5342C24.8242 85.9691 24.9587 85.486 25.2275 85.085C25.501 84.6839 25.8838 84.3763 26.376 84.1621C26.8727 83.9479 27.4515 83.8408 28.1123 83.8408C28.6364 83.8408 29.1286 83.8955 29.5889 84.0049C30.0537 84.1143 30.5094 84.2692 30.9561 84.4697L30.4365 85.7891C30.0264 85.6204 29.6276 85.486 29.2402 85.3857C28.8574 85.2855 28.4655 85.2354 28.0645 85.2354C27.7181 85.2354 27.4242 85.2878 27.1826 85.3926C26.9411 85.4974 26.7565 85.6455 26.6289 85.8369C26.5059 86.0238 26.4443 86.2471 26.4443 86.5068C26.4443 86.7985 26.515 87.0446 26.6562 87.2451C26.8021 87.4411 27.0254 87.6211 27.3262 87.7852C27.6315 87.9492 28.0234 88.1315 28.502 88.332C29.0534 88.5599 29.5205 88.7992 29.9033 89.0498C30.2907 89.3005 30.5869 89.6012 30.792 89.9521C30.9971 90.2985 31.0996 90.7337 31.0996 91.2578ZM39.2207 93.9785L38.2432 91.2031H34.4219L33.4443 93.9785H31.7148L35.4336 83.9434H37.252L40.9639 93.9785H39.2207ZM37.8193 89.7949L36.8691 87.0605C36.8327 86.9421 36.7803 86.7757 36.7119 86.5615C36.6436 86.3428 36.5752 86.1217 36.5068 85.8984C36.4385 85.6706 36.3815 85.4792 36.3359 85.3242C36.2904 85.5111 36.2334 85.7207 36.165 85.9531C36.1012 86.181 36.0374 86.3952 35.9736 86.5957C35.9144 86.7962 35.8688 86.9512 35.8369 87.0605L34.8799 89.7949H37.8193ZM50.623 93.9785H48.6064L43.7119 86.001H43.6504C43.6686 86.2699 43.6846 86.5547 43.6982 86.8555C43.7165 87.1562 43.7301 87.4661 43.7393 87.7852C43.7529 88.1042 43.7643 88.4277 43.7734 88.7559V93.9785H42.2832V83.9844H44.2861L49.1738 91.9072H49.2217C49.2126 91.6748 49.2012 91.4082 49.1875 91.1074C49.1738 90.8066 49.1602 90.4967 49.1465 90.1777C49.1374 89.8542 49.1305 89.542 49.126 89.2412V83.9844H50.623V93.9785ZM60.8701 93.9785H58.9834L55.873 89.4395L54.8887 90.2393V93.9785H53.248V83.9844H54.8887V88.7627C55.0892 88.5166 55.292 88.2705 55.4971 88.0244C55.7021 87.7783 55.9072 87.5322 56.1123 87.2861L58.9287 83.9844H60.7812L57.0488 88.3594L60.8701 93.9785ZM67.8496 93.9785H62.1895V83.9844H67.8496V85.3652H63.8301V88.0791H67.5967V89.4531H63.8301V92.5908H67.8496V93.9785ZM72.8398 88.5439L75.2119 83.9844H76.9824L73.6602 90.0957V93.9785H72.0264V90.1572L68.6973 83.9844H70.4814L72.8398 88.5439Z" fill="#C43E1C"/>
</svg>
