<svg xmlns="http://www.w3.org/2000/svg" width="100" height="100" viewBox="0 0 100 100" fill="none">
<rect x="0.5" y="0.5" width="99" height="99" rx="2.5" fill="white" stroke="#C6D0DC"/>
<path d="M0.5 77.5H99.5V97C99.5 98.3807 98.3807 99.5 97 99.5H3C1.61929 99.5 0.5 98.3807 0.5 97V77.5Z" fill="#FFF4F1" stroke="#C6D0DC"/>
<path d="M28.3721 90.2581C28.3721 90.8505 28.2262 91.3609 27.9346 91.7893C27.6475 92.2177 27.2327 92.5458 26.6904 92.7737C26.1527 93.0015 25.5101 93.1155 24.7627 93.1155C24.3981 93.1155 24.0495 93.095 23.7168 93.054C23.3841 93.0129 23.0697 92.9537 22.7734 92.8762C22.4818 92.7942 22.2152 92.6962 21.9736 92.5823V91.0374C22.3792 91.2151 22.8327 91.3769 23.334 91.5227C23.8353 91.664 24.3457 91.7346 24.8652 91.7346C25.2891 91.7346 25.64 91.6799 25.918 91.5706C26.2005 91.4566 26.4102 91.2971 26.5469 91.092C26.6836 90.8824 26.752 90.6386 26.752 90.3606C26.752 90.0644 26.6722 89.8137 26.5127 89.6086C26.3532 89.4036 26.1117 89.2167 25.7881 89.0481C25.4691 88.8749 25.068 88.6903 24.585 88.4944C24.2568 88.3622 23.9424 88.2118 23.6416 88.0432C23.3454 87.8746 23.0811 87.6764 22.8486 87.4485C22.6162 87.2206 22.4316 86.9517 22.2949 86.6418C22.1628 86.3274 22.0967 85.9583 22.0967 85.5344C22.0967 84.9693 22.2311 84.4862 22.5 84.0852C22.7734 83.6842 23.1562 83.3765 23.6484 83.1624C24.1452 82.9482 24.724 82.8411 25.3848 82.8411C25.9089 82.8411 26.401 82.8958 26.8613 83.0051C27.3262 83.1145 27.7819 83.2694 28.2285 83.47L27.709 84.7893C27.2988 84.6207 26.9001 84.4862 26.5127 84.386C26.1299 84.2857 25.738 84.2356 25.3369 84.2356C24.9906 84.2356 24.6966 84.288 24.4551 84.3928C24.2135 84.4976 24.029 84.6458 23.9014 84.8372C23.7783 85.024 23.7168 85.2473 23.7168 85.5071C23.7168 85.7987 23.7874 86.0448 23.9287 86.2454C24.0745 86.4413 24.2979 86.6213 24.5986 86.7854C24.904 86.9495 25.2959 87.1318 25.7744 87.3323C26.3258 87.5601 26.793 87.7994 27.1758 88.05C27.5632 88.3007 27.8594 88.6015 28.0645 88.9524C28.2695 89.2987 28.3721 89.734 28.3721 90.2581ZM34.5586 84.2356C34.0801 84.2356 33.6517 84.3222 33.2734 84.4954C32.8997 84.6685 32.583 84.9192 32.3232 85.2473C32.0635 85.5709 31.8652 85.9651 31.7285 86.4299C31.5918 86.8902 31.5234 87.4097 31.5234 87.9885C31.5234 88.7633 31.6328 89.4309 31.8516 89.9915C32.0703 90.5474 32.403 90.9758 32.8496 91.2766C33.2962 91.5728 33.8613 91.7209 34.5449 91.7209C34.9688 91.7209 35.3812 91.6799 35.7822 91.5979C36.1833 91.5159 36.598 91.4042 37.0264 91.2629V92.6575C36.6208 92.817 36.2106 92.9332 35.7959 93.0061C35.3812 93.079 34.9027 93.1155 34.3604 93.1155C33.3395 93.1155 32.4919 92.9036 31.8174 92.4797C31.1475 92.0559 30.6462 91.4589 30.3135 90.6887C29.9854 89.9185 29.8213 89.0162 29.8213 87.9817C29.8213 87.2252 29.9261 86.5325 30.1357 85.9036C30.3454 85.2747 30.6507 84.7323 31.0518 84.2766C31.4528 83.8163 31.9473 83.4631 32.5352 83.217C33.1276 82.9664 33.8044 82.8411 34.5654 82.8411C35.0667 82.8411 35.5589 82.898 36.042 83.012C36.5296 83.1213 36.9808 83.2786 37.3955 83.4836L36.8213 84.8372C36.4749 84.6731 36.1126 84.5318 35.7344 84.4133C35.3561 84.2948 34.9642 84.2356 34.5586 84.2356ZM45.3662 92.9788L44.3887 90.2034H40.5674L39.5898 92.9788H37.8604L41.5791 82.9436H43.3975L47.1094 92.9788H45.3662ZM43.9648 88.7952L43.0146 86.0608C42.9782 85.9423 42.9258 85.776 42.8574 85.5618C42.7891 85.343 42.7207 85.122 42.6523 84.8987C42.584 84.6708 42.527 84.4794 42.4814 84.3245C42.4359 84.5113 42.3789 84.7209 42.3105 84.9534C42.2467 85.1812 42.1829 85.3954 42.1191 85.5959C42.0599 85.7965 42.0143 85.9514 41.9824 86.0608L41.0254 88.7952H43.9648ZM51.8945 92.9788H50.2471V84.3792H47.3213V82.9846H54.8135V84.3792H51.8945V92.9788ZM59.8105 92.9788H58.1631V84.3792H55.2373V82.9846H62.7295V84.3792H59.8105V92.9788ZM69.9209 92.9788H64.2607V82.9846H69.9209V84.3655H65.9014V87.0793H69.668V88.4534H65.9014V91.5911H69.9209V92.9788ZM74.8906 82.9846C75.752 82.9846 76.4629 83.0894 77.0234 83.2991C77.5885 83.5087 78.0078 83.8277 78.2812 84.2561C78.5592 84.6845 78.6982 85.2291 78.6982 85.8899C78.6982 86.3821 78.6071 86.8014 78.4248 87.1477C78.2425 87.4941 78.0033 87.7812 77.707 88.009C77.4108 88.2369 77.0941 88.4192 76.7568 88.5559L79.5938 92.9788H77.7412L75.3281 88.9729H73.7217V92.9788H72.0811V82.9846H74.8906ZM74.7812 84.3518H73.7217V87.6194H74.8564C75.6175 87.6194 76.1689 87.4781 76.5107 87.1956C76.8571 86.913 77.0303 86.496 77.0303 85.9446C77.0303 85.3658 76.8457 84.9556 76.4766 84.7141C76.112 84.4726 75.5469 84.3518 74.7812 84.3518Z" fill="#C43E1C"/>
<path d="M8.39868 30.5552H92.6014" stroke="#F1F1F1" stroke-width="0.274053"/>
<path d="M8.39868 50.3077H92.6014" stroke="#F1F1F1" stroke-width="0.274053"/>
<mask id="mask0_361_15428" style="mask-type:luminance" maskUnits="userSpaceOnUse" x="4" y="5" width="93" height="71">
<path d="M97 5H4V75.863H97V5Z" fill="white"/>
</mask>
<g mask="url(#mask0_361_15428)">
<path d="M37.0558 39.6998C37.5764 39.6998 37.9984 39.1432 37.9984 38.4566C37.9984 37.77 37.5764 37.2134 37.0558 37.2134C36.5353 37.2134 36.1133 37.77 36.1133 38.4566C36.1133 39.1432 36.5353 39.6998 37.0558 39.6998Z" fill="#008FFB" fill-opacity="0.85" stroke="white" stroke-opacity="0.9" stroke-width="0.274053"/>
<path d="M23.0222 59.4524C23.5427 59.4524 23.9647 58.8958 23.9647 58.2092C23.9647 57.5225 23.5427 56.9659 23.0222 56.9659C22.5016 56.9659 22.0796 57.5225 22.0796 58.2092C22.0796 58.8958 22.5016 59.4524 23.0222 59.4524Z" fill="#008FFB" fill-opacity="0.85" stroke="white" stroke-opacity="0.9" stroke-width="0.274053"/>
</g>
<mask id="mask1_361_15428" style="mask-type:luminance" maskUnits="userSpaceOnUse" x="4" y="5" width="93" height="71">
<path d="M97 5H4V75.863H97V5Z" fill="white"/>
</mask>
<g mask="url(#mask1_361_15428)">
<path d="M80.3366 58.4647C80.8572 58.4647 81.2792 57.9081 81.2792 57.2215C81.2792 56.5349 80.8572 55.9783 80.3366 55.9783C79.816 55.9783 79.394 56.5349 79.394 57.2215C79.394 57.9081 79.816 58.4647 80.3366 58.4647Z" fill="#008FFB" fill-opacity="0.85" stroke="white" stroke-opacity="0.9" stroke-width="0.274053"/>
</g>
<mask id="mask2_361_15428" style="mask-type:luminance" maskUnits="userSpaceOnUse" x="4" y="5" width="93" height="71">
<path d="M97 5H4V75.863H97V5Z" fill="white"/>
</mask>
<g mask="url(#mask2_361_15428)">
<path d="M13.2338 49.5758C13.7544 49.5758 14.1764 49.0192 14.1764 48.3326C14.1764 47.646 13.7544 47.0894 13.2338 47.0894C12.7133 47.0894 12.2913 47.646 12.2913 48.3326C12.2913 49.0192 12.7133 49.5758 13.2338 49.5758Z" fill="#008FFB" fill-opacity="0.85" stroke="white" stroke-opacity="0.9" stroke-width="0.274053"/>
</g>
<mask id="mask3_361_15428" style="mask-type:luminance" maskUnits="userSpaceOnUse" x="4" y="5" width="93" height="71">
<path d="M97 5H4V75.863H97V5Z" fill="white"/>
</mask>
<g mask="url(#mask3_361_15428)">
<path d="M49.3207 44.6375C49.8413 44.6375 50.2633 44.0809 50.2633 43.3943C50.2633 42.7077 49.8413 42.1511 49.3207 42.1511C48.8002 42.1511 48.3782 42.7077 48.3782 43.3943C48.3782 44.0809 48.8002 44.6375 49.3207 44.6375Z" fill="#008FFB" fill-opacity="0.85" stroke="white" stroke-opacity="0.9" stroke-width="0.274053"/>
</g>
<mask id="mask4_361_15428" style="mask-type:luminance" maskUnits="userSpaceOnUse" x="4" y="5" width="93" height="71">
<path d="M97 5H4V75.863H97V5Z" fill="white"/>
</mask>
<g mask="url(#mask4_361_15428)">
<path d="M26.3242 33.7728C26.8447 33.7728 27.2667 33.2162 27.2667 32.5296C27.2667 31.843 26.8447 31.2864 26.3242 31.2864C25.8036 31.2864 25.3816 31.843 25.3816 32.5296C25.3816 33.2162 25.8036 33.7728 26.3242 33.7728Z" fill="#008FFB" fill-opacity="0.85" stroke="white" stroke-opacity="0.9" stroke-width="0.274053"/>
</g>
<mask id="mask5_361_15428" style="mask-type:luminance" maskUnits="userSpaceOnUse" x="4" y="5" width="93" height="71">
<path d="M97 5H4V75.863H97V5Z" fill="white"/>
</mask>
<g mask="url(#mask5_361_15428)">
<path d="M52.5048 46.6129C53.0254 46.6129 53.4474 46.0563 53.4474 45.3697C53.4474 44.6831 53.0254 44.1265 52.5048 44.1265C51.9843 44.1265 51.5623 44.6831 51.5623 45.3697C51.5623 46.0563 51.9843 46.6129 52.5048 46.6129Z" fill="#008FFB" fill-opacity="0.85" stroke="white" stroke-opacity="0.9" stroke-width="0.274053"/>
</g>
<mask id="mask6_361_15428" style="mask-type:luminance" maskUnits="userSpaceOnUse" x="4" y="5" width="93" height="71">
<path d="M97 5H4V75.863H97V5Z" fill="white"/>
</mask>
<g mask="url(#mask6_361_15428)">
<path d="M82.5771 28.8351C83.0977 28.8351 83.5197 28.2785 83.5197 27.5918C83.5197 26.9052 83.0977 26.3486 82.5771 26.3486C82.0565 26.3486 81.6345 26.9052 81.6345 27.5918C81.6345 28.2785 82.0565 28.8351 82.5771 28.8351Z" fill="#008FFB" fill-opacity="0.85" stroke="white" stroke-opacity="0.9" stroke-width="0.274053"/>
</g>
<mask id="mask7_361_15428" style="mask-type:luminance" maskUnits="userSpaceOnUse" x="4" y="5" width="93" height="71">
<path d="M97 5H4V75.863H97V5Z" fill="white"/>
</mask>
<g mask="url(#mask7_361_15428)">
<path d="M73.0248 13.0331C73.5454 13.0331 73.9674 12.4764 73.9674 11.7898C73.9674 11.1032 73.5454 10.5466 73.0248 10.5466C72.5043 10.5466 72.0823 11.1032 72.0823 11.7898C72.0823 12.4764 72.5043 13.0331 73.0248 13.0331Z" fill="#008FFB" fill-opacity="0.85" stroke="white" stroke-opacity="0.9" stroke-width="0.274053"/>
</g>
<mask id="mask8_361_15428" style="mask-type:luminance" maskUnits="userSpaceOnUse" x="4" y="5" width="93" height="71">
<path d="M97 5H4V75.863H97V5Z" fill="white"/>
</mask>
<g mask="url(#mask8_361_15428)">
<path d="M38.4711 23.8967C38.9917 23.8967 39.4137 23.3401 39.4137 22.6535C39.4137 21.9669 38.9917 21.4103 38.4711 21.4103C37.9506 21.4103 37.5286 21.9669 37.5286 22.6535C37.5286 23.3401 37.9506 23.8967 38.4711 23.8967Z" fill="#008FFB" fill-opacity="0.85" stroke="white" stroke-opacity="0.9" stroke-width="0.274053"/>
</g>
<mask id="mask9_361_15428" style="mask-type:luminance" maskUnits="userSpaceOnUse" x="4" y="5" width="93" height="71">
<path d="M97 5H4V75.863H97V5Z" fill="white"/>
</mask>
<g mask="url(#mask9_361_15428)">
<path d="M24.7912 53.5265C25.3118 53.5265 25.7338 52.9699 25.7338 52.2833C25.7338 51.5966 25.3118 51.04 24.7912 51.04C24.2706 51.04 23.8486 51.5966 23.8486 52.2833C23.8486 52.9699 24.2706 53.5265 24.7912 53.5265Z" fill="#008FFB" fill-opacity="0.85" stroke="white" stroke-opacity="0.9" stroke-width="0.274053"/>
</g>
<mask id="mask10_361_15428" style="mask-type:luminance" maskUnits="userSpaceOnUse" x="4" y="5" width="93" height="71">
<path d="M97 5H4V75.863H97V5Z" fill="white"/>
</mask>
<g mask="url(#mask10_361_15428)">
<path d="M24.5551 46.6129C25.0757 46.6129 25.4977 46.0563 25.4977 45.3697C25.4977 44.6831 25.0757 44.1265 24.5551 44.1265C24.0346 44.1265 23.6125 44.6831 23.6125 45.3697C23.6125 46.0563 24.0346 46.6129 24.5551 46.6129Z" fill="#008FFB" fill-opacity="0.85" stroke="white" stroke-opacity="0.9" stroke-width="0.274053"/>
</g>
<mask id="mask11_361_15428" style="mask-type:luminance" maskUnits="userSpaceOnUse" x="4" y="5" width="93" height="71">
<path d="M97 5H4V75.863H97V5Z" fill="white"/>
</mask>
<g mask="url(#mask11_361_15428)">
<path d="M22.4326 30.8109C22.9531 30.8109 23.3751 30.2543 23.3751 29.5677C23.3751 28.8811 22.9531 28.3245 22.4326 28.3245C21.912 28.3245 21.49 28.8811 21.49 29.5677C21.49 30.2543 21.912 30.8109 22.4326 30.8109Z" fill="#008FFB" fill-opacity="0.85" stroke="white" stroke-opacity="0.9" stroke-width="0.274053"/>
</g>
<mask id="mask12_361_15428" style="mask-type:luminance" maskUnits="userSpaceOnUse" x="4" y="5" width="93" height="71">
<path d="M97 5H4V75.863H97V5Z" fill="white"/>
</mask>
<g mask="url(#mask12_361_15428)">
<path d="M24.4374 12.0449C24.958 12.0449 25.38 11.4883 25.38 10.8017C25.38 10.1151 24.958 9.55847 24.4374 9.55847C23.9169 9.55847 23.4949 10.1151 23.4949 10.8017C23.4949 11.4883 23.9169 12.0449 24.4374 12.0449Z" fill="#008FFB" fill-opacity="0.85" stroke="white" stroke-opacity="0.9" stroke-width="0.274053"/>
</g>
<mask id="mask13_361_15428" style="mask-type:luminance" maskUnits="userSpaceOnUse" x="4" y="5" width="93" height="71">
<path d="M97 5H4V75.863H97V5Z" fill="white"/>
</mask>
<g mask="url(#mask13_361_15428)">
<path d="M84.4641 35.7486C84.9846 35.7486 85.4066 35.192 85.4066 34.5054C85.4066 33.8188 84.9846 33.2622 84.4641 33.2622C83.9435 33.2622 83.5215 33.8188 83.5215 34.5054C83.5215 35.192 83.9435 35.7486 84.4641 35.7486Z" fill="#008FFB" fill-opacity="0.85" stroke="white" stroke-opacity="0.9" stroke-width="0.274053"/>
</g>
<mask id="mask14_361_15428" style="mask-type:luminance" maskUnits="userSpaceOnUse" x="4" y="5" width="93" height="71">
<path d="M97 5H4V75.863H97V5Z" fill="white"/>
</mask>
<g mask="url(#mask14_361_15428)">
<path d="M66.4206 40.6869C66.9412 40.6869 67.3632 40.1303 67.3632 39.4437C67.3632 38.757 66.9412 38.2004 66.4206 38.2004C65.9 38.2004 65.478 38.757 65.478 39.4437C65.478 40.1303 65.9 40.6869 66.4206 40.6869Z" fill="#008FFB" fill-opacity="0.85" stroke="white" stroke-opacity="0.9" stroke-width="0.274053"/>
</g>
<mask id="mask15_361_15428" style="mask-type:luminance" maskUnits="userSpaceOnUse" x="4" y="5" width="93" height="71">
<path d="M97 5H4V75.863H97V5Z" fill="white"/>
</mask>
<g mask="url(#mask15_361_15428)">
<path d="M73.1428 33.7728C73.6633 33.7728 74.0853 33.2162 74.0853 32.5296C74.0853 31.843 73.6633 31.2864 73.1428 31.2864C72.6222 31.2864 72.2002 31.843 72.2002 32.5296C72.2002 33.2162 72.6222 33.7728 73.1428 33.7728Z" fill="#008FFB" fill-opacity="0.85" stroke="white" stroke-opacity="0.9" stroke-width="0.274053"/>
</g>
<mask id="mask16_361_15428" style="mask-type:luminance" maskUnits="userSpaceOnUse" x="4" y="5" width="93" height="71">
<path d="M97 5H4V75.863H97V5Z" fill="white"/>
</mask>
<g mask="url(#mask16_361_15428)">
<path d="M92.0117 34.761C92.5322 34.761 92.9542 34.2044 92.9542 33.5177C92.9542 32.8311 92.5322 32.2745 92.0117 32.2745C91.4911 32.2745 91.0691 32.8311 91.0691 33.5177C91.0691 34.2044 91.4911 34.761 92.0117 34.761Z" fill="#008FFB" fill-opacity="0.85" stroke="white" stroke-opacity="0.9" stroke-width="0.274053"/>
</g>
<mask id="mask17_361_15428" style="mask-type:luminance" maskUnits="userSpaceOnUse" x="4" y="5" width="93" height="71">
<path d="M97 5H4V75.863H97V5Z" fill="white"/>
</mask>
<g mask="url(#mask17_361_15428)">
<path d="M34.1079 29.8227C34.6284 29.8227 35.0504 29.2661 35.0504 28.5795C35.0504 27.8929 34.6284 27.3363 34.1079 27.3363C33.5873 27.3363 33.1653 27.8929 33.1653 28.5795C33.1653 29.2661 33.5873 29.8227 34.1079 29.8227Z" fill="#008FFB" fill-opacity="0.85" stroke="white" stroke-opacity="0.9" stroke-width="0.274053"/>
</g>
<mask id="mask18_361_15428" style="mask-type:luminance" maskUnits="userSpaceOnUse" x="4" y="5" width="93" height="71">
<path d="M97 5H4V75.863H97V5Z" fill="white"/>
</mask>
<g mask="url(#mask18_361_15428)">
<path d="M36.5842 19.9461C37.1047 19.9461 37.5267 19.3895 37.5267 18.7029C37.5267 18.0163 37.1047 17.4597 36.5842 17.4597C36.0636 17.4597 35.6416 18.0163 35.6416 18.7029C35.6416 19.3895 36.0636 19.9461 36.5842 19.9461Z" fill="#008FFB" fill-opacity="0.85" stroke="white" stroke-opacity="0.9" stroke-width="0.274053"/>
</g>
<mask id="mask19_361_15428" style="mask-type:luminance" maskUnits="userSpaceOnUse" x="4" y="5" width="93" height="71">
<path d="M97 5H4V75.863H97V5Z" fill="white"/>
</mask>
<g mask="url(#mask19_361_15428)">
<path d="M80.3366 46.6129C80.8572 46.6129 81.2792 46.0563 81.2792 45.3697C81.2792 44.6831 80.8572 44.1265 80.3366 44.1265C79.816 44.1265 79.394 44.6831 79.394 45.3697C79.394 46.0563 79.816 46.6129 80.3366 46.6129Z" fill="#008FFB" fill-opacity="0.85" stroke="white" stroke-opacity="0.9" stroke-width="0.274053"/>
</g>
<mask id="mask20_361_15428" style="mask-type:luminance" maskUnits="userSpaceOnUse" x="4" y="5" width="93" height="71">
<path d="M97 5H4V75.863H97V5Z" fill="white"/>
</mask>
<g mask="url(#mask20_361_15428)">
<path d="M9.10639 39.6998C9.62695 39.6998 10.049 39.1432 10.049 38.4566C10.049 37.77 9.62695 37.2134 9.10639 37.2134C8.58582 37.2134 8.16382 37.77 8.16382 38.4566C8.16382 39.1432 8.58582 39.6998 9.10639 39.6998Z" fill="#008FFB" fill-opacity="0.85" stroke="white" stroke-opacity="0.9" stroke-width="0.274053"/>
</g>
<mask id="mask21_361_15428" style="mask-type:luminance" maskUnits="userSpaceOnUse" x="4" y="5" width="93" height="71">
<path d="M97 5H4V75.863H97V5Z" fill="white"/>
</mask>
<g mask="url(#mask21_361_15428)">
<path d="M89.2993 27.8479C89.8198 27.8479 90.2418 27.2913 90.2418 26.6047C90.2418 25.9181 89.8198 25.3615 89.2993 25.3615C88.7787 25.3615 88.3567 25.9181 88.3567 26.6047C88.3567 27.2913 88.7787 27.8479 89.2993 27.8479Z" fill="#008FFB" fill-opacity="0.85" stroke="white" stroke-opacity="0.9" stroke-width="0.274053"/>
</g>
<mask id="mask22_361_15428" style="mask-type:luminance" maskUnits="userSpaceOnUse" x="4" y="5" width="93" height="71">
<path d="M97 5H4V75.863H97V5Z" fill="white"/>
</mask>
<g mask="url(#mask22_361_15428)">
<path d="M68.6616 22.9092C69.1821 22.9092 69.6041 22.3525 69.6041 21.6659C69.6041 20.9793 69.1821 20.4227 68.6616 20.4227C68.141 20.4227 67.719 20.9793 67.719 21.6659C67.719 22.3525 68.141 22.9092 68.6616 22.9092Z" fill="#008FFB" fill-opacity="0.85" stroke="white" stroke-opacity="0.9" stroke-width="0.274053"/>
</g>
<mask id="mask23_361_15428" style="mask-type:luminance" maskUnits="userSpaceOnUse" x="4" y="5" width="93" height="71">
<path d="M97 5H4V75.863H97V5Z" fill="white"/>
</mask>
<g mask="url(#mask23_361_15428)">
<path d="M56.8683 12.0449C57.3889 12.0449 57.8109 11.4883 57.8109 10.8017C57.8109 10.1151 57.3889 9.55847 56.8683 9.55847C56.3478 9.55847 55.9258 10.1151 55.9258 10.8017C55.9258 11.4883 56.3478 12.0449 56.8683 12.0449Z" fill="#008FFB" fill-opacity="0.85" stroke="white" stroke-opacity="0.9" stroke-width="0.274053"/>
</g>
<mask id="mask24_361_15428" style="mask-type:luminance" maskUnits="userSpaceOnUse" x="4" y="5" width="93" height="71">
<path d="M97 5H4V75.863H97V5Z" fill="white"/>
</mask>
<g mask="url(#mask24_361_15428)">
<path d="M13.3517 15.995C13.8723 15.995 14.2943 15.4384 14.2943 14.7518C14.2943 14.0651 13.8723 13.5085 13.3517 13.5085C12.8312 13.5085 12.4092 14.0651 12.4092 14.7518C12.4092 15.4384 12.8312 15.995 13.3517 15.995Z" fill="#008FFB" fill-opacity="0.85" stroke="white" stroke-opacity="0.9" stroke-width="0.274053"/>
</g>
<mask id="mask25_361_15428" style="mask-type:luminance" maskUnits="userSpaceOnUse" x="4" y="5" width="93" height="71">
<path d="M97 5H4V75.863H97V5Z" fill="white"/>
</mask>
<g mask="url(#mask25_361_15428)">
<path d="M8.75263 48.5887C9.27319 48.5887 9.69519 48.0321 9.69519 47.3455C9.69519 46.6589 9.27319 46.1023 8.75263 46.1023C8.23206 46.1023 7.81006 46.6589 7.81006 47.3455C7.81006 48.0321 8.23206 48.5887 8.75263 48.5887Z" fill="#008FFB" fill-opacity="0.85" stroke="white" stroke-opacity="0.9" stroke-width="0.274053"/>
</g>
<mask id="mask26_361_15428" style="mask-type:luminance" maskUnits="userSpaceOnUse" x="4" y="5" width="93" height="71">
<path d="M97 5H4V75.863H97V5Z" fill="white"/>
</mask>
<g mask="url(#mask26_361_15428)">
<path d="M39.8862 50.5634C40.4067 50.5634 40.8287 50.0068 40.8287 49.3202C40.8287 48.6336 40.4067 48.077 39.8862 48.077C39.3656 48.077 38.9436 48.6336 38.9436 49.3202C38.9436 50.0068 39.3656 50.5634 39.8862 50.5634Z" fill="#008FFB" fill-opacity="0.85" stroke="white" stroke-opacity="0.9" stroke-width="0.274053"/>
</g>
<mask id="mask27_361_15428" style="mask-type:luminance" maskUnits="userSpaceOnUse" x="4" y="5" width="93" height="71">
<path d="M97 5H4V75.863H97V5Z" fill="white"/>
</mask>
<g mask="url(#mask27_361_15428)">
<path d="M52.8586 44.6375C53.3791 44.6375 53.8012 44.0809 53.8012 43.3943C53.8012 42.7077 53.3791 42.1511 52.8586 42.1511C52.338 42.1511 51.916 42.7077 51.916 43.3943C51.916 44.0809 52.338 44.6375 52.8586 44.6375Z" fill="#008FFB" fill-opacity="0.85" stroke="white" stroke-opacity="0.9" stroke-width="0.274053"/>
</g>
<mask id="mask28_361_15428" style="mask-type:luminance" maskUnits="userSpaceOnUse" x="4" y="5" width="93" height="71">
<path d="M97 5H4V75.863H97V5Z" fill="white"/>
</mask>
<g mask="url(#mask28_361_15428)">
<path d="M50.8537 56.4895C51.3743 56.4895 51.7963 55.9329 51.7963 55.2463C51.7963 54.5597 51.3743 54.0031 50.8537 54.0031C50.3331 54.0031 49.9111 54.5597 49.9111 55.2463C49.9111 55.9329 50.3331 56.4895 50.8537 56.4895Z" fill="#008FFB" fill-opacity="0.85" stroke="white" stroke-opacity="0.9" stroke-width="0.274053"/>
</g>
<mask id="mask29_361_15428" style="mask-type:luminance" maskUnits="userSpaceOnUse" x="4" y="5" width="93" height="71">
<path d="M97 5H4V75.863H97V5Z" fill="white"/>
</mask>
<g mask="url(#mask29_361_15428)">
<path d="M11.1113 15.995C11.6318 15.995 12.0538 15.4384 12.0538 14.7518C12.0538 14.0651 11.6318 13.5085 11.1113 13.5085C10.5907 13.5085 10.1687 14.0651 10.1687 14.7518C10.1687 15.4384 10.5907 15.995 11.1113 15.995Z" fill="#00E396" fill-opacity="0.85" stroke="white" stroke-opacity="0.9" stroke-width="0.274053"/>
<path d="M34.2255 20.9336C34.7461 20.9336 35.1681 20.377 35.1681 19.6904C35.1681 19.0037 34.7461 18.4471 34.2255 18.4471C33.705 18.4471 33.283 19.0037 33.283 19.6904C33.283 20.377 33.705 20.9336 34.2255 20.9336Z" fill="#00E396" fill-opacity="0.85" stroke="white" stroke-opacity="0.9" stroke-width="0.274053"/>
</g>
<mask id="mask30_361_15428" style="mask-type:luminance" maskUnits="userSpaceOnUse" x="4" y="5" width="93" height="71">
<path d="M97 5H4V75.863H97V5Z" fill="white"/>
</mask>
<g mask="url(#mask30_361_15428)">
<path d="M92.0117 48.5887C92.5322 48.5887 92.9542 48.0321 92.9542 47.3455C92.9542 46.6589 92.5322 46.1023 92.0117 46.1023C91.4911 46.1023 91.0691 46.6589 91.0691 47.3455C91.0691 48.0321 91.4911 48.5887 92.0117 48.5887Z" fill="#00E396" fill-opacity="0.85" stroke="white" stroke-opacity="0.9" stroke-width="0.274053"/>
</g>
<mask id="mask31_361_15428" style="mask-type:luminance" maskUnits="userSpaceOnUse" x="4" y="5" width="93" height="71">
<path d="M97 5H4V75.863H97V5Z" fill="white"/>
</mask>
<g mask="url(#mask31_361_15428)">
<path d="M20.7814 61.4277C21.302 61.4277 21.724 60.8711 21.724 60.1845C21.724 59.4979 21.302 58.9413 20.7814 58.9413C20.2609 58.9413 19.8389 59.4979 19.8389 60.1845C19.8389 60.8711 20.2609 61.4277 20.7814 61.4277Z" fill="#00E396" fill-opacity="0.85" stroke="white" stroke-opacity="0.9" stroke-width="0.274053"/>
</g>
<mask id="mask32_361_15428" style="mask-type:luminance" maskUnits="userSpaceOnUse" x="4" y="5" width="93" height="71">
<path d="M97 5H4V75.863H97V5Z" fill="white"/>
</mask>
<g mask="url(#mask32_361_15428)">
<path d="M13.7055 24.885C14.2261 24.885 14.6481 24.3284 14.6481 23.6418C14.6481 22.9552 14.2261 22.3986 13.7055 22.3986C13.1849 22.3986 12.7629 22.9552 12.7629 23.6418C12.7629 24.3284 13.1849 24.885 13.7055 24.885Z" fill="#00E396" fill-opacity="0.85" stroke="white" stroke-opacity="0.9" stroke-width="0.274053"/>
</g>
<mask id="mask33_361_15428" style="mask-type:luminance" maskUnits="userSpaceOnUse" x="4" y="5" width="93" height="71">
<path d="M97 5H4V75.863H97V5Z" fill="white"/>
</mask>
<g mask="url(#mask33_361_15428)">
<path d="M20.3098 22.9092C20.8303 22.9092 21.2523 22.3525 21.2523 21.6659C21.2523 20.9793 20.8303 20.4227 20.3098 20.4227C19.7892 20.4227 19.3672 20.9793 19.3672 21.6659C19.3672 22.3525 19.7892 22.9092 20.3098 22.9092Z" fill="#00E396" fill-opacity="0.85" stroke="white" stroke-opacity="0.9" stroke-width="0.274053"/>
</g>
<mask id="mask34_361_15428" style="mask-type:luminance" maskUnits="userSpaceOnUse" x="4" y="5" width="93" height="71">
<path d="M97 5H4V75.863H97V5Z" fill="white"/>
</mask>
<g mask="url(#mask34_361_15428)">
<path d="M33.8718 59.4524C34.3923 59.4524 34.8143 58.8958 34.8143 58.2092C34.8143 57.5225 34.3923 56.9659 33.8718 56.9659C33.3512 56.9659 32.9292 57.5225 32.9292 58.2092C32.9292 58.8958 33.3512 59.4524 33.8718 59.4524Z" fill="#00E396" fill-opacity="0.85" stroke="white" stroke-opacity="0.9" stroke-width="0.274053"/>
</g>
<mask id="mask35_361_15428" style="mask-type:luminance" maskUnits="userSpaceOnUse" x="4" y="5" width="93" height="71">
<path d="M97 5H4V75.863H97V5Z" fill="white"/>
</mask>
<g mask="url(#mask35_361_15428)">
<path d="M28.2111 47.6006C28.7317 47.6006 29.1537 47.044 29.1537 46.3573C29.1537 45.6707 28.7317 45.1141 28.2111 45.1141C27.6906 45.1141 27.2686 45.6707 27.2686 46.3573C27.2686 47.044 27.6906 47.6006 28.2111 47.6006Z" fill="#00E396" fill-opacity="0.85" stroke="white" stroke-opacity="0.9" stroke-width="0.274053"/>
</g>
<mask id="mask36_361_15428" style="mask-type:luminance" maskUnits="userSpaceOnUse" x="4" y="5" width="93" height="71">
<path d="M97 5H4V75.863H97V5Z" fill="white"/>
</mask>
<g mask="url(#mask36_361_15428)">
<path d="M92.6013 50.5634C93.1218 50.5634 93.5438 50.0068 93.5438 49.3202C93.5438 48.6336 93.1218 48.077 92.6013 48.077C92.0807 48.077 91.6587 48.6336 91.6587 49.3202C91.6587 50.0068 92.0807 50.5634 92.6013 50.5634Z" fill="#00E396" fill-opacity="0.85" stroke="white" stroke-opacity="0.9" stroke-width="0.274053"/>
</g>
<mask id="mask37_361_15428" style="mask-type:luminance" maskUnits="userSpaceOnUse" x="4" y="5" width="93" height="71">
<path d="M97 5H4V75.863H97V5Z" fill="white"/>
</mask>
<g mask="url(#mask37_361_15428)">
<path d="M35.2871 55.5018C35.8076 55.5018 36.2296 54.9452 36.2296 54.2586C36.2296 53.572 35.8076 53.0154 35.2871 53.0154C34.7665 53.0154 34.3445 53.572 34.3445 54.2586C34.3445 54.9452 34.7665 55.5018 35.2871 55.5018Z" fill="#00E396" fill-opacity="0.85" stroke="white" stroke-opacity="0.9" stroke-width="0.274053"/>
</g>
<mask id="mask38_361_15428" style="mask-type:luminance" maskUnits="userSpaceOnUse" x="4" y="5" width="93" height="71">
<path d="M97 5H4V75.863H97V5Z" fill="white"/>
</mask>
<g mask="url(#mask38_361_15428)">
<path d="M75.8552 33.7728C76.3757 33.7728 76.7977 33.2162 76.7977 32.5296C76.7977 31.843 76.3757 31.2864 75.8552 31.2864C75.3346 31.2864 74.9126 31.843 74.9126 32.5296C74.9126 33.2162 75.3346 33.7728 75.8552 33.7728Z" fill="#00E396" fill-opacity="0.85" stroke="white" stroke-opacity="0.9" stroke-width="0.274053"/>
</g>
<mask id="mask39_361_15428" style="mask-type:luminance" maskUnits="userSpaceOnUse" x="4" y="5" width="93" height="71">
<path d="M97 5H4V75.863H97V5Z" fill="white"/>
</mask>
<g mask="url(#mask39_361_15428)">
<path d="M52.5048 57.4776C53.0254 57.4776 53.4474 56.921 53.4474 56.2344C53.4474 55.5478 53.0254 54.9912 52.5048 54.9912C51.9843 54.9912 51.5623 55.5478 51.5623 56.2344C51.5623 56.921 51.9843 57.4776 52.5048 57.4776Z" fill="#00E396" fill-opacity="0.85" stroke="white" stroke-opacity="0.9" stroke-width="0.274053"/>
</g>
<mask id="mask40_361_15428" style="mask-type:luminance" maskUnits="userSpaceOnUse" x="4" y="5" width="93" height="71">
<path d="M97 5H4V75.863H97V5Z" fill="white"/>
</mask>
<g mask="url(#mask40_361_15428)">
<path d="M47.1979 20.9338C47.7185 20.9338 48.1405 20.3772 48.1405 19.6906C48.1405 19.004 47.7185 18.4474 47.1979 18.4474C46.6774 18.4474 46.2554 19.004 46.2554 19.6906C46.2554 20.3772 46.6774 20.9338 47.1979 20.9338Z" fill="#00E396" fill-opacity="0.85" stroke="white" stroke-opacity="0.9" stroke-width="0.274053"/>
</g>
<mask id="mask41_361_15428" style="mask-type:luminance" maskUnits="userSpaceOnUse" x="4" y="5" width="93" height="71">
<path d="M97 5H4V75.863H97V5Z" fill="white"/>
</mask>
<g mask="url(#mask41_361_15428)">
<path d="M8.39862 59.4524C8.91919 59.4524 9.34119 58.8958 9.34119 58.2092C9.34119 57.5225 8.91919 56.9659 8.39862 56.9659C7.87806 56.9659 7.45605 57.5225 7.45605 58.2092C7.45605 58.8958 7.87806 59.4524 8.39862 59.4524Z" fill="#00E396" fill-opacity="0.85" stroke="white" stroke-opacity="0.9" stroke-width="0.274053"/>
</g>
<mask id="mask42_361_15428" style="mask-type:luminance" maskUnits="userSpaceOnUse" x="4" y="5" width="93" height="71">
<path d="M97 5H4V75.863H97V5Z" fill="white"/>
</mask>
<g mask="url(#mask42_361_15428)">
<path d="M28.5646 56.4895C29.0852 56.4895 29.5072 55.9329 29.5072 55.2463C29.5072 54.5597 29.0852 54.0031 28.5646 54.0031C28.0441 54.0031 27.6221 54.5597 27.6221 55.2463C27.6221 55.9329 28.0441 56.4895 28.5646 56.4895Z" fill="#00E396" fill-opacity="0.85" stroke="white" stroke-opacity="0.9" stroke-width="0.274053"/>
</g>
<mask id="mask43_361_15428" style="mask-type:luminance" maskUnits="userSpaceOnUse" x="4" y="5" width="93" height="71">
<path d="M97 5H4V75.863H97V5Z" fill="white"/>
</mask>
<g mask="url(#mask43_361_15428)">
<path d="M87.2944 24.885C87.8149 24.885 88.2369 24.3284 88.2369 23.6418C88.2369 22.9552 87.8149 22.3986 87.2944 22.3986C86.7738 22.3986 86.3518 22.9552 86.3518 23.6418C86.3518 24.3284 86.7738 24.885 87.2944 24.885Z" fill="#00E396" fill-opacity="0.85" stroke="white" stroke-opacity="0.9" stroke-width="0.274053"/>
</g>
<mask id="mask44_361_15428" style="mask-type:luminance" maskUnits="userSpaceOnUse" x="4" y="5" width="93" height="71">
<path d="M97 5H4V75.863H97V5Z" fill="white"/>
</mask>
<g mask="url(#mask44_361_15428)">
<path d="M69.7228 51.5516C70.2434 51.5516 70.6654 50.995 70.6654 50.3084C70.6654 49.6218 70.2434 49.0652 69.7228 49.0652C69.2023 49.0652 68.7803 49.6218 68.7803 50.3084C68.7803 50.995 69.2023 51.5516 69.7228 51.5516Z" fill="#00E396" fill-opacity="0.85" stroke="white" stroke-opacity="0.9" stroke-width="0.274053"/>
</g>
<mask id="mask45_361_15428" style="mask-type:luminance" maskUnits="userSpaceOnUse" x="4" y="5" width="93" height="71">
<path d="M97 5H4V75.863H97V5Z" fill="white"/>
</mask>
<g mask="url(#mask45_361_15428)">
<path d="M63.7082 41.6745C64.2288 41.6745 64.6508 41.1179 64.6508 40.4313C64.6508 39.7447 64.2288 39.1881 63.7082 39.1881C63.1876 39.1881 62.7656 39.7447 62.7656 40.4313C62.7656 41.1179 63.1876 41.6745 63.7082 41.6745Z" fill="#00E396" fill-opacity="0.85" stroke="white" stroke-opacity="0.9" stroke-width="0.274053"/>
</g>
<mask id="mask46_361_15428" style="mask-type:luminance" maskUnits="userSpaceOnUse" x="4" y="5" width="93" height="71">
<path d="M97 5H4V75.863H97V5Z" fill="white"/>
</mask>
<g mask="url(#mask46_361_15428)">
<path d="M73.8503 35.7486C74.3708 35.7486 74.7929 35.192 74.7929 34.5054C74.7929 33.8188 74.3708 33.2622 73.8503 33.2622C73.3297 33.2622 72.9077 33.8188 72.9077 34.5054C72.9077 35.192 73.3297 35.7486 73.8503 35.7486Z" fill="#00E396" fill-opacity="0.85" stroke="white" stroke-opacity="0.9" stroke-width="0.274053"/>
</g>
<mask id="mask47_361_15428" style="mask-type:luminance" maskUnits="userSpaceOnUse" x="4" y="5" width="93" height="71">
<path d="M97 5H4V75.863H97V5Z" fill="white"/>
</mask>
<g mask="url(#mask47_361_15428)">
<path d="M71.7275 58.4647C72.248 58.4647 72.67 57.9081 72.67 57.2215C72.67 56.5349 72.248 55.9783 71.7275 55.9783C71.2069 55.9783 70.7849 56.5349 70.7849 57.2215C70.7849 57.9081 71.2069 58.4647 71.7275 58.4647Z" fill="#00E396" fill-opacity="0.85" stroke="white" stroke-opacity="0.9" stroke-width="0.274053"/>
</g>
<mask id="mask48_361_15428" style="mask-type:luminance" maskUnits="userSpaceOnUse" x="4" y="5" width="93" height="71">
<path d="M97 5H4V75.863H97V5Z" fill="white"/>
</mask>
<g mask="url(#mask48_361_15428)">
<path d="M26.3242 59.4524C26.8447 59.4524 27.2667 58.8958 27.2667 58.2092C27.2667 57.5225 26.8447 56.9659 26.3242 56.9659C25.8036 56.9659 25.3816 57.5225 25.3816 58.2092C25.3816 58.8958 25.8036 59.4524 26.3242 59.4524Z" fill="#00E396" fill-opacity="0.85" stroke="white" stroke-opacity="0.9" stroke-width="0.274053"/>
</g>
<mask id="mask49_361_15428" style="mask-type:luminance" maskUnits="userSpaceOnUse" x="4" y="5" width="93" height="71">
<path d="M97 5H4V75.863H97V5Z" fill="white"/>
</mask>
<g mask="url(#mask49_361_15428)">
<path d="M27.8574 39.6998C28.3779 39.6998 28.7999 39.1432 28.7999 38.4566C28.7999 37.77 28.3779 37.2134 27.8574 37.2134C27.3368 37.2134 26.9148 37.77 26.9148 38.4566C26.9148 39.1432 27.3368 39.6998 27.8574 39.6998Z" fill="#00E396" fill-opacity="0.85" stroke="white" stroke-opacity="0.9" stroke-width="0.274053"/>
</g>
<mask id="mask50_361_15428" style="mask-type:luminance" maskUnits="userSpaceOnUse" x="4" y="5" width="93" height="71">
<path d="M97 5H4V75.863H97V5Z" fill="white"/>
</mask>
<g mask="url(#mask50_361_15428)">
<path d="M16.4182 49.5758C16.9387 49.5758 17.3607 49.0192 17.3607 48.3326C17.3607 47.646 16.9387 47.0894 16.4182 47.0894C15.8976 47.0894 15.4756 47.646 15.4756 48.3326C15.4756 49.0192 15.8976 49.5758 16.4182 49.5758Z" fill="#00E396" fill-opacity="0.85" stroke="white" stroke-opacity="0.9" stroke-width="0.274053"/>
</g>
<mask id="mask51_361_15428" style="mask-type:luminance" maskUnits="userSpaceOnUse" x="4" y="5" width="93" height="71">
<path d="M97 5H4V75.863H97V5Z" fill="white"/>
</mask>
<g mask="url(#mask51_361_15428)">
<path d="M69.8408 38.7116C70.3613 38.7116 70.7833 38.155 70.7833 37.4684C70.7833 36.7818 70.3613 36.2252 69.8408 36.2252C69.3202 36.2252 68.8982 36.7818 68.8982 37.4684C68.8982 38.155 69.3202 38.7116 69.8408 38.7116Z" fill="#00E396" fill-opacity="0.85" stroke="white" stroke-opacity="0.9" stroke-width="0.274053"/>
</g>
<mask id="mask52_361_15428" style="mask-type:luminance" maskUnits="userSpaceOnUse" x="4" y="5" width="93" height="71">
<path d="M97 5H4V75.863H97V5Z" fill="white"/>
</mask>
<g mask="url(#mask52_361_15428)">
<path d="M72.435 60.4405C72.9556 60.4405 73.3776 59.8839 73.3776 59.1973C73.3776 58.5107 72.9556 57.9541 72.435 57.9541C71.9144 57.9541 71.4924 58.5107 71.4924 59.1973C71.4924 59.8839 71.9144 60.4405 72.435 60.4405Z" fill="#00E396" fill-opacity="0.85" stroke="white" stroke-opacity="0.9" stroke-width="0.274053"/>
</g>
<mask id="mask53_361_15428" style="mask-type:luminance" maskUnits="userSpaceOnUse" x="4" y="5" width="93" height="71">
<path d="M97 5H4V75.863H97V5Z" fill="white"/>
</mask>
<g mask="url(#mask53_361_15428)">
<path d="M86.9406 44.6375C87.4612 44.6375 87.8832 44.0809 87.8832 43.3943C87.8832 42.7077 87.4612 42.1511 86.9406 42.1511C86.42 42.1511 85.998 42.7077 85.998 43.3943C85.998 44.0809 86.42 44.6375 86.9406 44.6375Z" fill="#00E396" fill-opacity="0.85" stroke="white" stroke-opacity="0.9" stroke-width="0.274053"/>
</g>
<mask id="mask54_361_15428" style="mask-type:luminance" maskUnits="userSpaceOnUse" x="4" y="5" width="93" height="71">
<path d="M97 5H4V75.863H97V5Z" fill="white"/>
</mask>
<g mask="url(#mask54_361_15428)">
<path d="M71.4919 26.8597C72.0124 26.8597 72.4345 26.3031 72.4345 25.6165C72.4345 24.9299 72.0124 24.3733 71.4919 24.3733C70.9713 24.3733 70.5493 24.9299 70.5493 25.6165C70.5493 26.3031 70.9713 26.8597 71.4919 26.8597Z" fill="#00E396" fill-opacity="0.85" stroke="white" stroke-opacity="0.9" stroke-width="0.274053"/>
</g>
<mask id="mask55_361_15428" style="mask-type:luminance" maskUnits="userSpaceOnUse" x="4" y="5" width="93" height="71">
<path d="M97 5H4V75.863H97V5Z" fill="white"/>
</mask>
<g mask="url(#mask55_361_15428)">
<path d="M90.8325 45.6257C91.353 45.6257 91.775 45.0691 91.775 44.3825C91.775 43.6959 91.353 43.1393 90.8325 43.1393C90.3119 43.1393 89.8899 43.6959 89.8899 44.3825C89.8899 45.0691 90.3119 45.6257 90.8325 45.6257Z" fill="#00E396" fill-opacity="0.85" stroke="white" stroke-opacity="0.9" stroke-width="0.274053"/>
</g>
<mask id="mask56_361_15428" style="mask-type:luminance" maskUnits="userSpaceOnUse" x="4" y="5" width="93" height="71">
<path d="M97 5H4V75.863H97V5Z" fill="white"/>
</mask>
<g mask="url(#mask56_361_15428)">
<path d="M75.2653 42.6627C75.7859 42.6627 76.2079 42.1061 76.2079 41.4195C76.2079 40.7329 75.7859 40.1763 75.2653 40.1763C74.7448 40.1763 74.3228 40.7329 74.3228 41.4195C74.3228 42.1061 74.7448 42.6627 75.2653 42.6627Z" fill="#00E396" fill-opacity="0.85" stroke="white" stroke-opacity="0.9" stroke-width="0.274053"/>
</g>
<mask id="mask57_361_15428" style="mask-type:luminance" maskUnits="userSpaceOnUse" x="4" y="5" width="93" height="71">
<path d="M97 5H4V75.863H97V5Z" fill="white"/>
</mask>
<g mask="url(#mask57_361_15428)">
<path d="M79.2751 28.8351C79.7957 28.8351 80.2177 28.2785 80.2177 27.5918C80.2177 26.9052 79.7957 26.3486 79.2751 26.3486C78.7545 26.3486 78.3325 26.9052 78.3325 27.5918C78.3325 28.2785 78.7545 28.8351 79.2751 28.8351Z" fill="#00E396" fill-opacity="0.85" stroke="white" stroke-opacity="0.9" stroke-width="0.274053"/>
</g>
<path d="M8.39868 10.802H92.6014" stroke="#F1F1F1" stroke-width="0.274053"/>
<path d="M8.39868 70.0616H92.6014" stroke="#F1F1F1" stroke-width="0.274053"/>
</svg>