<svg width="100" height="100" viewBox="0 0 100 100" fill="none" xmlns="http://www.w3.org/2000/svg">
<rect x="0.5" y="0.5" width="99" height="99" rx="2.5" fill="white" stroke="#C6D0DC"/>
<path d="M78.687 6.54297H15.4719V63.7957H78.687V6.54297Z" fill="#E5ECF6"/>
<path d="M15.4719 56.0258H78.687H15.4719Z" fill="black"/>
<path d="M15.4719 56.0258H78.687" stroke="white" stroke-width="0.16595"/>
<path d="M15.4719 48.256H78.687H15.4719Z" fill="black"/>
<path d="M15.4719 48.256H78.687" stroke="white" stroke-width="0.16595"/>
<path d="M15.4719 40.4863H78.687H15.4719Z" fill="black"/>
<path d="M15.4719 40.4863H78.687" stroke="white" stroke-width="0.16595"/>
<path d="M15.4719 32.7147H78.687H15.4719Z" fill="black"/>
<path d="M15.4719 32.7147H78.687" stroke="white" stroke-width="0.16595"/>
<path d="M15.4719 24.9449H78.687H15.4719Z" fill="black"/>
<path d="M15.4719 24.9449H78.687" stroke="white" stroke-width="0.16595"/>
<path d="M15.4719 17.1753H78.687H15.4719Z" fill="black"/>
<path d="M15.4719 17.1753H78.687" stroke="white" stroke-width="0.16595"/>
<path d="M15.4719 9.40552H78.687H15.4719Z" fill="black"/>
<path d="M15.4719 9.40552H78.687" stroke="white" stroke-width="0.16595"/>
<path d="M15.4719 63.7957H78.687H15.4719Z" fill="black"/>
<path d="M15.4719 63.7957H78.687" stroke="white" stroke-width="0.3319"/>
<mask id="mask0_738_25156" style="mask-type:luminance" maskUnits="userSpaceOnUse" x="15" y="6" width="64" height="58">
<path d="M78.687 6.54297H15.4719V63.7957H78.687V6.54297Z" fill="white"/>
</mask>
<g mask="url(#mask0_738_25156)">
<path d="M16.5249 63.9618V40.3206H24.9543V63.9618H16.5249Z" fill="#3D9970"/>
<path d="M19.5289 39.0235V38.09H19.6873V39.0235H19.5289ZM19.1413 38.636V38.4776H20.0748V38.636H19.1413ZM20.8953 39.2979C20.8359 39.2969 20.7765 39.2856 20.7171 39.2639C20.6577 39.2422 20.6035 39.2057 20.5544 39.1543C20.5054 39.1025 20.466 39.0325 20.4363 38.9443C20.4066 38.8557 20.3918 38.7444 20.3918 38.6105C20.3918 38.4823 20.4038 38.3687 20.4279 38.2696C20.4519 38.1702 20.4868 38.0865 20.5325 38.0186C20.5782 37.9502 20.6334 37.8984 20.698 37.863C20.7631 37.8277 20.8364 37.81 20.9179 37.81C20.999 37.81 21.0711 37.8263 21.1343 37.8588C21.198 37.8908 21.2498 37.9356 21.2899 37.9931C21.33 38.0507 21.3559 38.1169 21.3677 38.1919H21.1951C21.1791 38.1268 21.148 38.0728 21.1018 38.0299C21.0556 37.987 20.9943 37.9656 20.9179 37.9656C20.8057 37.9656 20.7173 38.0144 20.6527 38.1119C20.5886 38.2095 20.5563 38.3465 20.5558 38.5228H20.5672C20.5936 38.4827 20.6249 38.4486 20.6612 38.4203C20.698 38.3915 20.7385 38.3694 20.7829 38.3538C20.8272 38.3382 20.8741 38.3305 20.9236 38.3305C21.0066 38.3305 21.0825 38.3512 21.1513 38.3927C21.2201 38.4337 21.2753 38.4905 21.3168 38.5631C21.3583 38.6353 21.379 38.718 21.379 38.8113C21.379 38.9009 21.359 38.9829 21.3189 39.0574C21.2788 39.1315 21.2225 39.1904 21.1499 39.2342C21.0777 39.2776 20.9929 39.2988 20.8953 39.2979ZM20.8953 39.1423C20.9547 39.1423 21.008 39.1274 21.0551 39.0977C21.1027 39.068 21.1402 39.0282 21.1676 38.9782C21.1954 38.9283 21.2093 38.8726 21.2093 38.8113C21.2093 38.7515 21.1958 38.697 21.169 38.648C21.1426 38.5985 21.106 38.5591 21.0594 38.5299C21.0132 38.5007 20.9604 38.486 20.901 38.486C20.8562 38.486 20.8144 38.495 20.7758 38.5129C20.7371 38.5304 20.7032 38.5544 20.6739 38.585C20.6452 38.6157 20.6226 38.6508 20.6061 38.6904C20.5896 38.7295 20.5813 38.7708 20.5813 38.8142C20.5813 38.8717 20.5947 38.9254 20.6216 38.9754C20.649 39.0254 20.6862 39.0657 20.7334 39.0963C20.781 39.127 20.8349 39.1423 20.8953 39.1423ZM22.1295 39.2979C22.0229 39.2979 21.9322 39.2689 21.8572 39.2109C21.7823 39.1524 21.725 39.0678 21.6854 38.957C21.6458 38.8458 21.626 38.7114 21.626 38.5539C21.626 38.3974 21.6458 38.2638 21.6854 38.153C21.7255 38.0417 21.783 37.9568 21.8579 37.8984C21.9334 37.8395 22.0239 37.81 22.1295 37.81C22.2351 37.81 22.3254 37.8395 22.4003 37.8984C22.4758 37.9568 22.5333 38.0417 22.5729 38.153C22.613 38.2638 22.633 38.3974 22.633 38.5539C22.633 38.7114 22.6132 38.8458 22.5736 38.957C22.534 39.0678 22.4767 39.1524 22.4017 39.2109C22.3268 39.2689 22.236 39.2979 22.1295 39.2979ZM22.1295 39.1423C22.2351 39.1423 22.3171 39.0914 22.3756 38.9895C22.434 38.8877 22.4633 38.7425 22.4633 38.5539C22.4633 38.4285 22.4498 38.3217 22.423 38.2336C22.3966 38.1454 22.3584 38.0782 22.3084 38.032C22.2589 37.9858 22.1993 37.9627 22.1295 37.9627C22.0248 37.9627 21.943 38.0144 21.8841 38.1176C21.8252 38.2204 21.7957 38.3658 21.7957 38.5539C21.7957 38.6793 21.8089 38.7859 21.8353 38.8736C21.8617 38.9613 21.8997 39.028 21.9492 39.0737C21.9991 39.1194 22.0592 39.1423 22.1295 39.1423Z" fill="#2A3F5F"/>
<path d="M27.0623 40.6525V9.23987H35.4896V40.6525H27.0623Z" fill="#3D9970"/>
<path d="M30.0728 7.94268V7.00922H30.2312V7.94268H30.0728ZM29.6852 7.55515V7.39675H30.6187V7.55515H29.6852ZM31.4222 8.21707C31.3251 8.21707 31.2393 8.19986 31.1648 8.16544C31.0908 8.13056 31.0331 8.0827 30.9916 8.02189C30.9501 7.9606 30.9296 7.89082 30.93 7.81256C30.9296 7.75128 30.9416 7.6947 30.9661 7.64284C30.9906 7.59051 31.0241 7.5469 31.0665 7.51202C31.1094 7.47666 31.1573 7.45426 31.2101 7.44483V7.43635C31.1408 7.41843 31.0856 7.37954 31.0446 7.31966C31.0036 7.25932 30.9833 7.19072 30.9838 7.11388C30.9833 7.04033 31.0019 6.97456 31.0397 6.91658C31.0774 6.85859 31.1292 6.81286 31.1952 6.77938C31.2617 6.74591 31.3374 6.72918 31.4222 6.72918C31.5062 6.72918 31.5811 6.74591 31.6471 6.77938C31.7131 6.81286 31.765 6.85859 31.8027 6.91658C31.8409 6.97456 31.8602 7.04033 31.8607 7.11388C31.8602 7.19072 31.8392 7.25932 31.7977 7.31966C31.7567 7.37954 31.7023 7.41843 31.6344 7.43635V7.44483C31.6867 7.45426 31.7339 7.47666 31.7758 7.51202C31.8178 7.5469 31.8513 7.59051 31.8762 7.64284C31.9012 7.6947 31.914 7.75128 31.9144 7.81256C31.914 7.89082 31.8927 7.9606 31.8508 8.02189C31.8093 8.0827 31.7515 8.13056 31.6775 8.16544C31.604 8.19986 31.5189 8.21707 31.4222 8.21707ZM31.4222 8.06149C31.4878 8.06149 31.5443 8.05088 31.592 8.02967C31.6396 8.00845 31.6763 7.97851 31.7023 7.93985C31.7282 7.9012 31.7414 7.85594 31.7419 7.80408C31.7414 7.74939 31.7273 7.70107 31.6994 7.65911C31.6716 7.61715 31.6337 7.58415 31.5856 7.5601C31.538 7.53606 31.4835 7.52404 31.4222 7.52404C31.3605 7.52404 31.3053 7.53606 31.2568 7.5601C31.2087 7.58415 31.1707 7.61715 31.1429 7.65911C31.1156 7.70107 31.1021 7.74939 31.1026 7.80408C31.1021 7.85594 31.1146 7.9012 31.1401 7.93985C31.166 7.97851 31.203 8.00845 31.2511 8.02967C31.2992 8.05088 31.3562 8.06149 31.4222 8.06149ZM31.4222 7.37412C31.4741 7.37412 31.5201 7.36374 31.5601 7.343C31.6007 7.32226 31.6325 7.29326 31.6556 7.25602C31.6787 7.21877 31.6905 7.17517 31.691 7.12519C31.6905 7.07616 31.6789 7.0335 31.6563 6.99719C31.6337 6.96042 31.6023 6.93213 31.5623 6.91233C31.5222 6.89206 31.4755 6.88192 31.4222 6.88192C31.368 6.88192 31.3206 6.89206 31.2801 6.91233C31.2395 6.93213 31.2082 6.96042 31.186 6.99719C31.1639 7.0335 31.153 7.07616 31.1535 7.12519C31.153 7.17517 31.1641 7.21877 31.1867 7.25602C31.2098 7.29326 31.2417 7.32226 31.2822 7.343C31.3228 7.36374 31.3694 7.37412 31.4222 7.37412ZM32.6578 8.21707C32.5513 8.21707 32.4605 8.18807 32.3856 8.13008C32.3106 8.07162 32.2533 7.987 32.2137 7.87621C32.1741 7.76495 32.1543 7.63058 32.1543 7.47312C32.1543 7.3166 32.1741 7.18294 32.2137 7.07215C32.2538 6.96089 32.3113 6.87603 32.3863 6.81757C32.4617 6.75864 32.5522 6.72918 32.6578 6.72918C32.7634 6.72918 32.8537 6.75864 32.9287 6.81757C33.0041 6.87603 33.0616 6.96089 33.1012 7.07215C33.1413 7.18294 33.1613 7.3166 33.1613 7.47312C33.1613 7.63058 33.1415 7.76495 33.1019 7.87621C33.0623 7.987 33.0051 8.07162 32.9301 8.13008C32.8551 8.18807 32.7644 8.21707 32.6578 8.21707ZM32.6578 8.06149C32.7634 8.06149 32.8455 8.01057 32.9039 7.90874C32.9624 7.80691 32.9916 7.6617 32.9916 7.47312C32.9916 7.34772 32.9782 7.24093 32.9513 7.15277C32.9249 7.06461 32.8867 6.99743 32.8368 6.95123C32.7873 6.90503 32.7276 6.88192 32.6578 6.88192C32.5532 6.88192 32.4714 6.93355 32.4125 7.0368C32.3535 7.13957 32.3241 7.28501 32.3241 7.47312C32.3241 7.59853 32.3373 7.70507 32.3637 7.79276C32.3901 7.88045 32.428 7.94716 32.4775 7.99289C32.5275 8.03862 32.5876 8.06149 32.6578 8.06149Z" fill="#2A3F5F"/>
<path d="M37.5974 63.9617V9.23975H46.0268V63.9617H37.5974Z" fill="#4499FF"/>
<path d="M48.1326 9.23975V25.1112H56.5619V9.23975H48.1326Z" fill="#FF4136"/>
<path d="M51.7185 26.9178V27.0734H51.0849V26.9178H51.7185ZM51.9754 27.4227V27.2785L52.6119 26.2714H52.7165V26.4949H52.6458L52.1649 27.2558V27.2671H53.022V27.4227H51.9754ZM52.6571 27.7197V27.3789V27.3117V26.2714H52.824V27.7197H52.6571ZM53.7594 27.7395C53.6529 27.7395 53.5621 27.7105 53.4872 27.6525C53.4122 27.5941 53.3549 27.5095 53.3153 27.3987C53.2757 27.2874 53.2559 27.153 53.2559 26.9956C53.2559 26.8391 53.2757 26.7054 53.3153 26.5946C53.3554 26.4834 53.4129 26.3985 53.4879 26.34C53.5633 26.2811 53.6538 26.2516 53.7594 26.2516C53.865 26.2516 53.9553 26.2811 54.0303 26.34C54.1057 26.3985 54.1632 26.4834 54.2028 26.5946C54.2429 26.7054 54.2629 26.8391 54.2629 26.9956C54.2629 27.153 54.2431 27.2874 54.2035 27.3987C54.1639 27.5095 54.1066 27.5941 54.0317 27.6525C53.9567 27.7105 53.866 27.7395 53.7594 27.7395ZM53.7594 27.5839C53.865 27.5839 53.9471 27.533 54.0055 27.4312C54.064 27.3294 54.0932 27.1842 54.0932 26.9956C54.0932 26.8702 54.0798 26.7634 54.0529 26.6752C54.0265 26.5871 53.9883 26.5199 53.9383 26.4737C53.8888 26.4275 53.8292 26.4044 53.7594 26.4044C53.6548 26.4044 53.573 26.456 53.514 26.5593C53.4551 26.662 53.4256 26.8075 53.4256 26.9956C53.4256 27.121 53.4388 27.2275 53.4652 27.3152C53.4916 27.4029 53.5296 27.4696 53.5791 27.5154C53.6291 27.5611 53.6892 27.5839 53.7594 27.5839Z" fill="#2A3F5F"/>
<path d="M58.6694 24.7793V32.881H67.0968V24.7793H58.6694Z" fill="#FF4136"/>
<path d="M62.426 34.6876V34.8431H61.7924V34.6876H62.426ZM62.6487 35.4895V35.3622L63.1268 34.8389C63.1829 34.7776 63.2291 34.7243 63.2654 34.6791C63.3017 34.6334 63.3286 34.5904 63.346 34.5504C63.3639 34.5098 63.3729 34.4674 63.3729 34.4231C63.3729 34.3722 63.3606 34.3281 63.3361 34.2908C63.3121 34.2536 63.2791 34.2248 63.2371 34.2046C63.1951 34.1843 63.148 34.1742 63.0957 34.1742C63.04 34.1742 62.9915 34.1857 62.95 34.2088C62.909 34.2314 62.8772 34.2633 62.8545 34.3043C62.8324 34.3453 62.8213 34.3934 62.8213 34.4485H62.6544C62.6544 34.3637 62.674 34.2892 62.7131 34.2251C62.7522 34.161 62.8055 34.111 62.8729 34.0752C62.9408 34.0393 63.0169 34.0214 63.1013 34.0214C63.1862 34.0214 63.2614 34.0393 63.3269 34.0752C63.3924 34.111 63.4438 34.1593 63.4811 34.2201C63.5183 34.2809 63.5369 34.3486 63.5369 34.4231C63.5369 34.4764 63.5273 34.5285 63.508 34.5794C63.4891 34.6298 63.4561 34.6862 63.4089 34.7484C63.3623 34.8101 63.2975 34.8856 63.2145 34.9747L62.8892 35.3226V35.3339H63.5624V35.4895H62.6487ZM64.3269 35.5093C64.2203 35.5093 64.1296 35.4803 64.0546 35.4223C63.9796 35.3639 63.9224 35.2792 63.8828 35.1684C63.8432 35.0572 63.8234 34.9228 63.8234 34.7654C63.8234 34.6088 63.8432 34.4752 63.8828 34.3644C63.9228 34.2531 63.9803 34.1683 64.0553 34.1098C64.1307 34.0509 64.2213 34.0214 64.3269 34.0214C64.4325 34.0214 64.5227 34.0509 64.5977 34.1098C64.6731 34.1683 64.7307 34.2531 64.7703 34.3644C64.8103 34.4752 64.8304 34.6088 64.8304 34.7654C64.8304 34.9228 64.8106 35.0572 64.771 35.1684C64.7314 35.2792 64.6741 35.3639 64.5991 35.4223C64.5242 35.4803 64.4334 35.5093 64.3269 35.5093ZM64.3269 35.3537C64.4325 35.3537 64.5145 35.3028 64.573 35.201C64.6314 35.0991 64.6606 34.9539 64.6606 34.7654C64.6606 34.64 64.6472 34.5332 64.6203 34.445C64.5939 34.3568 64.5557 34.2897 64.5058 34.2435C64.4563 34.1973 64.3966 34.1742 64.3269 34.1742C64.2222 34.1742 64.1404 34.2258 64.0815 34.329C64.0225 34.4318 63.9931 34.5772 63.9931 34.7654C63.9931 34.8908 64.0063 34.9973 64.0327 35.085C64.0591 35.1727 64.097 35.2394 64.1465 35.2851C64.1965 35.3309 64.2566 35.3537 64.3269 35.3537Z" fill="#2A3F5F"/>
<path d="M69.2048 63.9617V32.5491H77.6342V63.9617H69.2048Z" fill="#4499FF"/>
<path d="M71.4869 30.2139V30.0583H72.5731V30.2139H72.1177V31.5066H71.9423V30.2139H71.4869ZM73.1049 31.5292C73.0068 31.5292 72.9208 31.5059 72.8468 31.4592C72.7732 31.4125 72.7157 31.3472 72.6742 31.2633C72.6332 31.1794 72.6127 31.0813 72.6127 30.9691C72.6127 30.856 72.6332 30.7572 72.6742 30.6728C72.7157 30.5884 72.7732 30.5229 72.8468 30.4762C72.9208 30.4296 73.0068 30.4062 73.1049 30.4062C73.203 30.4062 73.2888 30.4296 73.3623 30.4762C73.4363 30.5229 73.4939 30.5884 73.5349 30.6728C73.5764 30.7572 73.5971 30.856 73.5971 30.9691C73.5971 31.0813 73.5764 31.1794 73.5349 31.2633C73.4939 31.3472 73.4363 31.4125 73.3623 31.4592C73.2888 31.5059 73.203 31.5292 73.1049 31.5292ZM73.1049 31.3793C73.1794 31.3793 73.2407 31.3602 73.2888 31.322C73.3369 31.2838 73.3725 31.2336 73.3956 31.1714C73.4187 31.1092 73.4302 31.0417 73.4302 30.9691C73.4302 30.8965 73.4187 30.8289 73.3956 30.7662C73.3725 30.7035 73.3369 30.6528 73.2888 30.6141C73.2407 30.5755 73.1794 30.5562 73.1049 30.5562C73.0304 30.5562 72.9691 30.5755 72.921 30.6141C72.873 30.6528 72.8374 30.7035 72.8143 30.7662C72.7912 30.8289 72.7796 30.8965 72.7796 30.9691C72.7796 31.0417 72.7912 31.1092 72.8143 31.1714C72.8374 31.2336 72.873 31.2838 72.921 31.322C72.9691 31.3602 73.0304 31.3793 73.1049 31.3793ZM74.3243 30.4204V30.5618H73.7613V30.4204H74.3243ZM73.9254 30.1601H74.0923V31.1954C74.0923 31.2426 74.0991 31.2779 74.1128 31.3015C74.127 31.3246 74.1449 31.3402 74.1666 31.3482C74.1887 31.3557 74.212 31.3595 74.2366 31.3595C74.2549 31.3595 74.27 31.3586 74.2818 31.3567C74.2936 31.3543 74.303 31.3524 74.3101 31.351L74.3441 31.5009C74.3327 31.5052 74.3169 31.5094 74.2967 31.5137C74.2764 31.5184 74.2507 31.5207 74.2196 31.5207C74.1724 31.5207 74.1262 31.5106 74.081 31.4903C74.0362 31.4701 73.999 31.4392 73.9693 31.3977C73.94 31.3562 73.9254 31.3039 73.9254 31.2407V30.1601ZM74.8949 31.5321C74.8261 31.5321 74.7636 31.5191 74.7075 31.4932C74.6514 31.4668 74.6069 31.4288 74.5739 31.3793C74.5409 31.3293 74.5244 31.269 74.5244 31.1983C74.5244 31.136 74.5366 31.0856 74.5612 31.0469C74.5857 31.0078 74.6184 30.9772 74.6595 30.955C74.7005 30.9328 74.7457 30.9163 74.7952 30.9055C74.8452 30.8942 74.8954 30.8852 74.9459 30.8786C75.0119 30.8701 75.0654 30.8638 75.1064 30.8595C75.1479 30.8548 75.178 30.847 75.1969 30.8362C75.2162 30.8253 75.2259 30.8065 75.2259 30.7796V30.774C75.2259 30.7042 75.2068 30.65 75.1686 30.6113C75.1309 30.5727 75.0736 30.5533 74.9968 30.5533C74.9171 30.5533 74.8546 30.5708 74.8094 30.6057C74.7641 30.6405 74.7323 30.6778 74.7139 30.7174L74.5555 30.6608C74.5838 30.5948 74.6215 30.5434 74.6686 30.5066C74.7163 30.4694 74.7681 30.4435 74.8242 30.4289C74.8808 30.4138 74.9364 30.4062 74.9911 30.4062C75.026 30.4062 75.0661 30.4105 75.1113 30.419C75.1571 30.427 75.2011 30.4437 75.2436 30.4692C75.2865 30.4946 75.3221 30.5331 75.3504 30.5844C75.3786 30.6358 75.3928 30.7047 75.3928 30.7909V31.5066H75.2259V31.3595H75.2174C75.2061 31.3831 75.1872 31.4083 75.1608 31.4352C75.1344 31.462 75.0993 31.4849 75.0555 31.5038C75.0116 31.5226 74.9581 31.5321 74.8949 31.5321ZM74.9204 31.3821C74.9864 31.3821 75.042 31.3692 75.0873 31.3432C75.133 31.3173 75.1674 31.2838 75.1905 31.2428C75.2141 31.2018 75.2259 31.1587 75.2259 31.1134V30.9607C75.2188 30.9691 75.2033 30.9769 75.1792 30.984C75.1557 30.9906 75.1283 30.9965 75.0972 31.0017C75.0665 31.0064 75.0366 31.0106 75.0074 31.0144C74.9786 31.0177 74.9553 31.0205 74.9374 31.0229C74.894 31.0285 74.8535 31.0377 74.8157 31.0505C74.7785 31.0627 74.7483 31.0813 74.7252 31.1063C74.7026 31.1308 74.6913 31.1643 74.6913 31.2068C74.6913 31.2647 74.7127 31.3086 74.7556 31.3383C74.799 31.3675 74.8539 31.3821 74.9204 31.3821ZM75.8643 30.0583V31.5066H75.6974V30.0583H75.8643Z" fill="#2A3F5F"/>
<path d="M24.9543 40.4865H27.0622" stroke="#3F3F3F" stroke-width="0.3319"/>
<path d="M35.4895 9.40576H37.5973" stroke="#3F3F3F" stroke-width="0.3319"/>
<path d="M46.0269 9.40576H48.1327" stroke="#3F3F3F" stroke-width="0.3319"/>
<path d="M56.562 24.9453H58.6699" stroke="#3F3F3F" stroke-width="0.3319"/>
<path d="M67.0972 32.7148H69.205" stroke="#3F3F3F" stroke-width="0.3319"/>
</g>
<path d="M21.6978 65.2535C21.7315 65.1914 21.7325 65.1313 21.7008 65.0732C21.6691 65.0152 21.6135 64.9675 21.5342 64.9301C21.4762 64.9027 21.4195 64.8873 21.364 64.8837C21.309 64.8803 21.2588 64.8878 21.2135 64.9059C21.1687 64.9243 21.1329 64.9524 21.1063 64.9901C21.0839 65.0217 21.0731 65.0527 21.0736 65.0833C21.0749 65.1136 21.0835 65.1425 21.0993 65.17C21.1154 65.1971 21.1345 65.2223 21.1567 65.2456C21.1792 65.2685 21.2005 65.2886 21.2207 65.3058L21.3309 65.4009C21.3593 65.425 21.3894 65.4541 21.4211 65.488C21.4533 65.5222 21.4798 65.5606 21.5008 65.6033C21.5224 65.6459 21.5324 65.6921 21.5306 65.7421C21.5288 65.792 21.5083 65.8447 21.4691 65.9002C21.4239 65.9641 21.3645 66.0131 21.291 66.0472C21.2178 66.0814 21.1351 66.0971 21.0428 66.0942C20.9509 66.0914 20.8547 66.0663 20.754 66.0189C20.6602 65.9746 20.5886 65.9227 20.5393 65.863C20.4904 65.8035 20.4636 65.7401 20.4589 65.6727C20.4547 65.6055 20.4729 65.5384 20.5135 65.4713L20.6773 65.5485C20.65 65.5951 20.6405 65.6399 20.6488 65.6829C20.6578 65.7256 20.6796 65.7646 20.7143 65.8C20.7497 65.8352 20.7935 65.865 20.8455 65.8895C20.906 65.9181 20.9667 65.9348 21.0274 65.9399C21.0884 65.9445 21.1442 65.9374 21.195 65.9188C21.246 65.8997 21.2867 65.8686 21.3172 65.8255C21.345 65.7862 21.3554 65.7486 21.3485 65.7125C21.3416 65.6764 21.3238 65.6413 21.295 65.6072C21.2663 65.5731 21.2329 65.5394 21.195 65.5062L21.0633 65.3886C20.9797 65.3138 20.9255 65.2377 20.9006 65.1603C20.8758 65.0829 20.8915 65.0043 20.9478 64.9247C20.9947 64.8584 21.0553 64.8101 21.1298 64.7795C21.205 64.7487 21.286 64.7356 21.3727 64.74C21.4601 64.7442 21.5456 64.7661 21.6292 64.8055C21.7136 64.8453 21.779 64.8943 21.8253 64.9526C21.872 65.0105 21.8979 65.072 21.903 65.137C21.9086 65.2023 21.8914 65.2652 21.8513 65.3259L21.6978 65.2535ZM21.7569 66.4916C21.6946 66.4622 21.6456 66.425 21.6098 66.3799C21.5743 66.3344 21.5559 66.2845 21.5547 66.23C21.5537 66.1751 21.5736 66.1188 21.6144 66.061C21.6503 66.0102 21.6905 65.9743 21.735 65.9532C21.7798 65.9317 21.8271 65.9206 21.877 65.92C21.9269 65.9194 21.9774 65.9252 22.0284 65.9375C22.0802 65.9496 22.1308 65.9637 22.1802 65.9798C22.2448 66.001 22.2969 66.0186 22.3364 66.0326C22.3767 66.0465 22.4085 66.053 22.4318 66.0522C22.4555 66.0516 22.4752 66.0403 22.4907 66.0183L22.4939 66.0137C22.5342 65.9567 22.5483 65.9043 22.536 65.8565C22.5242 65.8089 22.4836 65.7686 22.4141 65.7359C22.342 65.7019 22.2754 65.6895 22.2144 65.6987C22.1533 65.7079 22.103 65.7247 22.0635 65.7492L21.9529 65.6355C22.0166 65.5937 22.0803 65.5678 22.1442 65.5579C22.2088 65.5478 22.2707 65.5487 22.3299 65.5607C22.3897 65.5725 22.4444 65.5901 22.4939 65.6134C22.5254 65.6282 22.5592 65.6488 22.5953 65.675C22.632 65.7011 22.6622 65.7335 22.6859 65.7724C22.71 65.8115 22.72 65.858 22.716 65.912C22.7119 65.9661 22.6849 66.0283 22.6351 66.0987L22.2219 66.6831L22.0709 66.6119L22.1559 66.4918L22.1482 66.4882C22.1243 66.5026 22.0927 66.5152 22.0533 66.5258C22.0139 66.5365 21.969 66.5402 21.9184 66.5369C21.8679 66.5336 21.814 66.5185 21.7569 66.4916ZM21.8665 66.38C21.9262 66.4082 21.984 66.4213 22.0399 66.4194C22.0962 66.4177 22.1467 66.4051 22.1912 66.3815C22.2363 66.358 22.2718 66.3278 22.298 66.2909L22.3861 66.1661C22.3749 66.1701 22.3563 66.1698 22.3305 66.1653C22.3053 66.1606 22.2772 66.1538 22.246 66.1448C22.2156 66.1355 22.1861 66.1262 22.1575 66.1169C22.1295 66.1073 22.1068 66.0997 22.0892 66.0939C22.0467 66.0801 22.0047 66.0703 21.9633 66.0646C21.9225 66.0587 21.8845 66.0611 21.8491 66.0716C21.8145 66.082 21.785 66.1045 21.7605 66.1391C21.727 66.1865 21.7211 66.2314 21.7427 66.274C21.7651 66.3163 21.8063 66.3517 21.8665 66.38ZM23.4846 65.7016L22.6484 66.8841L22.4974 66.8129L23.3337 65.6304L23.4846 65.7016ZM23.3238 67.2271C23.2291 67.1824 23.1608 67.1251 23.1188 67.055C23.0775 66.9847 23.0624 66.9068 23.0735 66.8212C23.0853 66.7354 23.1233 66.647 23.1875 66.5562C23.2518 66.4654 23.3267 66.3939 23.4124 66.3419C23.4988 66.2898 23.5887 66.2598 23.6823 66.2521C23.7766 66.2442 23.8681 66.2611 23.9568 66.3029C24.008 66.3271 24.0531 66.3586 24.0921 66.3975C24.1311 66.4364 24.1588 66.4828 24.1753 66.5368C24.192 66.5903 24.1925 66.6511 24.1768 66.7192C24.1611 66.7872 24.1239 66.8626 24.0654 66.9454L24.0246 67.0031L23.2672 66.6461L23.3505 66.5283L23.9544 66.813C23.9898 66.7629 24.0102 66.7131 24.0158 66.6633C24.0218 66.6138 24.0126 66.5682 23.9882 66.5264C23.9641 66.4847 23.9248 66.4511 23.8703 66.4254C23.8101 66.397 23.7486 66.386 23.6856 66.3922C23.6233 66.3983 23.5653 66.4171 23.5117 66.4488C23.458 66.4805 23.4139 66.5207 23.3793 66.5696L23.3238 66.6481C23.2764 66.7151 23.2491 66.7779 23.2417 66.8366C23.2351 66.895 23.2462 66.9472 23.2751 66.9932C23.3043 67.0388 23.3494 67.0759 23.4103 67.1047C23.45 67.1234 23.4894 67.1352 23.5284 67.1403C23.5682 67.1452 23.607 67.143 23.6449 67.1336C23.683 67.1239 23.7194 67.1066 23.754 67.0819L23.8737 67.1876C23.8268 67.225 23.7732 67.2521 23.713 67.2689C23.6531 67.2853 23.5898 67.2903 23.5231 67.2841C23.4568 67.2774 23.3903 67.2584 23.3238 67.2271ZM25.156 67.1484L24.9959 67.1191C25.0018 67.0947 25.0032 67.069 25.0002 67.0419C24.9979 67.0146 24.9871 66.988 24.968 66.962C24.9488 66.936 24.9173 66.9127 24.8733 66.892C24.8132 66.8637 24.7542 66.8526 24.6965 66.8587C24.6394 66.8646 24.5974 66.8866 24.5704 66.9248C24.5465 66.9586 24.5412 66.9918 24.5546 67.0243C24.568 67.0568 24.5991 67.0933 24.6478 67.1337L24.7708 67.2348C24.8451 67.2954 24.8897 67.3557 24.9047 67.4157C24.92 67.4752 24.9058 67.536 24.8619 67.598C24.826 67.6488 24.7777 67.6866 24.717 67.7113C24.6567 67.7363 24.5896 67.7467 24.5157 67.7427C24.4418 67.7387 24.3667 67.7186 24.2903 67.6827C24.1901 67.6354 24.121 67.5767 24.0831 67.5065C24.0452 67.4363 24.0442 67.3593 24.0801 67.2756L24.2462 67.3108C24.2261 67.365 24.2266 67.413 24.2477 67.4547C24.2692 67.4967 24.3109 67.5322 24.3727 67.5614C24.4431 67.5945 24.5084 67.6074 24.5689 67.5999C24.63 67.5923 24.674 67.5694 24.701 67.5313C24.7227 67.5005 24.729 67.4691 24.7199 67.4371C24.7109 67.4047 24.6854 67.3716 24.6433 67.3379L24.5041 67.226C24.4277 67.1644 24.3827 67.1034 24.369 67.0431C24.3561 66.9826 24.3713 66.9217 24.4146 66.8605C24.4499 66.8105 24.4968 66.7736 24.5552 66.7497C24.6139 66.7261 24.6782 66.7161 24.7478 66.7197C24.8179 66.7235 24.8875 66.7417 24.9566 66.7742C25.0539 66.82 25.1166 66.8753 25.1448 66.9399C25.1734 67.0047 25.1772 67.0742 25.156 67.1484Z" fill="#2A3F5F"/>
<path d="M32.5184 65.4866L32.3598 65.4119C32.3796 65.3662 32.3887 65.3223 32.3873 65.2801C32.3863 65.2381 32.3767 65.1986 32.3584 65.1618C32.3408 65.1247 32.3158 65.0914 32.2833 65.0617C32.2509 65.032 32.2129 65.0069 32.1694 64.9864C32.0901 64.9491 32.0054 64.9333 31.9154 64.9391C31.8259 64.9451 31.7372 64.9744 31.6494 65.027C31.5621 65.0797 31.4822 65.1573 31.4098 65.2597C31.3374 65.3621 31.2951 65.4573 31.2828 65.5455C31.2709 65.6338 31.2842 65.7111 31.3226 65.7775C31.3614 65.844 31.4204 65.896 31.4998 65.9334C31.5433 65.9539 31.5889 65.9682 31.6366 65.9763C31.6843 65.9844 31.732 65.9856 31.7798 65.9799C31.8283 65.974 31.8751 65.9609 31.9202 65.9406C31.966 65.9201 32.008 65.8917 32.0462 65.8553L32.2049 65.9301C32.1502 65.9849 32.0902 66.0287 32.0249 66.0616C31.9596 66.0944 31.8916 66.1165 31.821 66.1279C31.7507 66.1389 31.6802 66.1393 31.6095 66.1291C31.5393 66.1191 31.4711 66.0985 31.405 66.0673C31.2933 66.0146 31.2114 65.9432 31.1592 65.8529C31.107 65.7626 31.0881 65.6603 31.1025 65.5459C31.1168 65.4316 31.1681 65.312 31.2563 65.1873C31.3445 65.0626 31.4457 64.9666 31.5598 64.8993C31.6739 64.8319 31.7919 64.7942 31.9138 64.7859C32.0356 64.7776 32.1524 64.7998 32.2641 64.8525C32.3302 64.8836 32.3861 64.9216 32.4319 64.9662C32.4781 65.0111 32.5128 65.0613 32.536 65.1169C32.5595 65.1721 32.5701 65.231 32.5679 65.2936C32.566 65.3559 32.5495 65.4202 32.5184 65.4866ZM32.5655 66.6174C32.4768 66.5756 32.4125 66.5199 32.3725 66.4502C32.3329 66.3807 32.3186 66.3029 32.3295 66.2167C32.3408 66.1307 32.3789 66.0419 32.4437 65.9503C32.509 65.8579 32.5846 65.786 32.6704 65.7346C32.7567 65.6834 32.8465 65.6544 32.94 65.6476C33.0339 65.6411 33.1252 65.6587 33.2139 65.7005C33.3026 65.7423 33.3668 65.798 33.4063 65.8674C33.4463 65.9371 33.4605 66.0151 33.4489 66.1015C33.4377 66.1881 33.3994 66.2776 33.3341 66.37C33.2693 66.4616 33.1939 66.5328 33.108 66.5836C33.0224 66.6347 32.9327 66.6634 32.8388 66.67C32.7453 66.6767 32.6542 66.6592 32.5655 66.6174ZM32.6521 66.495C32.7195 66.5268 32.7859 66.5373 32.8515 66.5266C32.917 66.5159 32.9782 66.4901 33.035 66.4492C33.0919 66.4082 33.1412 66.3581 33.1831 66.2988C33.2251 66.2395 33.2537 66.1794 33.269 66.1183C33.2843 66.0573 33.2814 66.0007 33.2602 65.9487C33.239 65.8966 33.1947 65.8547 33.1274 65.8229C33.06 65.7912 32.9934 65.7808 32.9276 65.7919C32.8617 65.8029 32.8003 65.8291 32.7432 65.8705C32.6861 65.9118 32.6366 65.9621 32.5946 66.0214C32.5527 66.0807 32.5243 66.1407 32.5092 66.2013C32.4942 66.262 32.4974 66.3182 32.5188 66.3698C32.5403 66.4215 32.5847 66.4632 32.6521 66.495ZM33.7825 66.4551L33.4052 66.9886L33.2542 66.9174L33.8814 66.0305L34.0272 66.0993L33.9293 66.2379L33.942 66.2439C33.9969 66.2097 34.0575 66.19 34.1237 66.1848C34.1902 66.1792 34.2606 66.1939 34.3348 66.2288C34.4013 66.2602 34.4508 66.3 34.4833 66.3481C34.516 66.3959 34.5287 66.4511 34.5213 66.5138C34.5142 66.5762 34.4839 66.6451 34.4306 66.7205L34.0321 67.2841L33.8811 67.2129L34.2731 66.6586C34.3224 66.5889 34.3407 66.5252 34.3281 66.4674C34.3158 66.4093 34.2747 66.3637 34.2047 66.3307C34.1565 66.308 34.1068 66.2972 34.0555 66.2981C34.0046 66.2993 33.9555 66.3129 33.9082 66.3388C33.8609 66.3647 33.819 66.4035 33.7825 66.4551ZM35.4906 67.0539L35.3305 67.0246C35.3364 67.0002 35.3378 66.9744 35.3348 66.9473C35.3325 66.9201 35.3217 66.8935 35.3026 66.8675C35.2834 66.8415 35.2519 66.8182 35.208 66.7975C35.1478 66.7691 35.0889 66.758 35.0311 66.7642C34.974 66.7701 34.932 66.7921 34.905 66.8302C34.8811 66.8641 34.8758 66.8973 34.8892 66.9298C34.9026 66.9623 34.9337 66.9987 34.9825 67.0392L35.1054 67.1402C35.1797 67.2009 35.2243 67.2612 35.2393 67.3211C35.2546 67.3807 35.2404 67.4415 35.1966 67.5035C35.1606 67.5543 35.1123 67.592 35.0516 67.6168C34.9913 67.6418 34.9242 67.6522 34.8503 67.6482C34.7764 67.6441 34.7013 67.6241 34.6249 67.5881C34.5247 67.5409 34.4557 67.4822 34.4178 67.412C34.3798 67.3417 34.3788 67.2648 34.4147 67.1811L34.5808 67.2163C34.5607 67.2705 34.5612 67.3184 34.5823 67.3602C34.6038 67.4021 34.6455 67.4377 34.7073 67.4668C34.7777 67.5 34.8431 67.5129 34.9035 67.5054C34.9646 67.4978 35.0086 67.4749 35.0356 67.4368C35.0574 67.406 35.0637 67.3746 35.0545 67.3426C35.0456 67.3101 35.0201 67.2771 34.9779 67.2433L34.8387 67.1315C34.7623 67.0699 34.7173 67.0089 34.7037 66.9486C34.6907 66.8881 34.7059 66.8272 34.7492 66.766C34.7846 66.716 34.8314 66.679 34.8898 66.6552C34.9486 66.6316 35.0128 66.6216 35.0825 66.6252C35.1526 66.629 35.2222 66.6471 35.2912 66.6797C35.3885 66.7255 35.4512 66.7808 35.4794 66.8454C35.5081 66.9102 35.5118 66.9797 35.4906 67.0539ZM36.1247 67.787L36.4954 67.2627L36.6464 67.3338L36.0192 68.2207L35.8683 68.1496L35.9744 67.9994L35.9642 67.9946C35.9093 68.0288 35.8464 68.0502 35.7755 68.0589C35.7048 68.0671 35.6324 68.0538 35.5582 68.0188C35.4968 67.9898 35.4507 67.952 35.4201 67.9052C35.3898 67.8581 35.3784 67.8034 35.3859 67.7413C35.3938 67.6788 35.4244 67.6098 35.4777 67.5344L35.8762 66.9708L36.0272 67.042L35.6352 67.5963C35.5895 67.6609 35.573 67.722 35.5859 67.7794C35.5992 67.8369 35.6372 67.8805 35.6999 67.9101C35.7374 67.9277 35.7817 67.9371 35.8327 67.9381C35.8842 67.9392 35.9358 67.9281 35.9876 67.9048C36.0398 67.8817 36.0855 67.8424 36.1247 67.787ZM37.2829 67.2397L36.4467 68.4222L36.2957 68.351L37.1319 67.1686L37.2829 67.2397ZM37.7776 67.8671L37.696 67.9826L37.1868 67.7426L37.2685 67.6271L37.7776 67.8671ZM37.5671 67.4845L37.7181 67.5557L37.1203 68.401C37.0931 68.4395 37.0789 68.4713 37.0776 68.4964C37.0771 68.5212 37.0843 68.5416 37.0993 68.5574C37.115 68.573 37.1339 68.586 37.1561 68.5965C37.1727 68.6043 37.1869 68.61 37.1987 68.6135C37.2107 68.6166 37.2203 68.619 37.2275 68.6209L37.1717 68.7578C37.159 68.7564 37.1422 68.7531 37.1214 68.748C37.1004 68.7432 37.0758 68.7341 37.0476 68.7209C37.005 68.7008 36.9691 68.6728 36.9398 68.6369C36.911 68.6013 36.8952 68.5602 36.8922 68.5137C36.8898 68.4673 36.9067 68.4184 36.9432 68.3668L37.5671 67.4845ZM37.3776 68.861L38.0047 67.9741L38.1557 68.0453L37.5285 68.9321L37.3776 68.861ZM38.186 67.8625C38.1566 67.8486 38.1376 67.8276 38.1291 67.7995C38.121 67.7715 38.1259 67.7449 38.1439 67.7195C38.1618 67.6941 38.1877 67.6772 38.2214 67.669C38.2555 67.6609 38.2872 67.6639 38.3167 67.6777C38.3461 67.6916 38.3649 67.7125 38.373 67.7404C38.3815 67.7686 38.3768 67.7954 38.3588 67.8208C38.3408 67.8462 38.3148 67.8629 38.2807 67.8709C38.247 67.8792 38.2154 67.8764 38.186 67.8625ZM38.3333 68.6001L37.956 69.1336L37.805 69.0625L38.4322 68.1756L38.578 68.2444L38.48 68.3829L38.4928 68.389C38.5477 68.3548 38.6083 68.3351 38.6745 68.3299C38.741 68.3243 38.8114 68.3389 38.8856 68.3739C38.9521 68.4053 39.0016 68.445 39.0341 68.4932C39.0668 68.541 39.0795 68.5962 39.0721 68.6589C39.065 68.7213 39.0347 68.7902 38.9814 68.8656L38.5829 69.4291L38.4319 69.358L38.8239 68.8037C38.8731 68.734 38.8915 68.6703 38.8789 68.6125C38.8666 68.5544 38.8254 68.5088 38.7555 68.4758C38.7073 68.4531 38.6576 68.4422 38.6063 68.4432C38.5554 68.4444 38.5063 68.4579 38.459 68.4839C38.4116 68.5098 38.3697 68.5486 38.3333 68.6001ZM39.0071 70.0971C38.9341 70.0628 38.8774 70.0248 38.837 69.9831C38.7962 69.9418 38.768 69.8993 38.7524 69.8555C38.7369 69.8122 38.7298 69.7704 38.7311 69.73L38.9053 69.7104C38.9075 69.733 38.9117 69.7596 38.9179 69.7903C38.9238 69.8213 38.9394 69.8531 38.9648 69.8855C38.9903 69.9186 39.0327 69.9491 39.092 69.9771C39.1713 70.0144 39.249 70.028 39.3251 70.0177C39.4012 70.0073 39.4654 69.9652 39.5177 69.8913L39.6451 69.7112L39.6323 69.7051C39.6097 69.7161 39.5798 69.7287 39.5425 69.7429C39.5058 69.7569 39.462 69.7642 39.411 69.7648C39.3606 69.7652 39.3035 69.7503 39.2395 69.7202C39.1602 69.6828 39.101 69.6323 39.0618 69.5687C39.0231 69.5052 39.0082 69.4326 39.0173 69.3506C39.0268 69.2688 39.0642 69.1818 39.1295 69.0894C39.1938 68.9986 39.2674 68.9278 39.3504 68.8771C39.4337 68.8261 39.52 68.7969 39.6092 68.7897C39.6988 68.7821 39.7849 68.7978 39.8676 68.8368C39.9316 68.867 39.9755 68.9005 39.9994 68.9375C40.0241 68.9742 40.0378 69.0094 40.0407 69.0431C40.0443 69.0766 40.0462 69.1037 40.0464 69.1243L40.0617 69.1316L40.1614 68.9907L40.3072 69.0594L39.6621 69.9717C39.6082 70.0479 39.5452 70.1009 39.473 70.1305C39.4011 70.1607 39.325 70.1718 39.2448 70.1638C39.1648 70.1563 39.0855 70.1341 39.0071 70.0971ZM39.3466 69.6074C39.4071 69.636 39.4671 69.6476 39.5266 69.6423C39.5861 69.6369 39.6433 69.6159 39.6983 69.5792C39.7532 69.5425 39.8039 69.4914 39.8501 69.426C39.8953 69.3621 39.9245 69.3007 39.9378 69.2417C39.951 69.1828 39.9466 69.1296 39.9244 69.0822C39.9022 69.0348 39.8604 68.9966 39.799 68.9677C39.735 68.9375 39.6713 68.927 39.608 68.9362C39.5451 68.9455 39.4856 68.9698 39.4294 69.009C39.3737 69.0485 39.3246 69.0982 39.2821 69.1582C39.2386 69.2198 39.2107 69.2793 39.1985 69.3367C39.1871 69.3939 39.1929 69.446 39.2161 69.4928C39.24 69.5395 39.2834 69.5777 39.3466 69.6074Z" fill="#2A3F5F"/>
<path d="M43.2996 65.1099L42.4634 66.2924L42.3098 66.22L42.2525 64.9551L42.2397 64.949L41.5832 65.8775L41.4245 65.8027L42.2607 64.6202L42.4143 64.6926L42.4725 65.961L42.4853 65.967L43.1435 65.0363L43.2996 65.1099ZM43.1592 66.645C43.0645 66.6004 42.9962 66.543 42.9542 66.4729C42.9129 66.4027 42.8978 66.3247 42.9089 66.2391C42.9207 66.1533 42.9587 66.065 43.0229 65.9741C43.0872 65.8833 43.1621 65.8119 43.2478 65.7599C43.3342 65.7077 43.4242 65.6777 43.5178 65.67C43.612 65.6621 43.7035 65.6791 43.7922 65.7209C43.8434 65.745 43.8885 65.7765 43.9275 65.8154C43.9665 65.8543 43.9942 65.9008 44.0107 65.9547C44.0274 66.0083 44.0279 66.0691 44.0122 66.1371C43.9965 66.2051 43.9594 66.2805 43.9008 66.3633L43.86 66.421L43.1026 66.064L43.1859 65.9463L43.7898 66.2309C43.8252 66.1808 43.8457 66.131 43.8513 66.0813C43.8573 66.0317 43.8481 65.9861 43.8236 65.9443C43.7996 65.9027 43.7603 65.869 43.7057 65.8433C43.6456 65.8149 43.584 65.8039 43.521 65.8101C43.4587 65.8162 43.4008 65.835 43.3471 65.8667C43.2934 65.8984 43.2493 65.9387 43.2147 65.9875L43.1592 66.0661C43.1118 66.133 43.0845 66.1959 43.0771 66.2545C43.0705 66.3129 43.0816 66.3651 43.1105 66.4111C43.1397 66.4567 43.1848 66.4938 43.2458 66.5226C43.2854 66.5413 43.3248 66.5532 43.3638 66.5582C43.4036 66.5631 43.4424 66.5609 43.4803 66.5515C43.5185 66.5418 43.5548 66.5246 43.5894 66.4998L43.7091 66.6055C43.6622 66.6429 43.6086 66.67 43.5484 66.6868C43.4885 66.7032 43.4252 66.7083 43.3585 66.702C43.2922 66.6954 43.2257 66.6764 43.1592 66.645ZM44.8632 66.2411L44.7815 66.3566L44.2724 66.1165L44.354 66.0011L44.8632 66.2411ZM44.6527 65.8585L44.8037 65.9297L44.2059 66.775C44.1787 66.8135 44.1644 66.8453 44.1632 66.8703C44.1626 66.8952 44.1699 66.9156 44.1849 66.9314C44.2005 66.947 44.2195 66.96 44.2417 66.9705C44.2583 66.9783 44.2725 66.984 44.2842 66.9874C44.2962 66.9905 44.3059 66.993 44.3131 66.9949L44.2572 67.1318C44.2445 67.1304 44.2278 67.1271 44.207 67.122C44.186 67.1172 44.1614 67.1081 44.1332 67.0949C44.0906 67.0748 44.0546 67.0468 44.0254 67.0109C43.9966 66.9753 43.9807 66.9342 43.9778 66.8877C43.9753 66.8413 43.9923 66.7924 44.0288 66.7408L44.6527 65.8585ZM44.9697 67.4738L45.5969 66.5869L45.7428 66.6557L45.648 66.7896L45.6583 66.7944C45.7072 66.759 45.7648 66.7387 45.831 66.7335C45.8973 66.7282 45.9598 66.7395 46.0187 66.7672C46.0297 66.7725 46.0435 66.7792 46.0598 66.7874C46.0762 66.7956 46.0884 66.8021 46.0963 66.8069L45.9983 66.9455C45.994 66.9419 45.9835 66.9347 45.9668 66.9237C45.9508 66.9126 45.9328 66.9023 45.9128 66.8928C45.865 66.8703 45.816 66.8593 45.7656 66.8597C45.716 66.8599 45.6692 66.8707 45.6251 66.892C45.5817 66.9131 45.5459 66.9437 45.5176 66.9837L45.1207 67.5449L44.9697 67.4738ZM46.0089 67.9883C45.9143 67.9436 45.8459 67.8863 45.804 67.8162C45.7627 67.7459 45.7476 67.668 45.7587 67.5824C45.7704 67.4966 45.8084 67.4082 45.8727 67.3174C45.9369 67.2265 46.0119 67.1551 46.0976 67.1031C46.1839 67.0509 46.2739 67.021 46.3675 67.0133C46.4618 67.0054 46.5533 67.0223 46.642 67.0641C46.6932 67.0882 46.7382 67.1198 46.7773 67.1587C46.8163 67.1976 46.844 67.244 46.8604 67.298C46.8771 67.3515 46.8776 67.4123 46.8619 67.4804C46.8462 67.5484 46.8091 67.6238 46.7506 67.7066L46.7098 67.7643L45.9524 67.4073L46.0357 67.2895L46.6395 67.5742C46.6749 67.5241 46.6954 67.4742 46.701 67.4245C46.707 67.375 46.6978 67.3293 46.6733 67.2875C46.6493 67.2459 46.61 67.2123 46.5554 67.1865C46.4953 67.1582 46.4337 67.1471 46.3708 67.1534C46.3085 67.1594 46.2505 67.1783 46.1968 67.21C46.1432 67.2416 46.099 67.2819 46.0645 67.3308L46.0089 67.4093C45.9616 67.4763 45.9342 67.5391 45.9269 67.5978C45.9202 67.6562 45.9314 67.7084 45.9603 67.7544C45.9894 67.7999 46.0345 67.8371 46.0955 67.8658C46.1352 67.8845 46.1745 67.8964 46.2136 67.9015C46.2533 67.9064 46.2922 67.9041 46.33 67.8948C46.3682 67.8851 46.4046 67.8678 46.4391 67.8431L46.5588 67.9488C46.5119 67.9862 46.4584 68.0133 46.3981 68.0301C46.3382 68.0465 46.2749 68.0515 46.2083 68.0453C46.1419 68.0386 46.0755 68.0196 46.0089 67.9883ZM48.0592 67.7475L47.0687 68.4631L46.9151 68.3908L47.179 67.3326L47.3427 67.4098L47.1142 68.2444L47.1244 68.2492L47.8954 67.6703L48.0592 67.7475ZM47.995 68.9244C47.9003 68.8798 47.832 68.8224 47.79 68.7523C47.7487 68.6821 47.7336 68.6041 47.7447 68.5185C47.7565 68.4327 47.7945 68.3444 47.8587 68.2535C47.9229 68.1627 47.9979 68.0913 48.0836 68.0393C48.1699 67.9871 48.2599 67.9571 48.3535 67.9494C48.4478 67.9415 48.5393 67.9585 48.628 68.0003C48.6792 68.0244 48.7243 68.0559 48.7633 68.0948C48.8023 68.1337 48.83 68.1802 48.8464 68.2341C48.8632 68.2877 48.8637 68.3485 48.848 68.4165C48.8322 68.4845 48.7951 68.5599 48.7366 68.6427L48.6958 68.7004L47.9384 68.3434L48.0217 68.2257L48.6255 68.5103C48.6609 68.4602 48.6814 68.4104 48.687 68.3607C48.693 68.3111 48.6838 68.2655 48.6594 68.2237C48.6353 68.1821 48.596 68.1484 48.5414 68.1227C48.4813 68.0943 48.4198 68.0833 48.3568 68.0895C48.2945 68.0956 48.2365 68.1144 48.1829 68.1461C48.1292 68.1778 48.0851 68.2181 48.0505 68.2669L47.995 68.3455C47.9476 68.4124 47.9202 68.4753 47.9129 68.5339C47.9062 68.5923 47.9174 68.6445 47.9463 68.6905C47.9755 68.7361 48.0205 68.7732 48.0815 68.802C48.1212 68.8207 48.1605 68.8326 48.1996 68.8376C48.2394 68.8425 48.2782 68.8403 48.3161 68.8309C48.3542 68.8212 48.3906 68.804 48.4252 68.7792L48.5449 68.8849C48.4979 68.9223 48.4444 68.9494 48.3842 68.9662C48.3242 68.9826 48.261 68.9877 48.1943 68.9814C48.1279 68.9748 48.0615 68.9558 47.995 68.9244ZM49.1727 68.7436L48.7955 69.2771L48.6445 69.2059L49.2717 68.3191L49.4175 68.3878L49.3195 68.5264L49.3323 68.5324C49.3872 68.4982 49.4477 68.4785 49.514 68.4733C49.5805 68.4677 49.6508 68.4824 49.725 68.5174C49.7916 68.5487 49.8411 68.5885 49.8735 68.6366C49.9063 68.6844 49.919 68.7396 49.9116 68.8024C49.9044 68.8647 49.8742 68.9336 49.8209 69.009L49.4223 69.5726L49.2714 69.5014L49.6634 68.9471C49.7126 68.8775 49.731 68.8137 49.7184 68.756C49.706 68.6978 49.6649 68.6522 49.595 68.6193C49.5468 68.5966 49.4971 68.5857 49.4458 68.5867C49.3949 68.5878 49.3458 68.6014 49.2985 68.6273C49.2511 68.6532 49.2092 68.692 49.1727 68.7436ZM50.5738 69.6319L50.9446 69.1076L51.0955 69.1788L50.4684 70.0656L50.3174 69.9945L50.4236 69.8444L50.4133 69.8395C50.3585 69.8737 50.2955 69.8951 50.2246 69.9038C50.1539 69.912 50.0815 69.8987 50.0073 69.8637C49.9459 69.8348 49.8999 69.7969 49.8693 69.7501C49.8389 69.703 49.8275 69.6483 49.8351 69.5862C49.8429 69.5237 49.8735 69.4547 49.9269 69.3793L50.3254 68.8157L50.4763 68.8869L50.0843 69.4412C50.0386 69.5059 50.0222 69.5669 50.0351 69.6243C50.0483 69.6819 50.0863 69.7254 50.149 69.755C50.1865 69.7727 50.2308 69.782 50.2819 69.783C50.3334 69.7841 50.385 69.7731 50.4368 69.7497C50.4889 69.7266 50.5346 69.6873 50.5738 69.6319ZM51.1437 70.4086C51.0491 70.364 50.9807 70.3066 50.9388 70.2365C50.8975 70.1663 50.8824 70.0883 50.8935 70.0027C50.9052 69.9169 50.9432 69.8286 51.0075 69.7377C51.0717 69.6469 51.1467 69.5755 51.2324 69.5235C51.3187 69.4713 51.4087 69.4413 51.5023 69.4336C51.5966 69.4257 51.6881 69.4427 51.7768 69.4845C51.828 69.5086 51.8731 69.5401 51.9121 69.579C51.9511 69.618 51.9788 69.6644 51.9952 69.7183C52.0119 69.7719 52.0124 69.8327 51.9967 69.9007C51.981 69.9688 51.9439 70.0442 51.8854 70.1269L51.8446 70.1847L51.0872 69.8277L51.1705 69.7099L51.7743 69.9945C51.8097 69.9445 51.8302 69.8946 51.8358 69.8449C51.8418 69.7954 51.8326 69.7497 51.8081 69.7079C51.7841 69.6663 51.7448 69.6326 51.6902 69.6069C51.6301 69.5786 51.5685 69.5675 51.5056 69.5737C51.4433 69.5798 51.3853 69.5987 51.3316 69.6303C51.278 69.662 51.2339 69.7023 51.1993 69.7512L51.1438 69.8297C51.0964 69.8967 51.069 69.9595 51.0617 70.0181C51.055 70.0766 51.0662 70.1288 51.0951 70.1747C51.1242 70.2203 51.1693 70.2575 51.2303 70.2862C51.27 70.3049 51.3093 70.3168 51.3484 70.3219C51.3881 70.3267 51.427 70.3245 51.4648 70.3152C51.503 70.3054 51.5394 70.2882 51.5739 70.2634L51.6936 70.3691C51.6467 70.4065 51.5932 70.4336 51.533 70.4504C51.473 70.4668 51.4097 70.4719 51.3431 70.4656C51.2767 70.459 51.2103 70.44 51.1437 70.4086Z" fill="#2A3F5F"/>
<path d="M51.9614 65.8027L52.7976 64.6202L53.2403 64.8289C53.343 64.8773 53.4152 64.9336 53.4568 64.9979C53.499 65.0619 53.5159 65.1297 53.5075 65.2012C53.499 65.2726 53.4702 65.3432 53.4209 65.4129C53.3716 65.4825 53.3111 65.5384 53.2392 65.5805C53.1678 65.6228 53.0875 65.6455 52.9983 65.6486C52.9094 65.6514 52.8139 65.6287 52.712 65.5807L52.3947 65.4311L52.4846 65.3041L52.7967 65.4512C52.8671 65.4844 52.9314 65.5001 52.9895 65.4982C53.0477 65.4964 53.0996 65.4813 53.1451 65.453C53.1914 65.4245 53.2313 65.3866 53.2648 65.3393C53.2983 65.2919 53.3184 65.245 53.3252 65.1984C53.3324 65.152 53.322 65.1081 53.2939 65.0666C53.2661 65.0248 53.2165 64.987 53.1453 64.9535L52.8664 64.822L52.12 65.8775L51.9614 65.8027ZM53.96 66.2613L54.3307 65.737L54.4817 65.8082L53.8545 66.695L53.7035 66.6239L53.8097 66.4738L53.7995 66.4689C53.7446 66.5031 53.6817 66.5245 53.6107 66.5332C53.5401 66.5414 53.4676 66.5281 53.3934 66.4931C53.332 66.4642 53.286 66.4263 53.2554 66.3795C53.2251 66.3324 53.2137 66.2778 53.2212 66.2156C53.229 66.1531 53.2596 66.0841 53.313 66.0087L53.7115 65.4451L53.8625 65.5163L53.4705 66.0706C53.4248 66.1353 53.4083 66.1963 53.4212 66.2537C53.4345 66.3113 53.4725 66.3548 53.5352 66.3844C53.5727 66.4021 53.617 66.4114 53.668 66.4124C53.7195 66.4135 53.7711 66.4025 53.8229 66.3791C53.8751 66.356 53.9208 66.3167 53.96 66.2613ZM54.131 66.8254L54.7582 65.9385L54.904 66.0072L54.8093 66.1412L54.8195 66.146C54.8685 66.1106 54.926 66.0903 54.9923 66.085C55.0585 66.0798 55.1211 66.0911 55.1799 66.1188C55.191 66.124 55.2047 66.1308 55.2211 66.139C55.2374 66.1472 55.2496 66.1537 55.2576 66.1585L55.1596 66.2971C55.1553 66.2935 55.1448 66.2863 55.1281 66.2753C55.1121 66.2642 55.0941 66.2539 55.074 66.2444C55.0263 66.2219 54.9772 66.2109 54.9269 66.2113C54.8773 66.2115 54.8304 66.2223 54.7864 66.2436C54.743 66.2647 54.7071 66.2953 54.6788 66.3353L54.282 66.8965L54.131 66.8254ZM55.1574 67.3338C55.0653 67.2904 54.9998 67.2334 54.9611 67.1628C54.9223 67.0921 54.9094 67.0139 54.9223 66.9281C54.9352 66.8424 54.973 66.7552 55.0356 66.6667C55.0993 66.5766 55.1738 66.5057 55.2592 66.4541C55.3453 66.4023 55.4352 66.3726 55.5287 66.3649C55.623 66.3569 55.7145 66.3739 55.8032 66.4157C55.8723 66.4483 55.9264 66.4892 55.9655 66.5384C56.0046 66.5876 56.0272 66.6414 56.0332 66.6996C56.0392 66.7579 56.0268 66.8167 55.9962 66.8762L55.8452 66.805C55.8623 66.7592 55.862 66.7113 55.8444 66.6614C55.8275 66.6114 55.7858 66.5707 55.7192 66.5393C55.6604 66.5116 55.599 66.5011 55.535 66.5079C55.4718 66.5146 55.4101 66.5371 55.35 66.5754C55.2906 66.6136 55.2372 66.6662 55.1898 66.7332C55.1413 66.8017 55.1111 66.867 55.099 66.9291C55.0874 66.9913 55.0936 67.0469 55.1177 67.0957C55.1422 67.1447 55.1843 67.1833 55.244 67.2114C55.2832 67.2299 55.3232 67.2405 55.3639 67.2433C55.4045 67.246 55.4441 67.2411 55.4827 67.2285C55.5212 67.2158 55.5565 67.1955 55.5888 67.1676L55.7397 67.2388C55.6942 67.2871 55.6397 67.3243 55.5764 67.3504C55.5137 67.3763 55.4462 67.3886 55.3737 67.3873C55.302 67.3858 55.2299 67.368 55.1574 67.3338ZM56.3058 67.1391L55.9285 67.6726L55.7775 67.6015L56.6137 66.419L56.7647 66.4901L56.4576 66.9243L56.4704 66.9304C56.5259 66.8954 56.5861 66.8753 56.6512 66.8701C56.717 66.8647 56.7885 66.8802 56.8657 66.9165C56.9327 66.9481 56.9827 66.9879 57.0159 67.0358C57.0494 67.0834 57.0624 67.1386 57.055 67.2013C57.0483 67.2638 57.018 67.3332 56.9641 67.4094L56.5656 67.9729L56.4146 67.9018L56.8066 67.3475C56.8564 67.2771 56.8747 67.213 56.8614 67.1554C56.8488 67.0977 56.8069 67.052 56.7357 67.0184C56.6862 66.9951 56.6352 66.9836 56.5826 66.984C56.5305 66.9846 56.4803 66.9976 56.4321 67.0232C56.3843 67.0489 56.3422 67.0875 56.3058 67.1391ZM57.1162 68.2602C57.0539 68.2308 57.0049 68.1936 56.9691 68.1485C56.9336 68.1031 56.9153 68.0531 56.914 67.9986C56.913 67.9437 56.9329 67.8874 56.9737 67.8297C57.0097 67.7789 57.0499 67.7429 57.0944 67.7218C57.1391 67.7003 57.1865 67.6892 57.2364 67.6886C57.2863 67.688 57.3367 67.6939 57.3878 67.7061C57.4395 67.7182 57.4901 67.7323 57.5395 67.7484C57.6041 67.7696 57.6562 67.7872 57.6958 67.8013C57.736 67.8151 57.7678 67.8216 57.7911 67.8208C57.8149 67.8202 57.8345 67.8089 57.85 67.787L57.8533 67.7823C57.8936 67.7254 57.9076 67.673 57.8954 67.6251C57.8836 67.5775 57.8429 67.5373 57.7734 67.5045C57.7013 67.4705 57.6348 67.4581 57.5737 67.4673C57.5126 67.4765 57.4623 67.4934 57.4228 67.5179L57.3122 67.4041C57.3759 67.3623 57.4397 67.3364 57.5036 67.3265C57.5681 67.3164 57.63 67.3173 57.6892 67.3293C57.7491 67.3411 57.8038 67.3587 57.8532 67.382C57.8848 67.3969 57.9186 67.4174 57.9546 67.4437C57.9914 67.4697 58.0216 67.5022 58.0452 67.541C58.0694 67.5801 58.0794 67.6267 58.0753 67.6807C58.0712 67.7347 58.0442 67.7969 57.9944 67.8674L57.5812 68.4517L57.4303 68.3805L57.5152 68.2604L57.5075 68.2568C57.4837 68.2712 57.4521 68.2838 57.4127 68.2945C57.3733 68.3051 57.3283 68.3088 57.2777 68.3055C57.2272 68.3022 57.1733 68.2871 57.1162 68.2602ZM57.2258 68.1486C57.2855 68.1768 57.3433 68.1899 57.3992 68.188C57.4555 68.1864 57.506 68.1737 57.5506 68.1501C57.5956 68.1266 57.6312 68.0964 57.6573 68.0595L57.7455 67.9348C57.7342 67.9387 57.7156 67.9384 57.6898 67.9339C57.6647 67.9293 57.6365 67.9224 57.6054 67.9134C57.5749 67.9042 57.5454 67.8949 57.5168 67.8855C57.4889 67.8759 57.4661 67.8683 57.4486 67.8626C57.4061 67.8487 57.3641 67.8389 57.3226 67.8332C57.2818 67.8274 57.2438 67.8297 57.2085 67.8402C57.1739 67.8506 57.1443 67.8731 57.1198 67.9078C57.0863 67.9551 57.0804 68.0001 57.1021 68.0426C57.1244 68.085 57.1657 68.1203 57.2258 68.1486ZM59.0394 68.2214L58.8793 68.1921C58.8852 68.1677 58.8867 68.1419 58.8836 68.1148C58.8813 68.0876 58.8706 68.0609 58.8514 68.035C58.8322 68.009 58.8007 67.9857 58.7568 67.965C58.6967 67.9366 58.6377 67.9255 58.5799 67.9316C58.5228 67.9376 58.4808 67.9596 58.4539 67.9977C58.4299 68.0316 58.4246 68.0648 58.4381 68.0973C58.4515 68.1298 58.4825 68.1662 58.5313 68.2066L58.6543 68.3077C58.7285 68.3684 58.7731 68.4287 58.7882 68.4886C58.8035 68.5482 58.7892 68.609 58.7454 68.6709C58.7095 68.7217 58.6611 68.7595 58.6004 68.7843C58.5401 68.8092 58.473 68.8197 58.3991 68.8157C58.3252 68.8116 58.2501 68.7916 58.1738 68.7556C58.0736 68.7084 58.0045 68.6497 57.9666 68.5794C57.9287 68.5092 57.9277 68.4323 57.9635 68.3486L58.1297 68.3838C58.1096 68.4379 58.1101 68.4859 58.1311 68.5277C58.1526 68.5696 58.1943 68.6052 58.2561 68.6343C58.3265 68.6675 58.3919 68.6803 58.4523 68.6729C58.5134 68.6653 58.5575 68.6424 58.5844 68.6043C58.6062 68.5735 58.6125 68.5421 58.6033 68.51C58.5944 68.4776 58.5689 68.4445 58.5268 68.4108L58.3875 68.299C58.3111 68.2373 58.2661 68.1763 58.2525 68.116C58.2396 68.0555 58.2547 67.9947 58.298 67.9335C58.3334 67.8834 58.3803 67.8465 58.4386 67.8227C58.4974 67.7991 58.5616 67.7891 58.6313 67.7926C58.7014 67.7964 58.771 67.8146 58.8401 67.8472C58.9373 67.893 59 67.9482 59.0282 68.0129C59.0569 68.0777 59.0606 68.1472 59.0394 68.2214ZM59.1968 69.2378C59.1021 69.1932 59.0338 69.1358 58.9918 69.0658C58.9505 68.9955 58.9354 68.9175 58.9465 68.8319C58.9583 68.7461 58.9963 68.6578 59.0605 68.567C59.1247 68.4761 59.1997 68.4047 59.2854 68.3527C59.3717 68.3005 59.4617 68.2706 59.5553 68.2628C59.6496 68.2549 59.7411 68.2719 59.8298 68.3137C59.881 68.3378 59.9261 68.3693 59.9651 68.4082C60.0041 68.4472 60.0318 68.4936 60.0482 68.5475C60.065 68.6011 60.0655 68.6619 60.0498 68.7299C60.0341 68.798 59.9969 68.8734 59.9384 68.9561L59.8976 69.0139L59.1402 68.6569L59.2235 68.5391L59.8274 68.8237C59.8627 68.7737 59.8832 68.7238 59.8888 68.6741C59.8948 68.6246 59.8856 68.5789 59.8612 68.5371C59.8371 68.4955 59.7978 68.4618 59.7432 68.4361C59.6831 68.4078 59.6216 68.3967 59.5586 68.4029C59.4963 68.409 59.4383 68.4279 59.3847 68.4595C59.331 68.4912 59.2869 68.5315 59.2523 68.5804L59.1968 68.6589C59.1494 68.7259 59.1221 68.7887 59.1147 68.8473C59.108 68.9058 59.1192 68.958 59.1481 69.0039C59.1773 69.0495 59.2223 69.0867 59.2833 69.1154C59.323 69.1341 59.3623 69.146 59.4014 69.1511C59.4412 69.1559 59.48 69.1537 59.5179 69.1444C59.556 69.1346 59.5924 69.1174 59.627 69.0926L59.7467 69.1983C59.6997 69.2357 59.6462 69.2628 59.586 69.2796C59.526 69.296 59.4628 69.3011 59.3961 69.2948C59.3297 69.2882 59.2633 69.2692 59.1968 69.2378ZM61.029 69.1592L60.8689 69.1299C60.8748 69.1055 60.8762 69.0797 60.8732 69.0526C60.8709 69.0254 60.8601 68.9987 60.841 68.9728C60.8218 68.9468 60.7902 68.9235 60.7463 68.9028C60.6862 68.8744 60.6272 68.8633 60.5695 68.8694C60.5124 68.8754 60.4704 68.8974 60.4434 68.9355C60.4195 68.9694 60.4142 69.0026 60.4276 69.0351C60.441 69.0675 60.4721 69.104 60.5208 69.1444L60.6438 69.2455C60.718 69.3062 60.7627 69.3665 60.7777 69.4264C60.793 69.486 60.7788 69.5468 60.7349 69.6087C60.699 69.6595 60.6507 69.6973 60.59 69.7221C60.5297 69.747 60.4626 69.7575 60.3887 69.7534C60.3148 69.7494 60.2396 69.7294 60.1633 69.6934C60.0631 69.6462 59.994 69.5874 59.9561 69.5172C59.9182 69.447 59.9172 69.3701 59.9531 69.2864L60.1192 69.3216C60.0991 69.3757 60.0996 69.4237 60.1207 69.4655C60.1422 69.5074 60.1838 69.543 60.2457 69.5721C60.316 69.6053 60.3814 69.6181 60.4419 69.6107C60.503 69.6031 60.547 69.5802 60.574 69.5421C60.5957 69.5113 60.602 69.4799 60.5928 69.4478C60.5839 69.4154 60.5584 69.3823 60.5163 69.3486L60.377 69.2368C60.3007 69.1751 60.2557 69.1141 60.242 69.0538C60.2291 68.9933 60.2443 68.9325 60.2876 68.8713C60.3229 68.8212 60.3698 68.7843 60.4282 68.7605C60.4869 68.7369 60.5512 68.7268 60.6208 68.7304C60.6909 68.7342 60.7605 68.7524 60.8296 68.785C60.9268 68.8308 60.9896 68.886 61.0178 68.9506C61.0464 69.0155 61.0502 69.085 61.029 69.1592Z" fill="#2A3F5F"/>
<path d="M64.0203 65.7325C63.9321 65.8572 63.8309 65.9532 63.7168 66.0205C63.6026 66.0879 63.4846 66.1256 63.3628 66.1339C63.241 66.1422 63.1242 66.12 63.0124 66.0673C62.9007 66.0146 62.8188 65.9432 62.7666 65.8529C62.7145 65.7626 62.6956 65.6603 62.7099 65.5459C62.7243 65.4316 62.7755 65.312 62.8637 65.1873C62.9519 65.0626 63.0531 64.9666 63.1672 64.8993C63.2814 64.8319 63.3993 64.7942 63.5212 64.7859C63.643 64.7776 63.7598 64.7998 63.8715 64.8525C63.9833 64.9052 64.0652 64.9766 64.1174 65.0669C64.1695 65.1572 64.1884 65.2595 64.1741 65.3739C64.1597 65.4882 64.1084 65.6078 64.0203 65.7325ZM63.8667 65.6601C63.9391 65.5577 63.9813 65.4624 63.9931 65.374C64.0054 65.2859 63.9922 65.2086 63.9534 65.142C63.915 65.0757 63.8561 65.0238 63.7768 64.9864C63.6975 64.9491 63.6128 64.9333 63.5229 64.9391C63.4333 64.9451 63.3446 64.9744 63.2569 65.027C63.1695 65.0797 63.0897 65.1573 63.0172 65.2597C62.9448 65.3621 62.9025 65.4573 62.8902 65.5455C62.8783 65.6338 62.8916 65.7111 62.93 65.7775C62.9688 65.844 63.0279 65.896 63.1072 65.9334C63.1865 65.9707 63.2709 65.9864 63.3605 65.9804C63.4505 65.9746 63.5391 65.9453 63.6265 65.8925C63.7142 65.84 63.7943 65.7625 63.8667 65.6601ZM64.9029 65.7543L64.8212 65.8698L64.312 65.6298L64.3937 65.5143L64.9029 65.7543ZM64.6924 65.3718L64.8433 65.443L64.2456 66.2883C64.2183 66.3268 64.2041 66.3585 64.2029 66.3836C64.2023 66.4085 64.2095 66.4289 64.2245 66.4446C64.2402 66.4602 64.2592 66.4733 64.2813 66.4837C64.298 66.4916 64.3121 66.4972 64.3239 66.5007C64.3359 66.5038 64.3455 66.5063 64.3528 66.5082L64.2969 66.645C64.2842 66.6437 64.2675 66.6404 64.2467 66.6352C64.2256 66.6304 64.201 66.6214 64.1729 66.6081C64.1302 66.588 64.0943 66.5601 64.0651 66.5242C64.0363 66.4886 64.0204 66.4475 64.0175 66.4009C64.015 66.3546 64.032 66.3056 64.0685 66.2541L64.6924 65.3718ZM65.0522 66.2959L64.6749 66.8294L64.5239 66.7582L65.3601 65.5757L65.5111 65.6469L65.204 66.0811L65.2168 66.0871C65.2723 66.0521 65.3325 66.0321 65.3976 66.0268C65.4634 66.0214 65.5349 66.0369 65.6121 66.0733C65.6791 66.1048 65.7291 66.1446 65.7623 66.1926C65.7958 66.2401 65.8088 66.2953 65.8014 66.358C65.7947 66.4206 65.7644 66.4899 65.7105 66.5661L65.312 67.1297L65.161 67.0585L65.553 66.5042C65.6028 66.4338 65.6211 66.3698 65.6078 66.3122C65.5952 66.2544 65.5533 66.2087 65.4821 66.1752C65.4326 66.1518 65.3816 66.1404 65.329 66.1407C65.2769 66.1413 65.2267 66.1544 65.1785 66.1799C65.1307 66.2056 65.0886 66.2443 65.0522 66.2959ZM65.987 67.4725C65.8924 67.4279 65.824 67.3705 65.7821 67.3004C65.7408 67.2302 65.7257 67.1522 65.7368 67.0666C65.7485 66.9808 65.7865 66.8925 65.8508 66.8016C65.915 66.7108 65.99 66.6394 66.0757 66.5874C66.162 66.5352 66.252 66.5052 66.3456 66.4975C66.4399 66.4896 66.5314 66.5066 66.6201 66.5484C66.6713 66.5725 66.7164 66.604 66.7554 66.6429C66.7944 66.6819 66.8221 66.7283 66.8385 66.7822C66.8552 66.8358 66.8557 66.8966 66.84 66.9646C66.8243 67.0327 66.7872 67.1081 66.7287 67.1908L66.6879 67.2486L65.9305 66.8916L66.0138 66.7738L66.6176 67.0584C66.653 67.0084 66.6735 66.9585 66.6791 66.9088C66.6851 66.8593 66.6759 66.8136 66.6514 66.7718C66.6274 66.7302 66.5881 66.6965 66.5335 66.6708C66.4734 66.6424 66.4118 66.6314 66.3489 66.6376C66.2866 66.6437 66.2286 66.6626 66.1749 66.6942C66.1213 66.7259 66.0772 66.7662 66.0426 66.8151L65.9871 66.8936C65.9397 66.9606 65.9123 67.0234 65.905 67.082C65.8983 67.1405 65.9095 67.1927 65.9384 67.2386C65.9675 67.2842 66.0126 67.3214 66.0736 67.3501C66.1133 67.3688 66.1526 67.3807 66.1917 67.3857C66.2314 67.3906 66.2703 67.3884 66.3082 67.3791C66.3463 67.3693 66.3827 67.3521 66.4172 67.3273L66.537 67.433C66.49 67.4704 66.4365 67.4975 66.3763 67.5143C66.3163 67.5307 66.253 67.5358 66.1864 67.5295C66.12 67.5229 66.0536 67.5039 65.987 67.4725ZM66.6366 67.754L67.2638 66.8672L67.4096 66.9359L67.3149 67.0699L67.3251 67.0747C67.374 67.0393 67.4316 67.0189 67.4979 67.0137C67.5641 67.0085 67.6266 67.0198 67.6855 67.0475C67.6966 67.0527 67.7103 67.0594 67.7267 67.0677C67.743 67.0759 67.7552 67.0824 67.7632 67.0872L67.6652 67.2258C67.6609 67.2222 67.6504 67.2149 67.6337 67.204C67.6177 67.1928 67.5997 67.1826 67.5796 67.1731C67.5318 67.1506 67.4828 67.1395 67.4325 67.1399C67.3829 67.1402 67.336 67.1509 67.2919 67.1722C67.2486 67.1934 67.2127 67.2239 67.1844 67.264L66.7875 67.8252L66.6366 67.754ZM68.2123 68.5214C68.1176 68.4768 68.0493 68.4194 68.0073 68.3493C67.966 68.2791 67.9509 68.2011 67.962 68.1155C67.9738 68.0297 68.0118 67.9414 68.076 67.8505C68.1403 67.7597 68.2152 67.6883 68.3009 67.6363C68.3873 67.5841 68.4773 67.5541 68.5709 67.5464C68.6652 67.5385 68.7566 67.5555 68.8453 67.5973C68.8965 67.6214 68.9416 67.6529 68.9806 67.6918C69.0196 67.7308 69.0473 67.7772 69.0638 67.8311C69.0805 67.8847 69.081 67.9455 69.0653 68.0135C69.0496 68.0816 69.0125 68.157 68.954 68.2397L68.9131 68.2975L68.1557 67.9405L68.239 67.8227L68.8429 68.1073C68.8783 68.0573 68.8988 68.0074 68.9044 67.9577C68.9104 67.9082 68.9012 67.8625 68.8767 67.8207C68.8527 67.7791 68.8134 67.7454 68.7588 67.7197C68.6987 67.6913 68.6371 67.6803 68.5741 67.6865C68.5118 67.6926 68.4539 67.7115 68.4002 67.7431C68.3465 67.7748 68.3024 67.8151 68.2678 67.864L68.2123 67.9425C68.1649 68.0095 68.1376 68.0723 68.1302 68.1309C68.1236 68.1894 68.1347 68.2416 68.1636 68.2875C68.1928 68.3331 68.2379 68.3703 68.2989 68.399C68.3385 68.4177 68.3779 68.4296 68.4169 68.4347C68.4567 68.4395 68.4955 68.4373 68.5334 68.428C68.5716 68.4182 68.6079 68.401 68.6425 68.3762L68.7622 68.4819C68.7153 68.5193 68.6617 68.5464 68.6015 68.5632C68.5416 68.5796 68.4783 68.5847 68.4117 68.5784C68.3453 68.5718 68.2788 68.5528 68.2123 68.5214ZM69.5752 67.9567L69.5542 68.4303L70.046 68.1786L70.22 68.2606L69.5891 68.5545L69.5928 69.1475L69.4188 69.0655L69.4268 68.6104L68.948 68.8436L68.774 68.7616L69.3998 68.4653L69.4012 67.8747L69.5752 67.9567ZM69.5731 69.5816L70.4354 68.3622L70.5812 68.4309L70.4816 68.5718L70.4995 68.5802C70.5215 68.5701 70.5507 68.5577 70.5872 68.5431C70.6244 68.5283 70.6682 68.5202 70.7187 68.5188C70.7698 68.5172 70.8274 68.5315 70.8913 68.5617C70.9741 68.6007 71.0338 68.6537 71.0705 68.7208C71.1072 68.7879 71.119 68.864 71.106 68.9492C71.0929 69.0345 71.0535 69.1236 70.9876 69.2168C70.9212 69.3107 70.8459 69.3838 70.7618 69.436C70.6779 69.4878 70.5913 69.5178 70.502 69.526C70.4129 69.5338 70.3274 69.5184 70.2455 69.4798C70.1824 69.45 70.1385 69.4168 70.1139 69.38C70.0896 69.3429 70.0757 69.3074 70.0724 69.2735C70.0694 69.2392 70.068 69.2114 70.0684 69.19L70.0556 69.1839L69.724 69.6528L69.5731 69.5816ZM70.2702 68.8756C70.2229 68.9425 70.192 69.0068 70.1775 69.0682C70.1633 69.1293 70.1669 69.1841 70.1883 69.2326C70.2099 69.2808 70.251 69.3192 70.3116 69.3477C70.3747 69.3775 70.438 69.3873 70.5014 69.3772C70.5656 69.3669 70.6264 69.3411 70.684 69.3C70.7422 69.2587 70.7936 69.2064 70.8383 69.1433C70.8824 69.081 70.9114 69.0197 70.9255 68.9596C70.9403 68.8994 70.9367 68.8445 70.9147 68.7952C70.8934 68.7457 70.8508 68.7058 70.7869 68.6757C70.7255 68.6467 70.6639 68.6364 70.6023 68.6448C70.5409 68.6529 70.4818 68.6769 70.4251 68.7168C70.3687 68.7564 70.317 68.8094 70.2702 68.8756ZM71.3048 69.9791C71.2101 69.9345 71.1418 69.8771 71.0998 69.807C71.0585 69.7368 71.0434 69.6588 71.0545 69.5732C71.0663 69.4874 71.1043 69.3991 71.1685 69.3082C71.2328 69.2174 71.3077 69.146 71.3934 69.094C71.4798 69.0418 71.5698 69.0118 71.6634 69.0041C71.7576 68.9962 71.8491 69.0132 71.9378 69.055C71.989 69.0791 72.0341 69.1106 72.0731 69.1495C72.1121 69.1884 72.1398 69.2349 72.1563 69.2888C72.173 69.3424 72.1735 69.4032 72.1578 69.4712C72.1421 69.5393 72.105 69.6147 72.0464 69.6974L72.0056 69.7551L71.2482 69.3982L71.3315 69.2804L71.9354 69.565C71.9708 69.515 71.9913 69.4651 71.9969 69.4154C72.0029 69.3659 71.9936 69.3202 71.9692 69.2784C71.9452 69.2368 71.9059 69.2031 71.8513 69.1774C71.7912 69.149 71.7296 69.138 71.6666 69.1442C71.6043 69.1503 71.5464 69.1691 71.4927 69.2008C71.439 69.2325 71.3949 69.2728 71.3603 69.3217L71.3048 69.4002C71.2574 69.4672 71.2301 69.53 71.2227 69.5886C71.2161 69.6471 71.2272 69.6993 71.2561 69.7452C71.2853 69.7908 71.3304 69.828 71.3914 69.8567C71.431 69.8754 71.4704 69.8873 71.5094 69.8923C71.5492 69.8972 71.588 69.895 71.6259 69.8856C71.6641 69.8759 71.7004 69.8587 71.735 69.8339L71.8547 69.9396C71.8078 69.977 71.7542 70.0041 71.694 70.0209C71.6341 70.0373 71.5708 70.0424 71.5041 70.0361C71.4378 70.0295 71.3713 70.0105 71.3048 69.9791ZM72.4826 69.7983L72.1053 70.3318L71.9543 70.2606L72.5815 69.3738L72.7273 69.4425L72.6294 69.5811L72.6421 69.5871C72.697 69.5529 72.7576 69.5332 72.8238 69.528C72.8903 69.5224 72.9607 69.5371 73.0349 69.5721C73.1014 69.6034 73.1509 69.6432 73.1834 69.6913C73.2161 69.7391 73.2288 69.7944 73.2214 69.8571C73.2143 69.9194 73.184 69.9883 73.1307 70.0638L72.7322 70.6273L72.5812 70.5561L72.9732 70.0018C73.0225 69.9322 73.0408 69.8684 73.0282 69.8107C73.0159 69.7525 72.9748 69.7069 72.9048 69.674C72.8566 69.6513 72.8069 69.6404 72.7556 69.6414C72.7047 69.6425 72.6556 69.6561 72.6083 69.682C72.561 69.708 72.5191 69.7467 72.4826 69.7983ZM74.1907 70.3971L74.0306 70.3678C74.0365 70.3434 74.0379 70.3177 74.0349 70.2906C74.0326 70.2633 74.0218 70.2367 74.0027 70.2107C73.9835 70.1848 73.952 70.1614 73.9081 70.1407C73.8479 70.1124 73.789 70.1013 73.7312 70.1074C73.6741 70.1133 73.6321 70.1353 73.6051 70.1735C73.5812 70.2073 73.5759 70.2405 73.5893 70.273C73.6027 70.3055 73.6338 70.342 73.6826 70.3824L73.8055 70.4835C73.8798 70.5441 73.9244 70.6044 73.9394 70.6644C73.9548 70.7239 73.9405 70.7847 73.8967 70.8467C73.8607 70.8975 73.8124 70.9353 73.7517 70.96C73.6914 70.985 73.6243 70.9954 73.5504 70.9914C73.4765 70.9874 73.4014 70.9674 73.325 70.9314C73.2248 70.8841 73.1558 70.8254 73.1179 70.7552C73.0799 70.685 73.0789 70.608 73.1148 70.5243L73.2809 70.5595C73.2608 70.6137 73.2613 70.6617 73.2824 70.7034C73.3039 70.7454 73.3456 70.7809 73.4074 70.8101C73.4778 70.8432 73.5432 70.8561 73.6036 70.8486C73.6647 70.841 73.7087 70.8182 73.7357 70.78C73.7575 70.7492 73.7638 70.7178 73.7546 70.6858C73.7457 70.6534 73.7202 70.6203 73.678 70.5866L73.5388 70.4747C73.4624 70.4131 73.4174 70.3521 73.4038 70.2918C73.3908 70.2313 73.406 70.1704 73.4493 70.1092C73.4847 70.0592 73.5315 70.0223 73.5899 69.9984C73.6487 69.9748 73.7129 69.9648 73.7826 69.9684C73.8527 69.9722 73.9223 69.9904 73.9913 70.0229C74.0886 70.0688 74.1513 70.124 74.1795 70.1886C74.2082 70.2534 74.2119 70.3229 74.1907 70.3971ZM74.348 71.4136C74.2534 71.3689 74.185 71.3116 74.1431 71.2415C74.1018 71.1712 74.0867 71.0933 74.0978 71.0077C74.1095 70.9219 74.1475 70.8335 74.2118 70.7427C74.276 70.6519 74.351 70.5804 74.4366 70.5284C74.523 70.4763 74.613 70.4463 74.7066 70.4386C74.8009 70.4307 74.8924 70.4476 74.9811 70.4894C75.0323 70.5136 75.0773 70.5451 75.1163 70.584C75.1554 70.6229 75.1831 70.6693 75.1995 70.7233C75.2162 70.7768 75.2167 70.8376 75.201 70.9057C75.1853 70.9737 75.1482 71.0491 75.0897 71.1319L75.0489 71.1896L74.2915 70.8326L74.3748 70.7148L74.9786 70.9995C75.014 70.9494 75.0345 70.8996 75.0401 70.8498C75.0461 70.8003 75.0369 70.7547 75.0124 70.7129C74.9884 70.6713 74.9491 70.6376 74.8945 70.6119C74.8344 70.5835 74.7728 70.5725 74.7099 70.5787C74.6476 70.5848 74.5896 70.6036 74.5359 70.6353C74.4823 70.667 74.4381 70.7072 74.4036 70.7561L74.348 70.8347C74.3007 70.9016 74.2733 70.9644 74.266 71.0231C74.2593 71.0815 74.2704 71.1337 74.2994 71.1797C74.3285 71.2253 74.3736 71.2624 74.4346 71.2912C74.4743 71.3099 74.5136 71.3217 74.5527 71.3268C74.5924 71.3317 74.6313 71.3295 74.6691 71.3201C74.7073 71.3104 74.7437 71.2931 74.7782 71.2684L74.8979 71.3741C74.851 71.4115 74.7974 71.4386 74.7372 71.4554C74.6773 71.4718 74.614 71.4769 74.5474 71.4706C74.481 71.4639 74.4146 71.4449 74.348 71.4136ZM76.1802 71.3349L76.0201 71.3056C76.026 71.2812 76.0275 71.2555 76.0245 71.2284C76.0221 71.2011 76.0114 71.1745 75.9922 71.1485C75.9731 71.1225 75.9415 71.0992 75.8976 71.0785C75.8375 71.0502 75.7785 71.0391 75.7207 71.0452C75.6636 71.0511 75.6216 71.0731 75.5947 71.1113C75.5707 71.1451 75.5655 71.1783 75.5789 71.2108C75.5923 71.2433 75.6234 71.2798 75.6721 71.3202L75.7951 71.4213C75.8693 71.4819 75.914 71.5422 75.929 71.6022C75.9443 71.6617 75.93 71.7225 75.8862 71.7845C75.8503 71.8353 75.8019 71.8731 75.7412 71.8978C75.6809 71.9228 75.6138 71.9332 75.5399 71.9292C75.466 71.9252 75.3909 71.9051 75.3146 71.8692C75.2144 71.8219 75.1453 71.7632 75.1074 71.693C75.0695 71.6228 75.0685 71.5458 75.1043 71.4621L75.2705 71.4973C75.2504 71.5515 75.2509 71.5995 75.2719 71.6412C75.2934 71.6832 75.3351 71.7187 75.397 71.7479C75.4673 71.781 75.5327 71.7939 75.5931 71.7864C75.6542 71.7788 75.6983 71.7559 75.7252 71.7178C75.747 71.687 75.7533 71.6556 75.7441 71.6236C75.7352 71.5912 75.7097 71.5581 75.6676 71.5244L75.5283 71.4125C75.4519 71.3509 75.4069 71.2899 75.3933 71.2296C75.3804 71.1691 75.3955 71.1082 75.4388 71.047C75.4742 70.997 75.5211 70.9601 75.5794 70.9362C75.6382 70.9126 75.7024 70.9026 75.7721 70.9062C75.8422 70.91 75.9118 70.9282 75.9809 70.9607C76.0781 71.0066 76.1408 71.0618 76.1691 71.1264C76.1977 71.1912 76.2014 71.2607 76.1802 71.3349Z" fill="#2A3F5F"/>
<path d="M73.0319 65.8027L73.8682 64.6202L74.3108 64.8289C74.4136 64.8773 74.4858 64.9336 74.5273 64.9979C74.5696 65.0619 74.5865 65.1297 74.578 65.2012C74.5696 65.2726 74.5407 65.3432 74.4914 65.4129C74.4422 65.4825 74.3816 65.5384 74.3098 65.5805C74.2384 65.6228 74.158 65.6455 74.0688 65.6486C73.9799 65.6514 73.8845 65.6287 73.7826 65.5807L73.4653 65.4311L73.5551 65.3041L73.8673 65.4512C73.9376 65.4844 74.0019 65.5001 74.0601 65.4982C74.1182 65.4964 74.1701 65.4813 74.2157 65.453C74.262 65.4245 74.3019 65.3866 74.3354 65.3393C74.3688 65.2919 74.389 65.245 74.3958 65.1984C74.403 65.152 74.3925 65.1081 74.3644 65.0666C74.3366 65.0248 74.2871 64.987 74.2159 64.9535L73.937 64.822L73.1906 65.8775L73.0319 65.8027ZM74.1549 66.332L74.7821 65.4451L74.9279 65.5139L74.8332 65.6478L74.8434 65.6527C74.8923 65.6172 74.9499 65.5969 75.0162 65.5917C75.0824 65.5865 75.145 65.5977 75.2038 65.6255C75.2149 65.6307 75.2286 65.6374 75.245 65.6456C75.2613 65.6539 75.2735 65.6604 75.2815 65.6652L75.1835 65.8037C75.1792 65.8002 75.1687 65.7929 75.152 65.782C75.136 65.7708 75.118 65.7605 75.0979 65.7511C75.0502 65.7286 75.0011 65.7175 74.9508 65.7179C74.9012 65.7181 74.8543 65.7289 74.8103 65.7502C74.7669 65.7713 74.731 65.8019 74.7027 65.8419L74.3059 66.4032L74.1549 66.332ZM75.1813 66.8405C75.0926 66.7986 75.0282 66.7429 74.9882 66.6732C74.9487 66.6038 74.9343 66.5259 74.9453 66.4397C74.9566 66.3537 74.9947 66.2649 75.0595 66.1733C75.1248 66.0809 75.2004 66.009 75.2862 65.9576C75.3724 65.9064 75.4623 65.8774 75.5558 65.8707C75.6497 65.8641 75.741 65.8817 75.8297 65.9236C75.9184 65.9654 75.9825 66.021 76.0221 66.0905C76.0621 66.1601 76.0763 66.2382 76.0647 66.3246C76.0535 66.4111 76.0152 66.5006 75.9499 66.593C75.8851 66.6846 75.8097 66.7558 75.7237 66.8067C75.6382 66.8577 75.5485 66.8865 75.4546 66.893C75.3611 66.8998 75.27 66.8823 75.1813 66.8405ZM75.2679 66.718C75.3352 66.7498 75.4017 66.7603 75.4672 66.7497C75.5328 66.739 75.594 66.7132 75.6508 66.6722C75.7076 66.6313 75.757 66.5811 75.7989 66.5219C75.8408 66.4626 75.8695 66.4024 75.8848 66.3414C75.9001 66.2803 75.8971 66.2238 75.876 66.1717C75.8548 66.1196 75.8105 66.0777 75.7431 66.046C75.6757 66.0142 75.6091 66.0039 75.5433 66.0149C75.4775 66.026 75.4161 66.0522 75.359 66.0935C75.3019 66.1349 75.2523 66.1852 75.2104 66.2445C75.1685 66.3037 75.14 66.3637 75.125 66.4244C75.11 66.485 75.1132 66.5412 75.1346 66.5929C75.1561 66.6446 75.2005 66.6863 75.2679 66.718ZM76.9347 66.4598L76.853 66.5753L76.3234 66.3256L76.4051 66.2102L76.9347 66.4598ZM75.9365 67.1718L76.6503 66.1625C76.6862 66.1117 76.7294 66.0756 76.7798 66.0542C76.8301 66.0328 76.8824 66.0236 76.9366 66.0265C76.9908 66.0295 77.0414 66.042 77.0883 66.0641C77.1254 66.0816 77.1538 66.0986 77.1734 66.115C77.1931 66.1315 77.207 66.1447 77.2152 66.1548L77.0885 66.2521C77.0824 66.2461 77.0738 66.2382 77.0626 66.2283C77.0518 66.2186 77.0356 66.2087 77.0138 66.1984C76.9639 66.1749 76.9199 66.1693 76.8816 66.1815C76.8438 66.194 76.8094 66.2221 76.7784 66.266L76.0875 67.243L75.9365 67.1718ZM76.5191 67.4464L77.1463 66.5596L77.2972 66.6307L76.6701 67.5176L76.5191 67.4464ZM77.3276 66.4479C77.2981 66.4341 77.2792 66.413 77.2706 66.3849C77.2625 66.357 77.2675 66.3303 77.2854 66.3049C77.3034 66.2795 77.3292 66.2627 77.3629 66.2544C77.397 66.2464 77.4288 66.2493 77.4582 66.2632C77.4877 66.277 77.5064 66.2979 77.5145 66.3259C77.523 66.354 77.5183 66.3808 77.5004 66.4062C77.4824 66.4316 77.4564 66.4483 77.4222 66.4564C77.3886 66.4646 77.357 66.4618 77.3276 66.4479ZM78.001 66.9625L77.9194 67.0779L77.4102 66.8379L77.4919 66.7224L78.001 66.9625ZM77.7905 66.5799L77.9415 66.6511L77.3437 67.4964C77.3165 67.5349 77.3023 67.5667 77.301 67.5917C77.3005 67.6166 77.3077 67.637 77.3227 67.6527C77.3384 67.6684 77.3573 67.6814 77.3795 67.6918C77.3961 67.6997 77.4103 67.7053 77.4221 67.7088C77.4341 67.7119 77.4437 67.7144 77.4509 67.7163L77.3951 67.8531C77.3824 67.8518 77.3656 67.8485 77.3448 67.8433C77.3238 67.8385 77.2992 67.8295 77.271 67.8162C77.2284 67.7961 77.1925 67.7682 77.1632 67.7323C77.1344 67.6967 77.1186 67.6556 77.1156 67.609C77.1132 67.5627 77.1302 67.5137 77.1666 67.4622L77.7905 66.5799ZM78.1281 68.2048L78.9643 67.0223L79.1152 67.0935L78.8066 67.53L78.8193 67.536C78.8413 67.5258 78.8706 67.5135 78.907 67.4988C78.9442 67.484 78.9881 67.4759 79.0385 67.4746C79.0896 67.473 79.1472 67.4873 79.2112 67.5175C79.2939 67.5565 79.3536 67.6095 79.3903 67.6766C79.427 67.7437 79.4389 67.8198 79.4258 67.905C79.4127 67.9902 79.3733 68.0794 79.3074 68.1725C79.241 68.2665 79.1657 68.3395 79.0816 68.3918C78.9977 68.4436 78.9111 68.4736 78.8218 68.4818C78.7327 68.4896 78.6472 68.4742 78.5653 68.4356C78.5022 68.4058 78.4583 68.3726 78.4337 68.3358C78.4094 68.2987 78.3955 68.2632 78.3922 68.2293C78.3892 68.195 78.3878 68.1671 78.3882 68.1457L78.3703 68.1373L78.2739 68.2736L78.1281 68.2048ZM78.59 67.8313C78.5427 67.8983 78.5118 67.9625 78.4973 68.024C78.4831 68.085 78.4867 68.1398 78.5081 68.1884C78.5297 68.2366 78.5709 68.275 78.6314 68.3035C78.6945 68.3333 78.7578 68.3431 78.8213 68.3329C78.8854 68.3226 78.9462 68.2969 79.0038 68.2558C79.062 68.2144 79.1134 68.1622 79.1581 68.0991C79.2022 68.0367 79.2312 67.9755 79.2453 67.9154C79.2601 67.8551 79.2565 67.8003 79.2345 67.751C79.2133 67.7014 79.1706 67.6616 79.1067 67.6314C79.0453 67.6025 78.9837 67.5922 78.9221 67.6006C78.8607 67.6086 78.8016 67.6326 78.7449 67.6726C78.6885 67.7122 78.6369 67.7651 78.59 67.8313ZM79.6253 68.9352C79.5306 68.8905 79.4623 68.8332 79.4203 68.7631C79.379 68.6928 79.3639 68.6149 79.375 68.5293C79.3867 68.4435 79.4248 68.3551 79.489 68.2643C79.5532 68.1735 79.6282 68.102 79.7139 68.05C79.8002 67.9979 79.8902 67.9679 79.9838 67.9602C80.0781 67.9523 80.1696 67.9692 80.2583 68.011C80.3095 68.0352 80.3546 68.0667 80.3936 68.1056C80.4326 68.1445 80.4603 68.1909 80.4767 68.2449C80.4934 68.2984 80.4939 68.3592 80.4782 68.4273C80.4625 68.4953 80.4254 68.5707 80.3669 68.6535L80.3261 68.7112L79.5687 68.3542L79.652 68.2364L80.2558 68.5211C80.2912 68.471 80.3117 68.4211 80.3173 68.3714C80.3233 68.3219 80.3141 68.2763 80.2896 68.2345C80.2656 68.1928 80.2263 68.1592 80.1717 68.1335C80.1116 68.1051 80.0501 68.0941 79.9871 68.1003C79.9248 68.1064 79.8668 68.1252 79.8131 68.1569C79.7595 68.1886 79.7154 68.2288 79.6808 68.2777L79.6253 68.3562C79.5779 68.4232 79.5505 68.486 79.5432 68.5447C79.5365 68.6031 79.5477 68.6553 79.5766 68.7013C79.6057 68.7469 79.6508 68.784 79.7118 68.8128C79.7515 68.8315 79.7908 68.8433 79.8299 68.8484C79.8697 68.8533 79.9085 68.8511 79.9464 68.8417C79.9845 68.832 80.0209 68.8147 80.0554 68.79L80.1752 68.8957C80.1282 68.9331 80.0747 68.9602 80.0145 68.977C79.9545 68.9934 79.8912 68.9984 79.8246 68.9922C79.7582 68.9855 79.6918 68.9665 79.6253 68.9352ZM81.3395 68.5361L81.2578 68.6516L80.7282 68.4019L80.8098 68.2864L81.3395 68.5361ZM80.3413 69.2481L81.055 68.2388C81.091 68.188 81.1341 68.1519 81.1845 68.1305C81.2349 68.109 81.2872 68.0998 81.3414 68.1028C81.3956 68.1058 81.4462 68.1183 81.4931 68.1404C81.5302 68.1579 81.5585 68.1749 81.5782 68.1913C81.5978 68.2077 81.6118 68.221 81.62 68.231L81.4932 68.3283C81.4872 68.3224 81.4786 68.3145 81.4674 68.3046C81.4566 68.2949 81.4403 68.2849 81.4186 68.2747C81.3687 68.2511 81.3246 68.2455 81.2864 68.2578C81.2486 68.2702 81.2142 68.2984 81.1831 68.3423L80.4923 69.3192L80.3413 69.2481ZM81.2695 69.7102C81.1808 69.6684 81.1165 69.6127 81.0765 69.543C81.0369 69.4735 81.0226 69.3957 81.0335 69.3095C81.0448 69.2235 81.0829 69.1347 81.1477 69.0431C81.213 68.9507 81.2886 68.8788 81.3744 68.8274C81.4607 68.7762 81.5505 68.7472 81.644 68.7404C81.7379 68.7339 81.8292 68.7515 81.9179 68.7933C82.0066 68.8351 82.0708 68.8908 82.1103 68.9602C82.1503 69.0299 82.1645 69.1079 82.1529 69.1943C82.1417 69.2809 82.1035 69.3704 82.0381 69.4628C81.9733 69.5544 81.898 69.6256 81.812 69.6764C81.7264 69.7275 81.6367 69.7563 81.5428 69.7628C81.4493 69.7696 81.3582 69.752 81.2695 69.7102ZM81.3561 69.5878C81.4235 69.6196 81.4899 69.6301 81.5555 69.6194C81.621 69.6088 81.6822 69.583 81.739 69.542C81.7959 69.501 81.8452 69.4509 81.8872 69.3916C81.9291 69.3324 81.9577 69.2722 81.973 69.2111C81.9883 69.1501 81.9854 69.0935 81.9642 69.0415C81.943 68.9894 81.8987 68.9475 81.8314 68.9157C81.764 68.884 81.6974 68.8736 81.6316 68.8847C81.5657 68.8958 81.5043 68.922 81.4472 68.9633C81.3901 69.0046 81.3406 69.055 81.2987 69.1142C81.2567 69.1735 81.2283 69.2335 81.2132 69.2941C81.1982 69.3548 81.2014 69.411 81.2228 69.4627C81.2443 69.5143 81.2887 69.5561 81.3561 69.5878ZM81.9582 70.0102L82.5854 69.1234L82.7313 69.1921L82.6365 69.3261L82.6468 69.3309C82.6957 69.2954 82.7533 69.2751 82.8195 69.2699C82.8858 69.2647 82.9483 69.2759 83.0072 69.3037C83.0182 69.3089 83.032 69.3156 83.0483 69.3239C83.0647 69.3321 83.0769 69.3386 83.0848 69.3434L82.9869 69.482C82.9825 69.4784 82.972 69.4711 82.9553 69.4602C82.9393 69.449 82.9213 69.4387 82.9013 69.4293C82.8535 69.4068 82.8045 69.3957 82.7541 69.3961C82.7045 69.3963 82.6577 69.4071 82.6136 69.4284C82.5702 69.4496 82.5344 69.4801 82.5061 69.5202L82.1092 70.0814L81.9582 70.0102ZM82.9974 70.5247C82.9028 70.4801 82.8344 70.4227 82.7925 70.3526C82.7512 70.2824 82.7361 70.2044 82.7472 70.1188C82.7589 70.033 82.7969 69.9447 82.8612 69.8538C82.9254 69.763 83.0004 69.6916 83.0861 69.6396C83.1724 69.5874 83.2624 69.5574 83.356 69.5497C83.4503 69.5418 83.5418 69.5588 83.6305 69.6006C83.6817 69.6247 83.7267 69.6562 83.7658 69.6951C83.8048 69.734 83.8325 69.7805 83.8489 69.8344C83.8656 69.888 83.8661 69.9488 83.8504 70.0168C83.8347 70.0848 83.7976 70.1602 83.7391 70.243L83.6983 70.3007L82.9409 69.9437L83.0242 69.826L83.628 70.1106C83.6634 70.0606 83.6839 70.0107 83.6895 69.961C83.6955 69.9114 83.6863 69.8658 83.6618 69.824C83.6378 69.7824 83.5985 69.7487 83.5439 69.723C83.4838 69.6946 83.4222 69.6836 83.3593 69.6898C83.297 69.6959 83.239 69.7147 83.1853 69.7464C83.1317 69.7781 83.0875 69.8184 83.053 69.8673L82.9974 69.9458C82.9501 70.0128 82.9227 70.0756 82.9154 70.1342C82.9087 70.1926 82.9199 70.2449 82.9488 70.2908C82.9779 70.3364 83.023 70.3735 83.084 70.4023C83.1237 70.421 83.163 70.4329 83.2021 70.4379C83.2418 70.4428 83.2807 70.4406 83.3185 70.4312C83.3567 70.4215 83.3931 70.4043 83.4276 70.3795L83.5473 70.4852C83.5004 70.5226 83.4469 70.5497 83.3866 70.5665C83.3267 70.5829 83.2634 70.588 83.1968 70.5817C83.1304 70.5751 83.064 70.5561 82.9974 70.5247ZM85.2081 70.3596L85.1264 70.4751L84.6172 70.2351L84.6989 70.1196L85.2081 70.3596ZM84.9975 69.977L85.1485 70.0482L84.5507 70.8935C84.5235 70.932 84.5093 70.9638 84.508 70.9889C84.5075 71.0137 84.5147 71.0341 84.5297 71.0499C84.5454 71.0655 84.5643 71.0785 84.5865 71.089C84.6031 71.0968 84.6173 71.1025 84.6291 71.106C84.6411 71.1091 84.6507 71.1115 84.6579 71.1134L84.6021 71.2503C84.5894 71.2489 84.5727 71.2456 84.5519 71.2405C84.5308 71.2357 84.5062 71.2266 84.4781 71.2134C84.4354 71.1933 84.3995 71.1653 84.3702 71.1294C84.3414 71.0938 84.3256 71.0527 84.3227 71.0062C84.3202 70.9598 84.3372 70.9109 84.3737 70.8593L84.9975 69.977ZM85.0824 71.5106C85.0202 71.4812 84.9711 71.444 84.9354 71.3989C84.8999 71.3534 84.8815 71.3034 84.8802 71.249C84.8792 71.1941 84.8991 71.1378 84.94 71.08C84.9759 71.0292 85.0161 70.9933 85.0606 70.9722C85.1054 70.9507 85.1527 70.9396 85.2026 70.939C85.2525 70.9384 85.3029 70.9442 85.354 70.9565C85.4057 70.9686 85.4563 70.9826 85.5058 70.9988C85.5704 71.02 85.6224 71.0376 85.662 71.0516C85.7022 71.0655 85.734 71.072 85.7573 71.0712C85.7811 71.0705 85.8007 71.0593 85.8162 71.0373L85.8195 71.0327C85.8598 70.9757 85.8738 70.9233 85.8616 70.8755C85.8498 70.8278 85.8091 70.7876 85.7396 70.7549C85.6676 70.7209 85.601 70.7085 85.5399 70.7177C85.4788 70.7269 85.4285 70.7437 85.389 70.7682L85.2784 70.6545C85.3421 70.6127 85.4059 70.5868 85.4698 70.5769C85.5343 70.5668 85.5962 70.5677 85.6554 70.5797C85.7153 70.5915 85.77 70.609 85.8194 70.6324C85.851 70.6472 85.8848 70.6678 85.9208 70.694C85.9576 70.7201 85.9878 70.7525 86.0115 70.7914C86.0356 70.8305 86.0456 70.877 86.0415 70.931C86.0374 70.9851 86.0105 71.0473 85.9607 71.1177L85.5474 71.702L85.3965 71.6309L85.4814 71.5108L85.4737 71.5072C85.4499 71.5216 85.4183 71.5341 85.3789 71.5448C85.3395 71.5555 85.2945 71.5592 85.244 71.5559C85.1934 71.5526 85.1396 71.5375 85.0824 71.5106ZM85.192 71.399C85.2517 71.4272 85.3095 71.4403 85.3654 71.4384C85.4218 71.4367 85.4722 71.4241 85.5168 71.4004C85.5618 71.377 85.5974 71.3468 85.6235 71.3099L85.7117 71.1851C85.7004 71.1891 85.6818 71.1888 85.656 71.1843C85.6309 71.1796 85.6027 71.1728 85.5716 71.1638C85.5412 71.1545 85.5116 71.1452 85.483 71.1359C85.4551 71.1263 85.4323 71.1186 85.4148 71.1129C85.3723 71.0991 85.3303 71.0893 85.2888 71.0836C85.2481 71.0777 85.21 71.0801 85.1747 71.0906C85.1401 71.101 85.1105 71.1235 85.086 71.1581C85.0525 71.2055 85.0466 71.2504 85.0683 71.293C85.0906 71.3353 85.1319 71.3707 85.192 71.399ZM86.5627 70.9981L86.5417 71.4717L87.0335 71.22L87.2075 71.3021L86.5767 71.5959L86.5804 72.1889L86.4064 72.1069L86.4143 71.6518L85.9356 71.885L85.7616 71.803L86.3873 71.5067L86.3887 70.9161L86.5627 70.9981Z" fill="#2A3F5F"/>
<path d="M15.47 64.5208C15.3634 64.5208 15.2727 64.4918 15.1977 64.4338C15.1227 64.3753 15.0655 64.2907 15.0259 64.1799C14.9863 64.0687 14.9665 63.9343 14.9665 63.7768C14.9665 63.6203 14.9863 63.4867 15.0259 63.3759C15.0659 63.2646 15.1235 63.1797 15.1984 63.1213C15.2738 63.0624 15.3644 63.0329 15.47 63.0329C15.5756 63.0329 15.6659 63.0624 15.7408 63.1213C15.8162 63.1797 15.8738 63.2646 15.9134 63.3759C15.9534 63.4867 15.9735 63.6203 15.9735 63.7768C15.9735 63.9343 15.9537 64.0687 15.9141 64.1799C15.8745 64.2907 15.8172 64.3753 15.7422 64.4338C15.6673 64.4918 15.5765 64.5208 15.47 64.5208ZM15.47 64.3652C15.5756 64.3652 15.6576 64.3143 15.7161 64.2125C15.7745 64.1106 15.8038 63.9654 15.8038 63.7768C15.8038 63.6514 15.7903 63.5446 15.7634 63.4565C15.737 63.3683 15.6989 63.3011 15.6489 63.2549C15.5994 63.2087 15.5397 63.1856 15.47 63.1856C15.3653 63.1856 15.2835 63.2373 15.2246 63.3405C15.1656 63.4433 15.1362 63.5887 15.1362 63.7768C15.1362 63.9022 15.1494 64.0088 15.1758 64.0965C15.2022 64.1842 15.2401 64.2509 15.2896 64.2966C15.3396 64.3423 15.3997 64.3652 15.47 64.3652Z" fill="#2A3F5F"/>
<path d="M13.5936 56.7312V56.6039L14.0717 56.0806C14.1278 56.0193 14.174 55.966 14.2103 55.9208C14.2466 55.8751 14.2734 55.8321 14.2909 55.7921C14.3088 55.7515 14.3177 55.7091 14.3177 55.6648C14.3177 55.6139 14.3055 55.5698 14.281 55.5325C14.2569 55.4953 14.2239 55.4665 14.182 55.4463C14.14 55.426 14.0929 55.4159 14.0405 55.4159C13.9849 55.4159 13.9363 55.4274 13.8949 55.4505C13.8538 55.4731 13.822 55.505 13.7994 55.546C13.7772 55.587 13.7662 55.6351 13.7662 55.6902H13.5993C13.5993 55.6054 13.6188 55.5309 13.658 55.4668C13.6971 55.4027 13.7504 55.3527 13.8178 55.3169C13.8857 55.281 13.9618 55.2631 14.0462 55.2631C14.1311 55.2631 14.2063 55.281 14.2718 55.3169C14.3373 55.3527 14.3887 55.401 14.4259 55.4618C14.4632 55.5226 14.4818 55.5903 14.4818 55.6648C14.4818 55.7181 14.4721 55.7702 14.4528 55.8211C14.434 55.8715 14.401 55.9279 14.3538 55.9901C14.3071 56.0518 14.2423 56.1273 14.1593 56.2164L13.834 56.5643V56.5756H14.5073V56.7312H13.5936ZM15.2717 56.751C15.1652 56.751 15.0744 56.722 14.9995 56.664C14.9245 56.6056 14.8672 56.5209 14.8276 56.4101C14.788 56.2989 14.7682 56.1645 14.7682 56.0071C14.7682 55.8505 14.788 55.7169 14.8276 55.6061C14.8677 55.4948 14.9252 55.41 15.0002 55.3515C15.0756 55.2926 15.1661 55.2631 15.2717 55.2631C15.3773 55.2631 15.4676 55.2926 15.5426 55.3515C15.618 55.41 15.6755 55.4948 15.7151 55.6061C15.7552 55.7169 15.7752 55.8505 15.7752 56.0071C15.7752 56.1645 15.7554 56.2989 15.7158 56.4101C15.6762 56.5209 15.6189 56.6056 15.544 56.664C15.469 56.722 15.3783 56.751 15.2717 56.751ZM15.2717 56.5954C15.3773 56.5954 15.4594 56.5445 15.5178 56.4427C15.5763 56.3408 15.6055 56.1956 15.6055 56.0071C15.6055 55.8817 15.5921 55.7749 15.5652 55.6867C15.5388 55.5985 15.5006 55.5314 15.4506 55.4852C15.4011 55.439 15.3415 55.4159 15.2717 55.4159C15.1671 55.4159 15.0853 55.4675 15.0263 55.5707C14.9674 55.6735 14.9379 55.8189 14.9379 56.0071C14.9379 56.1325 14.9511 56.239 14.9775 56.3267C15.0039 56.4144 15.0419 56.4811 15.0914 56.5268C15.1414 56.5726 15.2015 56.5954 15.2717 56.5954Z" fill="#2A3F5F"/>
<path d="M13.2846 48.6647V48.5204L13.921 47.5134H14.0257V47.7368H13.955L13.4741 48.4978V48.5091H14.3312V48.6647H13.2846ZM13.9663 48.9617V48.6208V48.5536V47.5134H14.1332V48.9617H13.9663ZM15.0686 48.9815C14.9621 48.9815 14.8713 48.9525 14.7963 48.8945C14.7214 48.836 14.6641 48.7514 14.6245 48.6406C14.5849 48.5294 14.5651 48.395 14.5651 48.2375C14.5651 48.081 14.5849 47.9473 14.6245 47.8366C14.6646 47.7253 14.7221 47.6404 14.797 47.582C14.8725 47.523 14.963 47.4936 15.0686 47.4936C15.1742 47.4936 15.2645 47.523 15.3394 47.582C15.4149 47.6404 15.4724 47.7253 15.512 47.8366C15.5521 47.9473 15.5721 48.081 15.5721 48.2375C15.5721 48.395 15.5523 48.5294 15.5127 48.6406C15.4731 48.7514 15.4158 48.836 15.3409 48.8945C15.2659 48.9525 15.1751 48.9815 15.0686 48.9815ZM15.0686 48.8259C15.1742 48.8259 15.2562 48.775 15.3147 48.6731C15.3732 48.5713 15.4024 48.4261 15.4024 48.2375C15.4024 48.1121 15.3889 48.0053 15.3621 47.9172C15.3357 47.829 15.2975 47.7618 15.2475 47.7156C15.198 47.6694 15.1384 47.6463 15.0686 47.6463C14.9639 47.6463 14.8821 47.698 14.8232 47.8012C14.7643 47.904 14.7348 48.0494 14.7348 48.2375C14.7348 48.3629 14.748 48.4695 14.7744 48.5572C14.8008 48.6449 14.8388 48.7116 14.8883 48.7573C14.9382 48.803 14.9984 48.8259 15.0686 48.8259Z" fill="#2A3F5F"/>
<path d="M14.0375 41.2117C13.9781 41.2108 13.9187 41.1994 13.8593 41.1778C13.7999 41.1561 13.7457 41.1195 13.6967 41.0681C13.6476 41.0163 13.6083 40.9463 13.5786 40.8581C13.5489 40.7695 13.534 40.6582 13.534 40.5243C13.534 40.3961 13.546 40.2825 13.5701 40.1835C13.5941 40.084 13.629 40.0003 13.6748 39.9324C13.7205 39.8641 13.7756 39.8122 13.8402 39.7768C13.9053 39.7415 13.9786 39.7238 14.0602 39.7238C14.1412 39.7238 14.2134 39.7401 14.2766 39.7726C14.3402 39.8047 14.3921 39.8494 14.4321 39.907C14.4722 39.9645 14.4981 40.0307 14.5099 40.1057H14.3374C14.3213 40.0406 14.2902 39.9866 14.244 39.9437C14.1978 39.9008 14.1365 39.8794 14.0602 39.8794C13.948 39.8794 13.8596 39.9282 13.795 40.0258C13.7309 40.1234 13.6986 40.2603 13.6981 40.4366H13.7094C13.7358 40.3966 13.7672 40.3624 13.8035 40.3341C13.8402 40.3053 13.8808 40.2832 13.9251 40.2676C13.9694 40.2521 14.0163 40.2443 14.0658 40.2443C14.1488 40.2443 14.2247 40.265 14.2935 40.3065C14.3624 40.3475 14.4175 40.4043 14.459 40.4769C14.5005 40.5491 14.5212 40.6318 14.5212 40.7252C14.5212 40.8147 14.5012 40.8968 14.4611 40.9713C14.4211 41.0453 14.3647 41.1042 14.2921 41.148C14.22 41.1914 14.1351 41.2126 14.0375 41.2117ZM14.0375 41.0561C14.0969 41.0561 14.1502 41.0413 14.1974 41.0116C14.245 40.9819 14.2824 40.942 14.3098 40.8921C14.3376 40.8421 14.3515 40.7864 14.3515 40.7252C14.3515 40.6653 14.3381 40.6108 14.3112 40.5618C14.2848 40.5123 14.2483 40.4729 14.2016 40.4437C14.1554 40.4145 14.1026 40.3999 14.0432 40.3999C13.9984 40.3999 13.9567 40.4088 13.918 40.4267C13.8794 40.4442 13.8454 40.4682 13.8162 40.4989C13.7874 40.5295 13.7648 40.5646 13.7483 40.6042C13.7318 40.6434 13.7235 40.6846 13.7235 40.728C13.7235 40.7855 13.737 40.8393 13.7639 40.8892C13.7912 40.9392 13.8284 40.9795 13.8756 41.0102C13.9232 41.0408 13.9772 41.0561 14.0375 41.0561ZM15.2717 41.2117C15.1652 41.2117 15.0744 41.1827 14.9995 41.1247C14.9245 41.0663 14.8672 40.9816 14.8276 40.8708C14.788 40.7596 14.7682 40.6252 14.7682 40.4677C14.7682 40.3112 14.788 40.1776 14.8276 40.0668C14.8677 39.9555 14.9252 39.8707 15.0002 39.8122C15.0756 39.7533 15.1661 39.7238 15.2717 39.7238C15.3773 39.7238 15.4676 39.7533 15.5426 39.8122C15.618 39.8707 15.6755 39.9555 15.7151 40.0668C15.7552 40.1776 15.7752 40.3112 15.7752 40.4677C15.7752 40.6252 15.7554 40.7596 15.7158 40.8708C15.6762 40.9816 15.6189 41.0663 15.544 41.1247C15.469 41.1827 15.3783 41.2117 15.2717 41.2117ZM15.2717 41.0561C15.3773 41.0561 15.4594 41.0052 15.5178 40.9034C15.5763 40.8015 15.6055 40.6563 15.6055 40.4677C15.6055 40.3423 15.5921 40.2356 15.5652 40.1474C15.5388 40.0592 15.5006 39.9921 15.4506 39.9459C15.4011 39.8997 15.3415 39.8766 15.2717 39.8766C15.1671 39.8766 15.0853 39.9282 15.0263 40.0314C14.9674 40.1342 14.9379 40.2796 14.9379 40.4677C14.9379 40.5932 14.9511 40.6997 14.9775 40.7874C15.0039 40.8751 15.0419 40.9418 15.0914 40.9875C15.1414 41.0333 15.2015 41.0561 15.2717 41.0561Z" fill="#2A3F5F"/>
<path d="M14.0361 33.44C13.939 33.44 13.8532 33.4228 13.7787 33.3883C13.7047 33.3535 13.6469 33.3056 13.6054 33.2448C13.564 33.1835 13.5435 33.1137 13.5439 33.0355C13.5435 32.9742 13.5555 32.9176 13.58 32.8657C13.6045 32.8134 13.638 32.7698 13.6804 32.7349C13.7233 32.6996 13.7712 32.6772 13.824 32.6677V32.6592C13.7547 32.6413 13.6995 32.6024 13.6585 32.5426C13.6175 32.4822 13.5972 32.4136 13.5977 32.3368C13.5972 32.2632 13.6158 32.1975 13.6535 32.1395C13.6913 32.0815 13.7431 32.0358 13.8091 32.0023C13.8756 31.9688 13.9513 31.9521 14.0361 31.9521C14.12 31.9521 14.195 31.9688 14.261 32.0023C14.327 32.0358 14.3789 32.0815 14.4166 32.1395C14.4548 32.1975 14.4741 32.2632 14.4746 32.3368C14.4741 32.4136 14.4531 32.4822 14.4116 32.5426C14.3706 32.6024 14.3162 32.6413 14.2483 32.6592V32.6677C14.3006 32.6772 14.3477 32.6996 14.3897 32.7349C14.4317 32.7698 14.4651 32.8134 14.4901 32.8657C14.5151 32.9176 14.5278 32.9742 14.5283 33.0355C14.5278 33.1137 14.5066 33.1835 14.4647 33.2448C14.4232 33.3056 14.3654 33.3535 14.2914 33.3883C14.2179 33.4228 14.1328 33.44 14.0361 33.44ZM14.0361 33.2844C14.1016 33.2844 14.1582 33.2738 14.2058 33.2526C14.2535 33.2314 14.2902 33.2014 14.3162 33.1628C14.3421 33.1241 14.3553 33.0788 14.3558 33.027C14.3553 32.9723 14.3411 32.924 14.3133 32.882C14.2855 32.84 14.2476 32.807 14.1995 32.783C14.1519 32.759 14.0974 32.7469 14.0361 32.7469C13.9744 32.7469 13.9192 32.759 13.8706 32.783C13.8226 32.807 13.7846 32.84 13.7568 32.882C13.7294 32.924 13.716 32.9723 13.7165 33.027C13.716 33.0788 13.7285 33.1241 13.754 33.1628C13.7799 33.2014 13.8169 33.2314 13.865 33.2526C13.9131 33.2738 13.9701 33.2844 14.0361 33.2844ZM14.0361 32.597C14.088 32.597 14.1339 32.5866 14.174 32.5659C14.2146 32.5452 14.2464 32.5162 14.2695 32.4789C14.2926 32.4417 14.3044 32.3981 14.3048 32.3481C14.3044 32.2991 14.2928 32.2564 14.2702 32.2201C14.2476 32.1833 14.2162 32.155 14.1761 32.1352C14.1361 32.115 14.0894 32.1048 14.0361 32.1048C13.9819 32.1048 13.9345 32.115 13.894 32.1352C13.8534 32.155 13.8221 32.1833 13.7999 32.2201C13.7778 32.2564 13.7669 32.2991 13.7674 32.3481C13.7669 32.3981 13.778 32.4417 13.8006 32.4789C13.8237 32.5162 13.8556 32.5452 13.8961 32.5659C13.9366 32.5866 13.9833 32.597 14.0361 32.597ZM15.2717 33.44C15.1652 33.44 15.0744 33.411 14.9995 33.353C14.9245 33.2945 14.8672 33.2099 14.8276 33.0991C14.788 32.9878 14.7682 32.8535 14.7682 32.696C14.7682 32.5395 14.788 32.4058 14.8276 32.2951C14.8677 32.1838 14.9252 32.0989 15.0002 32.0405C15.0756 31.9815 15.1661 31.9521 15.2717 31.9521C15.3773 31.9521 15.4676 31.9815 15.5426 32.0405C15.618 32.0989 15.6755 32.1838 15.7151 32.2951C15.7552 32.4058 15.7752 32.5395 15.7752 32.696C15.7752 32.8535 15.7554 32.9878 15.7158 33.0991C15.6762 33.2099 15.6189 33.2945 15.544 33.353C15.469 33.411 15.3783 33.44 15.2717 33.44ZM15.2717 33.2844C15.3773 33.2844 15.4594 33.2335 15.5178 33.1316C15.5763 33.0298 15.6055 32.8846 15.6055 32.696C15.6055 32.5706 15.5921 32.4638 15.5652 32.3757C15.5388 32.2875 15.5006 32.2203 15.4506 32.1741C15.4011 32.1279 15.3415 32.1048 15.2717 32.1048C15.1671 32.1048 15.0853 32.1564 15.0263 32.2597C14.9674 32.3625 14.9379 32.5079 14.9379 32.696C14.9379 32.8214 14.9511 32.928 14.9775 33.0157C15.0039 33.1034 15.0419 33.1701 15.0914 33.2158C15.1414 33.2615 15.2015 33.2844 15.2717 33.2844Z" fill="#2A3F5F"/>
<path d="M13.1436 24.2022V25.6505H12.9682V24.3861H12.9597L12.6061 24.6209V24.4427L12.9682 24.2022H13.1436ZM14.0325 25.6703C13.9259 25.6703 13.8352 25.6413 13.7602 25.5833C13.6852 25.5249 13.628 25.4402 13.5884 25.3295C13.5488 25.2182 13.529 25.0838 13.529 24.9264C13.529 24.7698 13.5488 24.6362 13.5884 24.5254C13.6284 24.4141 13.686 24.3293 13.7609 24.2708C13.8363 24.2119 13.9269 24.1824 14.0325 24.1824C14.1381 24.1824 14.2284 24.2119 14.3033 24.2708C14.3787 24.3293 14.4363 24.4141 14.4759 24.5254C14.5159 24.6362 14.536 24.7698 14.536 24.9264C14.536 25.0838 14.5162 25.2182 14.4766 25.3295C14.437 25.4402 14.3797 25.5249 14.3047 25.5833C14.2298 25.6413 14.139 25.6703 14.0325 25.6703ZM14.0325 25.5147C14.1381 25.5147 14.2201 25.4638 14.2786 25.362C14.337 25.2602 14.3663 25.1149 14.3663 24.9264C14.3663 24.801 14.3528 24.6942 14.3259 24.606C14.2995 24.5179 14.2614 24.4507 14.2114 24.4045C14.1619 24.3583 14.1022 24.3352 14.0325 24.3352C13.9278 24.3352 13.846 24.3868 13.7871 24.49C13.7281 24.5928 13.6987 24.7383 13.6987 24.9264C13.6987 25.0518 13.7119 25.1583 13.7383 25.246C13.7647 25.3337 13.8026 25.4004 13.8521 25.4461C13.9021 25.4919 13.9622 25.5147 14.0325 25.5147ZM15.2771 25.6703C15.1705 25.6703 15.0798 25.6413 15.0048 25.5833C14.9299 25.5249 14.8726 25.4402 14.833 25.3295C14.7934 25.2182 14.7736 25.0838 14.7736 24.9264C14.7736 24.7698 14.7934 24.6362 14.833 24.5254C14.8731 24.4141 14.9306 24.3293 15.0055 24.2708C15.081 24.2119 15.1715 24.1824 15.2771 24.1824C15.3827 24.1824 15.473 24.2119 15.5479 24.2708C15.6234 24.3293 15.6809 24.4141 15.7205 24.5254C15.7606 24.6362 15.7806 24.7698 15.7806 24.9264C15.7806 25.0838 15.7608 25.2182 15.7212 25.3295C15.6816 25.4402 15.6243 25.5249 15.5494 25.5833C15.4744 25.6413 15.3836 25.6703 15.2771 25.6703ZM15.2771 25.5147C15.3827 25.5147 15.4647 25.4638 15.5232 25.362C15.5816 25.2602 15.6109 25.1149 15.6109 24.9264C15.6109 24.801 15.5974 24.6942 15.5706 24.606C15.5442 24.5179 15.506 24.4507 15.456 24.4045C15.4065 24.3583 15.3469 24.3352 15.2771 24.3352C15.1724 24.3352 15.0906 24.3868 15.0317 24.49C14.9728 24.5928 14.9433 24.7383 14.9433 24.9264C14.9433 25.0518 14.9565 25.1583 14.9829 25.246C15.0093 25.3337 15.0473 25.4004 15.0968 25.4461C15.1467 25.4919 15.2068 25.5147 15.2771 25.5147Z" fill="#2A3F5F"/>
<path d="M13.1824 16.4326V17.8809H13.0071V16.6164H12.9986L12.645 16.8512V16.673L13.0071 16.4326H13.1824ZM13.599 17.8809V17.7536L14.077 17.2303C14.1331 17.169 14.1793 17.1157 14.2156 17.0704C14.2519 17.0247 14.2788 16.9818 14.2962 16.9417C14.3142 16.9012 14.3231 16.8588 14.3231 16.8144C14.3231 16.7635 14.3109 16.7194 14.2863 16.6822C14.2623 16.645 14.2293 16.6162 14.1873 16.5959C14.1454 16.5757 14.0982 16.5655 14.0459 16.5655C13.9903 16.5655 13.9417 16.5771 13.9002 16.6002C13.8592 16.6228 13.8274 16.6546 13.8048 16.6956C13.7826 16.7367 13.7715 16.7847 13.7715 16.8399H13.6046C13.6046 16.755 13.6242 16.6806 13.6633 16.6164C13.7025 16.5523 13.7557 16.5023 13.8231 16.4665C13.891 16.4307 13.9672 16.4128 14.0516 16.4128C14.1364 16.4128 14.2116 16.4307 14.2772 16.4665C14.3427 16.5023 14.3941 16.5507 14.4313 16.6115C14.4686 16.6723 14.4872 16.74 14.4872 16.8144C14.4872 16.8677 14.4775 16.9198 14.4582 16.9707C14.4393 17.0212 14.4063 17.0775 14.3592 17.1397C14.3125 17.2015 14.2477 17.2769 14.1647 17.366L13.8394 17.714V17.7253H14.5126V17.8809H13.599ZM15.2771 17.9007C15.1705 17.9007 15.0798 17.8717 15.0048 17.8137C14.9299 17.7552 14.8726 17.6706 14.833 17.5598C14.7934 17.4485 14.7736 17.3142 14.7736 17.1567C14.7736 17.0002 14.7934 16.8665 14.833 16.7557C14.8731 16.6445 14.9306 16.5596 15.0055 16.5012C15.081 16.4422 15.1715 16.4128 15.2771 16.4128C15.3827 16.4128 15.473 16.4422 15.5479 16.5012C15.6234 16.5596 15.6809 16.6445 15.7205 16.7557C15.7606 16.8665 15.7806 17.0002 15.7806 17.1567C15.7806 17.3142 15.7608 17.4485 15.7212 17.5598C15.6816 17.6706 15.6243 17.7552 15.5494 17.8137C15.4744 17.8717 15.3836 17.9007 15.2771 17.9007ZM15.2771 17.7451C15.3827 17.7451 15.4647 17.6942 15.5232 17.5923C15.5816 17.4905 15.6109 17.3453 15.6109 17.1567C15.6109 17.0313 15.5974 16.9245 15.5706 16.8364C15.5442 16.7482 15.506 16.681 15.456 16.6348C15.4065 16.5886 15.3469 16.5655 15.2771 16.5655C15.1724 16.5655 15.0906 16.6171 15.0317 16.7204C14.9728 16.8232 14.9433 16.9686 14.9433 17.1567C14.9433 17.2821 14.9565 17.3887 14.9829 17.4764C15.0093 17.564 15.0473 17.6308 15.0968 17.6765C15.1467 17.7222 15.2068 17.7451 15.2771 17.7451Z" fill="#2A3F5F"/>
<path d="M13.1105 8.66279V10.1111H12.9351V8.84666H12.9266L12.573 9.08144V8.90323L12.9351 8.66279H13.1105ZM13.4931 9.81407V9.66981L14.1295 8.66279H14.2342V8.88626H14.1635L13.6826 9.64718V9.65849H14.5397V9.81407H13.4931ZM14.1748 10.1111V9.77023V9.70305V8.66279H14.3417V10.1111H14.1748ZM15.2771 10.1309C15.1705 10.1309 15.0798 10.1019 15.0048 10.0439C14.9299 9.98544 14.8726 9.90082 14.833 9.79003C14.7934 9.67877 14.7736 9.5444 14.7736 9.38694C14.7736 9.23042 14.7934 9.09676 14.833 8.98597C14.8731 8.87471 14.9306 8.78985 15.0055 8.73139C15.081 8.67246 15.1715 8.64299 15.2771 8.64299C15.3827 8.64299 15.473 8.67246 15.5479 8.73139C15.6234 8.78985 15.6809 8.87471 15.7205 8.98597C15.7606 9.09676 15.7806 9.23042 15.7806 9.38694C15.7806 9.5444 15.7608 9.67877 15.7212 9.79003C15.6816 9.90082 15.6243 9.98544 15.5494 10.0439C15.4744 10.1019 15.3836 10.1309 15.2771 10.1309ZM15.2771 9.97531C15.3827 9.97531 15.4647 9.92439 15.5232 9.82256C15.5816 9.72072 15.6109 9.57552 15.6109 9.38694C15.6109 9.26153 15.5974 9.15475 15.5706 9.06659C15.5442 8.97843 15.506 8.91125 15.456 8.86505C15.4065 8.81884 15.3469 8.79574 15.2771 8.79574C15.1724 8.79574 15.0906 8.84737 15.0317 8.95061C14.9728 9.05339 14.9433 9.19883 14.9433 9.38694C14.9433 9.51234 14.9565 9.61889 14.9829 9.70658C15.0093 9.79427 15.0473 9.86098 15.0968 9.90671C15.1467 9.95244 15.2068 9.97531 15.2771 9.97531Z" fill="#2A3F5F"/>
<path d="M0.5 77.5H99.5V97C99.5 98.3807 98.3807 99.5 97 99.5H3C1.61929 99.5 0.5 98.3807 0.5 97V77.5Z" fill="#FFF4F1" stroke="#C6D0DC"/>
<path d="M23.5723 82.9846L20.9609 92.9788H19.1699L17.502 86.9905C17.4609 86.8446 17.4154 86.6715 17.3652 86.4709C17.3151 86.2704 17.265 86.0653 17.2148 85.8557C17.1693 85.6461 17.1283 85.4547 17.0918 85.2815C17.0599 85.1038 17.0371 84.967 17.0234 84.8713C17.0143 84.967 16.9938 85.1015 16.9619 85.2747C16.93 85.4478 16.8913 85.6392 16.8457 85.8489C16.8047 86.054 16.7591 86.259 16.709 86.4641C16.6589 86.6646 16.6133 86.8424 16.5723 86.9973L14.9316 92.9788H13.1475L10.543 82.9846H12.1904L13.6328 88.843C13.6784 89.0299 13.724 89.2327 13.7695 89.4514C13.8197 89.6656 13.8652 89.8821 13.9062 90.1008C13.9518 90.3196 13.9928 90.5338 14.0293 90.7434C14.0658 90.9485 14.0954 91.1353 14.1182 91.304C14.141 91.1308 14.1706 90.9394 14.207 90.7297C14.2435 90.5155 14.2822 90.2991 14.3232 90.0803C14.3688 89.857 14.4144 89.6428 14.46 89.4377C14.5101 89.2327 14.5602 89.0481 14.6104 88.884L16.2373 82.9846H17.8369L19.498 88.9045C19.5482 89.0732 19.596 89.2623 19.6416 89.4719C19.6917 89.6816 19.7396 89.8958 19.7852 90.1145C19.8307 90.3333 19.8717 90.5452 19.9082 90.7502C19.9447 90.9553 19.9743 91.1399 19.9971 91.304C20.029 91.0806 20.07 90.8254 20.1201 90.5383C20.1702 90.2512 20.2272 89.9596 20.291 89.6633C20.3548 89.3671 20.4186 89.0937 20.4824 88.843L21.918 82.9846H23.5723ZM31.1807 92.9788L30.2031 90.2034H26.3818L25.4043 92.9788H23.6748L27.3936 82.9436H29.2119L32.9238 92.9788H31.1807ZM29.7793 88.7952L28.8291 86.0608C28.7926 85.9423 28.7402 85.776 28.6719 85.5618C28.6035 85.343 28.5352 85.122 28.4668 84.8987C28.3984 84.6708 28.3415 84.4794 28.2959 84.3245C28.2503 84.5113 28.1934 84.7209 28.125 84.9534C28.0612 85.1812 27.9974 85.3954 27.9336 85.5959C27.8743 85.7965 27.8288 85.9514 27.7969 86.0608L26.8398 88.7952H29.7793ZM37.709 92.9788H36.0615V84.3792H33.1357V82.9846H40.6279V84.3792H37.709V92.9788ZM47.8193 92.9788H42.1592V82.9846H47.8193V84.3655H43.7998V87.0793H47.5664V88.4534H43.7998V91.5911H47.8193V92.9788ZM52.7891 82.9846C53.6504 82.9846 54.3613 83.0894 54.9219 83.2991C55.487 83.5087 55.9062 83.8277 56.1797 84.2561C56.4577 84.6845 56.5967 85.2291 56.5967 85.8899C56.5967 86.3821 56.5055 86.8014 56.3232 87.1477C56.141 87.4941 55.9017 87.7812 55.6055 88.009C55.3092 88.2369 54.9925 88.4192 54.6553 88.5559L57.4922 92.9788H55.6396L53.2266 88.9729H51.6201V92.9788H49.9795V82.9846H52.7891ZM52.6797 84.3518H51.6201V87.6194H52.7549C53.516 87.6194 54.0674 87.4781 54.4092 87.1956C54.7555 86.913 54.9287 86.496 54.9287 85.9446C54.9287 85.3658 54.7441 84.9556 54.375 84.7141C54.0104 84.4726 53.4453 84.3518 52.6797 84.3518ZM60.5479 92.9788H58.9209V82.9846H64.5674V84.3655H60.5479V87.4827H64.3076V88.8567H60.5479V92.9788ZM72.5791 92.9788L71.6016 90.2034H67.7803L66.8027 92.9788H65.0732L68.792 82.9436H70.6104L74.3223 92.9788H72.5791ZM71.1777 88.7952L70.2275 86.0608C70.1911 85.9423 70.1387 85.776 70.0703 85.5618C70.002 85.343 69.9336 85.122 69.8652 84.8987C69.7969 84.6708 69.7399 84.4794 69.6943 84.3245C69.6488 84.5113 69.5918 84.7209 69.5234 84.9534C69.4596 85.1812 69.3958 85.3954 69.332 85.5959C69.2728 85.7965 69.2272 85.9514 69.1953 86.0608L68.2383 88.7952H71.1777ZM75.6416 92.9788V82.9846H77.2822V91.5842H81.5273V92.9788H75.6416ZM83.2568 92.9788V82.9846H84.8975V91.5842H89.1426V92.9788H83.2568Z" fill="#C43E1C"/>
</svg>
